# Blender 5.2.1 LTS
# www.blender.org
mtllib block.mtl
o block
v 1.074524 0.187500 0.190641
v 0.875000 0.437500 0.875000
v 0.809359 0.187500 1.074524
v 1.074524 0.187500 0.809359
v 0.875000 0.437500 0.125000
v 0.809359 0.187500 -0.074524
v 0.125000 0.437500 0.125000
v 1.074524 -0.000000 0.190641
v 0.809359 0.000000 1.074524
v 0.809359 -0.000000 -0.074524
v 0.125000 0.437500 0.875000
v 1.074524 0.000000 0.809359
v -0.074524 0.187500 0.809359
v 0.190641 0.187500 -0.074524
v 0.190641 0.187500 1.074524
v -0.074524 0.187500 0.190641
v 0.190641 -0.000000 -0.074524
v -0.074524 0.000000 0.809359
v 0.190641 0.000000 1.074524
v -0.074524 -0.000000 0.190641
v 0.390165 -0.000000 0.125000
v 0.125000 0.187500 0.125000
v 0.609835 -0.000000 0.125000
v 0.390165 0.187500 0.125000
v 0.609835 0.187500 0.125000
v 0.875000 0.187500 0.125000
v 0.875000 0.000000 0.609835
v 0.875000 -0.000000 0.390165
v 0.875000 0.187500 0.390165
v 0.875000 0.187500 0.875000
v 0.875000 0.187500 0.609835
v 0.609835 0.000000 0.875000
v 0.390165 0.000000 0.875000
v 0.609835 0.187500 0.875000
v 0.390165 0.187500 0.875000
v 0.125000 0.187500 0.875000
v 0.125000 -0.000000 0.390165
v 0.125000 0.000000 0.609835
v 0.125000 0.187500 0.609835
v 0.125000 0.187500 0.390165
v 0.234835 0.000000 0.500000
v 0.500000 -0.000000 0.234835
v 0.500000 0.000000 0.765165
v 0.765165 0.000000 0.500000
v 0.390165 -0.000000 0.125000
v 0.609835 -0.000000 0.125000
v 0.875000 0.000000 0.609835
v 0.875000 -0.000000 0.390165
v 0.609835 0.000000 0.875000
v 0.390165 0.000000 0.875000
v 0.125000 -0.000000 0.390165
v 0.125000 0.000000 0.609835
vn -0.0000 -0.0000 -1.0000
vn 1.0000 -0.0000 -0.0000
vn -0.0000 -0.0000 1.0000
vn -1.0000 -0.0000 -0.0000
vn -0.0000 1.0000 -0.0000
vn -0.7071 -0.0000 -0.7071
vn 0.7071 -0.0000 -0.7071
vn 0.7071 -0.0000 0.7071
vn -0.7071 -0.0000 0.7071
vn -0.0000 -1.0000 -0.0000
vt 0.265165 0.625000
vt 0.265165 0.437875
vt 0.484835 0.437875
vt 0.484835 0.625000
vt 0.484835 0.750000
vt 0.750000 0.750000
vt 0.750000 1.000000
vt 0.265165 0.750000
vt 0.125000 0.125000
vt 0.875000 0.125000
vt 0.875000 0.875000
vt 0.125000 0.875000
vt 0.774264 0.437762
vt 1.000000 0.437762
vt 1.000000 0.625000
vt 0.774264 0.625000
vt 0.225736 0.312500
vt 0.000000 0.312500
vt 0.000000 0.125262
vt 0.225736 0.125262
vt 0.312500 0.125262
vt 0.687500 0.125262
vt 0.687500 0.312500
vt 0.312500 0.312500
vt 0.774264 0.437762
vt 0.225736 0.312500
vt 0.000000 1.000000
vt 0.000000 0.750000
vt 0.924264 0.562500
vt 0.774264 0.375000
vt 1.000000 0.375000
vt 1.000000 0.750000
vt 0.075736 0.562500
vt 0.225736 0.750000
vt 0.000000 0.375000
vt 0.774264 0.750000
vt 0.225736 0.375000
vt 0.924264 0.562500
vt 0.774264 0.375000
vt 0.075736 0.562500
vt 0.225736 0.750000
vt 0.225736 0.375000
vt 0.225736 0.750000
vt 0.774264 0.750000
vt 0.774264 0.375000
vt 0.750000 0.265165
vt 0.750000 0.484835
vt 0.640165 0.375000
vt 0.375000 0.109835
vt 0.265165 0.000000
vt 0.484835 0.000000
vt 0.000000 0.484835
vt 0.000000 0.265165
vt 0.109835 0.375000
vt 0.375000 0.640165
vt 0.484835 0.750000
vt 0.350000 0.375000
vt 0.350000 0.750000
vt 0.650000 0.750000
vt 0.650000 0.375000
s 0
g off
usemtl schematicannon_1
f 25/1/1 23/2/1 21/3/1 24/4/1
f 27/2/2 28/3/2 29/4/2 31/1/2
f 34/5/3 30/6/3 2/7/3 35/8/3
f 38/3/4 39/4/4 40/1/4 37/2/4
f 38/13/6 18/14/6 13/15/6 39/16/6
f 25/17/6 6/18/6 10/19/6 23/20/6
f 8/21/7 10/22/7 6/23/7 1/24/7
f 8/14/8 1/15/8 29/16/8 28/13/8
f 15/18/8 19/19/8 33/20/8 35/17/8
f 18/21/9 19/22/9 15/23/9 13/24/9
f 21/25/7 17/14/7 14/15/7 24/16/7
f 31/26/7 4/18/7 12/19/7 27/20/7
f 9/21/8 12/22/8 4/23/8 3/24/8
f 9/14/9 3/15/9 34/16/9 32/25/9
f 16/18/9 20/19/9 37/20/9 40/26/9
f 17/21/6 20/22/6 16/23/6 14/24/6
f 40/8/4 11/7/4 7/27/4 22/28/4
f 11/7/4 40/8/4 39/5/4 36/6/4
f 35/1/3 33/2/3 32/3/3 34/4/3
f 35/8/3 2/7/3 11/27/3 36/28/3
f 29/5/2 26/6/2 5/7/2 31/8/2
f 2/27/2 30/28/2 31/8/2 5/7/2
f 24/5/1 22/6/1 7/7/1 25/8/1
f 25/8/1 7/7/1 5/27/1 26/28/1
usemtl stonecutter_bottom
f 11/9/5 2/10/5 5/11/5 7/12/5
usemtl stone
f 26/29/5 29/30/5 1/31/5 6/32/5
f 36/33/5 39/34/5 13/28/5 15/35/5
f 8/32/10 28/36/10 23/30/10 10/31/10
f 18/35/10 38/37/10 33/34/10 19/28/10
f 30/38/5 34/39/5 3/31/5 4/32/5
f 22/40/5 24/41/5 14/28/5 16/35/5
f 17/35/10 21/42/10 37/43/10 20/28/10
f 4/32/5 31/44/5 30/38/5
f 6/32/5 25/36/5 26/29/5
f 22/40/5 16/35/5 40/42/5
f 15/35/5 35/37/5 36/33/5
f 32/44/10 27/45/10 12/31/10 9/32/10
g down
f 48/46/10 47/47/10 44/48/10
f 42/49/10 45/50/10 46/51/10
f 52/52/10 51/53/10 41/54/10
f 43/55/10 49/56/10 50/8/10
f 50/34/10 52/37/10 41/57/10 43/58/10
f 43/59/10 44/60/10 47/45/10 49/44/10
f 41/58/10 42/57/10 44/60/10 43/59/10
f 51/43/10 45/42/10 42/57/10 41/58/10
f 46/30/10 48/36/10 44/59/10 42/60/10
