# Blender 5.2.1 LTS
# www.blender.org
mtllib connector.mtl
o connector
v 0.937500 0.687500 1.000000
v 0.812500 1.250000 1.000000
v 0.812500 1.250000 0.187500
v 0.812500 1.250000 0.812500
v 0.937500 0.687500 -0.000000
v 0.812500 0.687500 1.000000
v 0.812500 0.687500 0.812500
v 0.812500 1.250000 -0.000000
v 0.937500 0.437500 1.000000
v 0.187500 1.250000 0.812500
v 0.812500 0.687500 0.187500
v 0.187500 1.250000 1.000000
v 0.937500 0.437500 -0.000000
v 0.187500 0.687500 0.812500
v 0.812500 0.687500 -0.000000
v 0.187500 0.687500 1.000000
v 0.062500 0.687500 -0.000000
v 0.187500 1.250000 -0.000000
v 0.062500 0.687500 1.000000
v 0.187500 1.250000 0.187500
v 0.062500 0.437500 -0.000000
v 0.187500 0.687500 -0.000000
v 0.062500 0.437500 1.000000
v 0.187500 0.687500 0.187500
vn -0.0000 -0.0000 -1.0000
vn 1.0000 -0.0000 -0.0000
vn -0.0000 -0.0000 1.0000
vn -1.0000 -0.0000 -0.0000
vn -0.0000 1.0000 -0.0000
vn -0.0000 -1.0000 -0.0000
vt 1.000000 0.937500
vt 0.750000 0.937500
vt 0.750000 0.812500
vt 0.750000 0.187500
vt 0.625000 0.000000
vt 0.625000 1.000000
vt 0.375000 1.000000
vt 0.375000 0.000000
vt 1.000000 0.062500
vt 0.750000 0.062500
vt 0.750000 0.000000
vt 0.750000 1.000000
vt 0.500000 1.000000
vt 0.500000 0.000000
vt 0.937500 0.000000
vt 0.937500 1.000000
vt 0.812500 0.187500
vt 0.812500 0.000000
vt 0.062500 0.000000
vt 0.062500 1.000000
vt 0.187500 0.250000
vt 0.812500 0.250000
vt 0.812500 0.812500
vt 0.187500 0.812500
vt 0.000000 0.812500
vt 0.000000 0.250000
vt 0.812500 0.312500
vt 0.812500 0.875000
vt 0.187500 0.875000
vt 0.187500 0.312500
vt 1.000000 0.250000
vt 1.000000 0.812500
vt 0.812500 1.000000
vt 0.187500 1.000000
vt 0.812500 0.812500
vt 0.187500 0.812500
vt 0.187500 0.187500
vt 0.812500 1.000000
vt 0.187500 0.000000
s 0
usemtl spruce_log_top
f 21/1/1 17/2/1 22/3/1 15/4/1
f 23/9/3 9/1/3 16/4/3 19/10/3
f 15/21/1 22/22/1 18/23/1 8/24/1
f 15/21/2 8/24/2 3/25/2 11/26/2
f 22/22/4 24/31/4 20/32/4 18/23/4
f 20/33/5 3/34/5 8/24/5 18/23/5
f 7/26/2 4/25/2 2/24/2 6/21/2
f 16/22/3 6/21/3 2/24/3 12/23/3
f 14/31/4 16/22/4 12/23/4 10/32/4
f 12/23/5 2/24/5 4/34/5 10/33/5
f 9/1/3 1/2/3 6/3/3 16/4/3
f 15/4/1 5/10/1 13/9/1 21/1/1
usemtl spruce_log
f 9/5/2 13/6/2 5/7/2 1/8/2
f 21/11/4 23/12/4 19/13/4 17/14/4
f 1/15/5 5/16/5 7/17/5 6/18/5
f 21/19/6 13/15/6 9/16/6 23/20/6
f 11/27/3 3/28/3 20/29/3 24/30/3
f 10/28/1 4/29/1 7/30/1 14/27/1
f 7/17/5 11/35/5 24/36/5 14/37/5
f 24/36/5 22/34/5 17/20/5 14/37/5
f 5/16/5 15/38/5 11/35/5 7/17/5
f 19/19/5 16/39/5 14/37/5 17/20/5
