# Blender 5.2.1 LTS
# www.blender.org
mtllib item.mtl
o item
v 0.500000 1.114277 1.093750
v 0.937500 0.687500 1.000000
v 1.074524 0.187500 0.190641
v 0.477903 1.357345 0.781250
v 0.875000 0.437500 0.875000
v 0.500000 1.114277 -0.093750
v -0.074524 1.865578 0.750000
v 0.812500 1.250000 1.000000
v 0.477903 1.357345 0.218750
v 0.809359 0.187500 1.074524
v 0.812500 1.250000 0.187500
v 0.676777 0.937500 1.093750
v 1.074524 0.187500 0.809359
v 0.433709 1.313150 0.718750
v 0.812500 1.250000 0.812500
v 0.676777 0.937500 -0.093750
v 0.433709 1.313150 0.281250
v 0.875000 0.437500 0.125000
v 0.323223 0.937500 -0.093750
v 0.937500 0.687500 -0.000000
v 0.323223 0.937500 1.093750
v 0.812500 0.687500 1.000000
v -0.074524 1.865578 0.250000
v 0.809359 0.187500 -0.074524
v 0.125000 0.437500 0.125000
v 0.919845 0.915403 0.781250
v 0.812500 0.687500 0.812500
v 0.500000 0.760723 -0.093750
v 0.013864 1.777189 0.750000
v 1.074524 0.000000 0.190641
v 0.500000 0.760723 1.093750
v 0.812500 1.250000 -0.000000
v 0.809359 0.000000 1.074524
v 0.919845 0.915403 0.218750
v 0.124349 1.003791 0.281250
v 0.937500 0.437500 1.000000
v 0.124349 1.003791 0.718750
v 0.187500 1.250000 0.812500
v 0.013864 1.777189 0.250000
v 0.809359 -0.000000 -0.074524
v 0.125000 0.437500 0.875000
v 0.080155 0.959597 0.218750
v 0.812500 0.687500 0.187500
v -0.428078 1.512024 0.250000
v 1.074524 0.000000 0.809359
v 0.080155 0.959597 0.781250
v 0.187500 1.250000 1.000000
v -0.428078 1.512024 0.750000
v 0.937500 0.437500 -0.000000
v -0.339689 1.423636 0.250000
v -0.074524 0.187500 0.809359
v 0.190641 0.187500 -0.074524
v -0.339689 1.423636 0.750000
v 0.187500 0.687500 0.812500
v -0.317592 1.445733 0.281250
v 0.812500 0.687500 -0.000000
v -0.008233 1.755092 0.718750
v 0.190641 0.187500 1.074524
v -0.008233 1.755092 0.281250
v -0.074524 0.187500 0.190641
v 0.187500 0.687500 1.000000
v -0.317592 1.445733 0.718750
v 0.190641 -0.000000 -0.074524
v 0.500000 0.760723 0.218750
v 0.323223 0.937500 0.218750
v 0.062500 0.687500 -0.000000
v -0.074524 0.000000 0.809359
v 0.676777 0.937500 0.218750
v 0.187500 1.250000 -0.000000
v 0.500000 1.114277 0.218750
v 0.676777 0.937500 0.781250
v 0.062500 0.687500 1.000000
v 0.190641 0.000000 1.074524
v 0.500000 1.114277 0.781250
v 0.187500 1.250000 0.187500
v 0.500000 0.760723 0.781250
v -0.074524 0.000000 0.190641
v 0.323223 0.937500 0.781250
v 0.390165 0.000000 0.125000
v 0.062500 0.437500 -0.000000
v 0.125000 0.187500 0.125000
v 0.187500 0.687500 -0.000000
v 0.609835 0.000000 0.125000
v 0.062500 0.437500 1.000000
v 0.390165 0.187500 0.125000
v 0.187500 0.687500 0.187500
v 0.609835 0.187500 0.125000
v 0.875000 0.187500 0.125000
v 0.875000 0.000000 0.609835
v 0.875000 0.000000 0.390165
v 0.875000 0.187500 0.390165
v 0.875000 0.187500 0.875000
v 0.875000 0.187500 0.609835
v 0.609835 0.000000 0.875000
v 0.390165 0.000000 0.875000
v 0.609835 0.187500 0.875000
v 0.390165 0.187500 0.875000
v 0.125000 0.187500 0.875000
v 0.125000 0.000000 0.390165
v 0.125000 0.000000 0.609835
v 0.125000 0.187500 0.609835
v 0.125000 0.187500 0.390165
v 0.234835 0.000000 0.500000
v 0.500000 0.000000 0.234835
v 0.500000 0.000000 0.765165
v 0.765165 0.000000 0.500000
v 0.323223 0.937500 -0.000000
v 0.500000 0.760723 -0.000000
v 0.500000 1.114277 -0.000000
v 0.676777 0.937500 -0.000000
v 0.500000 0.760723 1.000000
v 0.676777 0.937500 1.000000
v 0.323223 0.937500 1.000000
v 0.500000 1.114277 1.000000
v 0.500000 1.114277 0.187500
v 0.676777 0.937500 0.187500
v 0.323223 0.937500 0.187500
v 0.500000 0.760723 0.187500
v 0.500000 1.114277 0.812500
v 0.676777 0.937500 0.812500
v 0.323223 0.937500 0.812500
v 0.500000 0.760723 0.812500
v 0.352252 0.687500 0.218750
v 0.691942 0.687500 0.218750
v 0.691942 0.687500 0.781250
v 0.352252 0.687500 0.781250
vn -0.0000 -0.0000 -1.0000
vn 1.0000 -0.0000 -0.0000
vn -0.0000 -0.0000 1.0000
vn -1.0000 -0.0000 -0.0000
vn -0.7071 -0.0000 -0.7071
vn 0.7071 -0.0000 -0.7071
vn 0.7071 -0.0000 0.7071
vn -0.7071 -0.0000 0.7071
vn -0.0000 1.0000 -0.0000
vn -0.0000 -1.0000 -0.0000
vn 0.7071 0.7071 -0.0000
vn -0.7071 -0.7071 -0.0000
vn -0.7071 0.7071 -0.0000
vn 0.7071 -0.7071 -0.0000
vt 0.265165 0.625000
vt 0.265165 0.437875
vt 0.484835 0.437875
vt 0.484835 0.625000
vt 0.484835 0.750000
vt 0.750000 0.750000
vt 0.750000 1.000000
vt 0.265165 0.750000
vt 0.774264 0.437762
vt 1.000000 0.437762
vt 1.000000 0.625000
vt 0.774264 0.625000
vt 0.225736 0.312500
vt 0.000000 0.312500
vt 0.000000 0.125262
vt 0.225736 0.125262
vt 0.312500 0.125262
vt 0.687500 0.125262
vt 0.687500 0.312500
vt 0.312500 0.312500
vt 0.000000 1.000000
vt 0.000000 0.750000
vt 0.924264 0.562500
vt 0.774264 0.375000
vt 1.000000 0.375000
vt 1.000000 0.750000
vt 0.075736 0.562500
vt 0.225736 0.750000
vt 0.000000 0.375000
vt 0.774264 0.750000
vt 0.225736 0.375000
vt 0.750000 0.265165
vt 0.750000 0.484835
vt 0.640165 0.375000
vt 0.375000 0.109835
vt 0.265165 0.000000
vt 0.484835 0.000000
vt 0.000000 0.484835
vt 0.000000 0.265165
vt 0.109835 0.375000
vt 0.375000 0.640165
vt 0.350000 0.375000
vt 0.350000 0.750000
vt 0.650000 0.750000
vt 0.650000 0.375000
vt 1.000000 0.937500
vt 0.750000 0.937500
vt 0.750000 0.812500
vt 0.750000 0.187500
vt 1.000000 0.062500
vt 0.750000 0.062500
vt 0.812500 0.250000
vt 0.676777 0.500000
vt 0.500000 0.323223
vt 0.187500 0.250000
vt 0.187500 0.812500
vt 0.000000 0.812500
vt 0.000000 0.250000
vt 1.000000 0.250000
vt 1.000000 0.812500
vt 0.812500 0.812500
vt 0.812500 1.000000
vt 0.187500 1.000000
vt 0.323223 0.500000
vt 0.500000 0.676777
vt 0.625000 0.000000
vt 0.625000 1.000000
vt 0.375000 1.000000
vt 0.375000 0.000000
vt 0.750000 0.000000
vt 0.500000 1.000000
vt 0.500000 0.000000
vt 0.937500 0.000000
vt 0.937500 1.000000
vt 0.812500 0.187500
vt 0.812500 0.000000
vt 0.875000 0.875000
vt 0.875000 0.125000
vt 0.062500 1.000000
vt 0.062500 0.000000
vt 0.125000 0.125000
vt 0.125000 0.875000
vt 0.187500 0.312500
vt 0.812500 0.312500
vt 0.500000 0.385723
vt 0.323223 0.562500
vt 0.187500 0.875000
vt 0.323223 0.562500
vt 0.500000 0.739277
vt 0.812500 0.875000
vt 0.676777 0.562500
vt 0.500000 0.385723
vt 0.352252 0.781250
vt 0.691942 0.781250
vt 0.691942 0.218750
vt 0.250000 0.625000
vt 0.250000 0.000000
vt 0.406250 0.187500
vt 0.406250 0.437500
vt 0.812500 0.625000
vt 0.656250 0.187500
vt 0.812500 0.240197
vt 0.812500 0.625000
vt 0.656250 0.437500
vt 0.250000 0.240197
vt 0.812500 0.240197
vt 0.312500 0.062500
vt 0.312500 0.500000
vt 0.250000 0.562500
vt 0.812500 0.562500
vt 0.490197 0.562500
vt 0.490197 0.000000
vt 0.375000 0.875000
vt 0.875000 0.875000
vt 0.875000 1.000000
vt 0.687500 0.875000
vt 0.687500 1.000000
vt 0.312500 0.875000
vt 0.312500 1.000000
vt 0.125000 0.875000
vt 0.625000 0.875000
vt 0.125000 1.000000
vt 0.718750 0.281250
vt 0.750000 0.250000
vt 0.718750 0.718750
vt 0.281250 0.718750
vt 0.250000 0.750000
vt 0.250000 0.250000
vt 0.281250 0.281250
vt 0.500000 0.250000
vt 0.937500 0.250000
vt 0.937500 0.875000
vt 0.500000 0.875000
vt 0.062500 0.250000
vt 0.062500 0.875000
vt 0.625000 0.250000
vt 0.875000 0.250000
vt 0.875000 0.500000
vt 0.625000 0.500000
vt 1.000000 1.000000
vt 0.921053 1.000000
vt 0.921053 0.750000
vt 0.763158 1.000000
vt 0.736842 1.000000
vt 0.736842 0.750000
vt 0.763158 0.750000
vt 0.078947 0.750000
vt 0.078947 1.000000
vt 0.263158 0.750000
vt 0.263158 1.000000
vt 0.236842 1.000000
vt 0.236842 0.750000
vt 1.000000 0.500000
vt 0.921053 0.500000
vt 0.921053 0.250000
vt 0.736842 0.500000
vt 0.736842 0.250000
vt 0.763158 0.250000
vt 0.763158 0.500000
vt 0.236842 0.250000
vt 0.263158 0.250000
vt 0.263158 0.500000
vt 0.236842 0.500000
vt 0.000000 0.500000
vt 0.000000 0.250000
vt 0.078947 0.250000
vt 0.078947 0.500000
vt 0.187500 0.736842
vt 0.437500 0.736842
vt 0.437500 0.763158
vt 0.187500 0.763158
vt 0.437500 1.000000
vt 0.187500 0.921053
vt 0.437500 0.921053
vt 0.437500 0.263158
vt 0.187500 0.263158
vt 0.187500 0.236842
vt 0.437500 0.236842
vt 0.187500 0.000000
vt 0.437500 0.000000
vt 0.437500 0.078947
vt 0.187500 0.078947
vt 1.000000 0.921053
vt 0.750000 0.921053
vt 0.750000 0.763158
vt 0.750000 0.736842
vt 1.000000 0.736842
vt 1.000000 0.763158
vt 0.750000 0.078947
vt 1.000000 0.000000
vt 1.000000 0.078947
vt 1.000000 0.236842
vt 1.000000 0.263158
vt 0.750000 0.263158
vt 0.750000 0.236842
vt 0.750000 0.500000
vt 0.250000 0.625000
vt 0.676777 0.500000
vt 0.323223 0.500000
vt 0.500000 0.676777
vt 0.676777 0.562500
vt 0.500000 0.739277
vt 0.490197 0.000000
vt 0.572303 0.000000
vt 0.187500 0.187500
vt 0.352252 0.218750
s 0
usemtl schematicannon_1
f 87/1/1 83/2/1 79/3/1 85/4/1
f 89/2/2 90/3/2 91/4/2 93/1/2
f 96/5/3 92/6/3 5/7/3 97/8/3
f 100/3/4 101/4/4 102/1/4 99/2/4
f 100/9/5 67/10/5 51/11/5 101/12/5
f 87/13/5 24/14/5 40/15/5 83/16/5
f 30/17/6 40/18/6 24/19/6 3/20/6
f 30/10/7 3/11/7 91/12/7 90/9/7
f 58/14/7 73/15/7 95/16/7 97/13/7
f 67/17/8 73/18/8 58/19/8 51/20/8
f 79/9/6 63/10/6 52/11/6 85/12/6
f 93/13/6 13/14/6 45/15/6 89/16/6
f 33/17/7 45/18/7 13/19/7 10/20/7
f 33/10/8 10/11/8 96/12/8 94/9/8
f 60/14/8 77/15/8 99/16/8 102/13/8
f 63/17/5 77/18/5 60/19/5 52/20/5
f 102/8/4 41/7/4 25/21/4 81/22/4
f 41/7/4 102/8/4 101/5/4 98/6/4
f 97/1/3 95/2/3 94/3/3 96/4/3
f 41/21/3 98/22/3 97/8/3 5/7/3
f 91/5/2 88/6/2 18/7/2 93/8/2
f 5/21/2 92/22/2 93/8/2 18/7/2
f 85/5/1 81/6/1 25/7/1 87/8/1
f 87/8/1 25/7/1 18/21/1 88/22/1
usemtl stone
f 88/23/9 91/24/9 3/25/9 24/26/9
f 98/27/9 101/28/9 51/22/9 58/29/9
f 30/26/10 90/30/10 83/24/10 40/25/10
f 67/29/10 100/31/10 95/28/10 73/22/10
f 92/23/9 96/24/9 10/25/9 13/26/9
f 81/27/9 85/28/9 52/22/9 60/29/9
f 63/29/10 79/31/10 99/28/10 77/22/10
f 13/26/9 93/30/9 92/23/9
f 24/26/9 87/30/9 88/23/9
f 81/27/9 60/29/9 102/31/9
f 58/29/9 97/31/9 98/27/9
f 94/30/10 89/24/10 45/25/10 33/26/10
f 90/32/10 89/33/10 106/34/10
f 104/35/10 79/36/10 83/37/10
f 100/38/10 99/39/10 103/40/10
f 105/41/10 94/5/10 95/8/10
f 95/28/10 100/31/10 103/42/10 105/43/10
f 105/44/10 106/45/10 89/24/10 94/30/10
f 103/43/10 104/42/10 106/45/10 105/44/10
f 99/28/10 79/31/10 104/42/10 103/43/10
f 83/24/10 90/30/10 106/44/10 104/45/10
usemtl spruce_log_top
f 80/46/1 66/47/1 82/48/1 56/49/1
f 84/50/3 36/46/3 61/49/3 72/51/3
f 82/52/1 107/53/1 108/54/1 56/55/1
f 56/55/2 32/56/2 11/57/2 43/58/2
f 82/52/4 86/59/4 75/60/4 69/61/4
f 75/62/9 11/63/9 32/56/9 69/61/9
f 27/58/2 15/57/2 8/56/2 22/55/2
f 112/64/3 22/55/3 8/56/3 114/65/3
f 54/59/4 61/52/4 47/61/4 38/60/4
f 47/61/9 8/56/9 15/63/9 38/62/9
f 36/46/3 2/47/3 22/48/3 61/49/3
f 56/49/1 20/51/1 49/50/1 80/46/1
f 61/52/3 111/54/3 113/198/3 47/61/3
f 114/65/3 8/56/3 47/61/3 113/198/3
f 56/55/1 108/54/1 110/199/1 32/56/1
f 111/54/3 61/52/3 22/55/3 112/64/3
f 109/200/1 69/61/1 32/56/1 110/199/1
f 107/53/1 82/52/1 69/61/1 109/200/1
usemtl spruce_log
f 36/66/2 49/67/2 20/68/2 2/69/2
f 80/70/4 84/7/4 72/71/4 66/72/4
f 2/73/9 20/74/9 27/75/9 22/76/9
f 36/74/10 5/77/10 18/78/10 49/73/10
f 84/79/10 80/80/10 25/81/10 41/82/10
f 86/83/3 43/84/3 118/85/3 117/86/3
f 15/87/1 120/88/1 119/89/1 38/90/1
f 54/84/1 121/91/1 122/92/1 27/83/1
f 43/61/9 86/56/9 123/93/9 124/94/9
f 125/95/9 27/75/9 43/61/9 124/94/9
f 20/74/9 56/62/9 43/61/9 27/75/9
f 86/56/9 82/63/9 66/79/9 72/80/9
f 120/88/1 15/87/1 27/83/1 122/92/1
f 49/73/10 18/78/10 25/81/10 80/80/10
f 5/77/10 36/74/10 84/79/10 41/82/10
f 43/84/3 11/90/3 116/201/3 118/85/3
f 121/91/1 54/84/1 38/90/1 119/89/1
f 75/87/3 86/83/3 117/86/3 115/202/3
f 11/90/3 75/87/3 115/202/3 116/201/3
f 72/80/9 61/179/9 54/205/9 86/56/9
f 123/93/9 86/56/9 54/205/9 126/206/9
f 54/205/9 27/75/9 125/95/9 126/206/9
usemtl anvil
f 9/96/1 34/97/1 68/98/1 70/99/1
f 26/97/11 34/76/11 9/100/11 4/96/11
f 64/101/1 123/102/1 42/103/1 65/104/1
f 46/100/12 42/96/12 123/105/12 126/106/12
f 37/107/13 46/97/13 4/76/13 14/51/13
f 46/97/13 37/107/13 35/108/13 42/109/13
f 34/76/14 26/110/14 125/111/14 124/112/14
f 39/113/1 50/114/1 44/115/1 23/68/1
f 29/87/11 39/116/11 23/117/11 7/63/11
f 53/118/3 29/90/3 7/62/3 48/119/3
f 50/120/12 53/121/12 48/67/12 44/122/12
f 59/123/14 39/124/14 29/6/14 57/125/14
f 62/126/14 53/127/14 50/128/14 55/129/14
f 17/130/1 35/131/1 55/132/1 59/133/1
f 14/134/11 17/130/11 59/133/11 57/135/11
f 62/133/3 37/130/3 14/131/3 57/132/3
f 35/134/12 37/130/12 62/133/12 55/135/12
f 16/136/1 28/137/1 19/138/1 6/139/1
f 16/26/11 6/140/11 109/141/11 110/142/11
f 115/143/11 70/144/11 68/145/11 116/146/11
f 1/21/11 12/22/11 112/147/11 114/148/11
f 71/149/11 74/150/11 119/151/11 120/152/11
f 31/136/3 12/137/3 1/138/3 21/139/3
f 31/59/12 21/153/12 113/154/12 111/155/12
f 78/156/12 76/157/12 122/158/12 121/159/12
f 118/160/12 64/161/12 65/162/12 117/163/12
f 19/164/12 28/165/12 108/166/12 107/167/12
f 65/168/13 70/169/13 115/170/13 117/171/13
f 6/172/13 19/63/13 107/173/13 109/174/13
f 74/175/13 78/176/13 121/177/13 119/178/13
f 21/179/13 1/180/13 114/181/13 113/182/13
f 112/183/14 12/140/14 31/7/14 111/184/14
f 122/185/14 76/186/14 71/187/14 120/188/14
f 108/189/14 28/70/14 16/190/14 110/191/14
f 116/192/14 68/193/14 64/194/14 118/195/14
f 57/125/14 29/6/14 53/127/14 62/126/14
f 55/129/14 50/128/14 39/124/14 59/123/14
f 14/51/13 4/76/13 9/110/13 17/196/13
f 17/196/13 9/110/13 42/109/13 35/108/13
f 74/104/3 4/100/3 46/197/3 78/99/3
f 71/101/3 26/76/3 4/100/3 74/104/3
f 65/104/1 42/103/1 9/96/1 70/99/1
f 125/203/3 26/76/3 71/101/3 76/98/3
f 76/98/3 78/99/3 46/197/3 126/105/3
f 126/105/3 125/203/3 76/98/3
f 123/102/1 64/101/1 124/204/1
f 124/204/1 64/101/1 68/98/1 34/97/1
usemtl schematicannon_2
f 48/128/13 7/124/13 23/6/13 44/127/13
