# Blender 5.2.1 LTS
# www.blender.org
mtllib pipe.mtl
o pipe
v 0.625000 1.062500 1.093750
v 0.781250 1.250000 0.781250
v 0.625000 1.062500 -0.093750
v 0.750000 2.000000 0.750000
v 0.781250 1.250000 0.218750
v 0.625000 0.812500 1.093750
v 0.718750 1.250000 0.718750
v 0.625000 0.812500 -0.093750
v 0.718750 1.250000 0.281250
v 0.375000 1.062500 -0.093750
v 0.375000 1.062500 1.093750
v 0.750000 2.000000 0.250000
v 0.781250 0.625000 0.781250
v 0.375000 0.812500 -0.093750
v 0.750000 1.875000 0.750000
v 0.375000 0.812500 1.093750
v 0.781250 0.625000 0.218750
v 0.281250 1.250000 0.281250
v 0.281250 1.250000 0.718750
v 0.750000 1.875000 0.250000
v 0.218750 1.250000 0.218750
v 0.250000 2.000000 0.250000
v 0.218750 1.250000 0.781250
v 0.250000 2.000000 0.750000
v 0.218750 0.625000 0.218750
v 0.250000 1.875000 0.250000
v 0.218750 0.625000 0.781250
v 0.250000 1.875000 0.750000
v 0.281250 1.875000 0.281250
v 0.718750 1.875000 0.718750
v 0.718750 1.875000 0.281250
v 0.281250 1.875000 0.718750
v 0.375000 0.812500 0.218750
v 0.375000 1.062500 0.218750
v 0.625000 0.812500 0.218750
v 0.625000 1.062500 0.218750
v 0.625000 0.812500 0.781250
v 0.625000 1.062500 0.781250
v 0.375000 0.812500 0.781250
v 0.375000 1.062500 0.781250
vn -0.0000 -0.0000 -1.0000
vn 1.0000 -0.0000 -0.0000
vn -0.0000 -0.0000 1.0000
vn -1.0000 -0.0000 -0.0000
vn -0.0000 1.0000 -0.0000
vn -0.0000 -1.0000 -0.0000
vt 0.250000 0.625000
vt 0.250000 0.000000
vt 0.406250 0.187500
vt 0.406250 0.437500
vt 0.812500 0.000000
vt 0.656250 0.187500
vt 0.812500 0.625000
vt 0.312500 0.062500
vt 0.750000 0.062500
vt 0.312500 0.500000
vt 0.250000 0.562500
vt 0.812500 0.562500
vt 0.375000 0.875000
vt 0.875000 0.875000
vt 0.875000 1.000000
vt 0.375000 1.000000
vt 0.187500 0.875000
vt 0.687500 0.875000
vt 0.687500 1.000000
vt 0.187500 1.000000
vt 0.312500 0.875000
vt 0.812500 0.875000
vt 0.812500 1.000000
vt 0.312500 1.000000
vt 0.125000 0.875000
vt 0.625000 0.875000
vt 0.625000 1.000000
vt 0.125000 1.000000
vt 0.250000 0.250000
vt 0.750000 0.250000
vt 0.750000 0.750000
vt 0.250000 0.750000
vt 0.718750 0.281250
vt 0.718750 0.718750
vt 0.281250 0.718750
vt 0.281250 0.281250
vt 0.500000 0.250000
vt 0.937500 0.250000
vt 0.937500 0.875000
vt 0.500000 0.875000
vt 0.062500 0.250000
vt 0.062500 0.875000
vt 0.625000 0.250000
vt 0.875000 0.250000
vt 0.875000 0.500000
vt 0.625000 0.500000
vt 0.736842 0.750000
vt 1.000000 0.750000
vt 1.000000 1.000000
vt 0.736842 1.000000
vt 0.263158 1.000000
vt 0.000000 1.000000
vt 0.000000 0.750000
vt 0.263158 0.750000
vt 0.736842 0.250000
vt 1.000000 0.250000
vt 1.000000 0.500000
vt 0.736842 0.500000
vt 0.000000 0.500000
vt 0.000000 0.250000
vt 0.263158 0.250000
vt 0.263158 0.500000
vt 0.437500 1.000000
vt 0.187500 0.736842
vt 0.437500 0.736842
vt 0.187500 0.000000
vt 0.437500 0.000000
vt 0.437500 0.263158
vt 0.187500 0.263158
vt 1.000000 0.736842
vt 0.750000 1.000000
vt 0.750000 0.736842
vt 0.750000 0.263158
vt 0.750000 0.000000
vt 1.000000 0.000000
vt 1.000000 0.263158
vt 0.750000 0.500000
vt 0.656250 0.437500
s 0
usemtl anvil
f 5/1/1 17/2/1 35/3/1 36/4/1
f 17/2/1 25/5/1 33/6/1 35/3/1
f 13/2/2 17/5/2 5/7/2 2/1/2
f 39/3/3 27/2/3 13/5/3 37/6/3
f 23/1/3 27/2/3 39/3/3 40/4/3
f 25/2/4 27/5/4 23/7/4 21/1/4
f 19/8/5 23/2/5 2/5/5 7/9/5
f 23/2/5 19/8/5 18/10/5 21/11/5
f 25/2/6 17/5/6 13/12/6 27/11/6
f 20/13/1 26/14/1 22/15/1 12/16/1
f 15/17/2 20/18/2 12/19/2 4/20/2
f 28/21/3 15/22/3 4/23/3 24/24/3
f 26/25/4 28/26/4 24/27/4 22/28/4
f 31/33/6 20/30/6 15/31/6 30/34/6
f 32/35/6 28/32/6 26/29/6 29/36/6
f 9/37/1 18/38/1 29/39/1 31/40/1
f 7/41/2 9/37/2 31/40/2 30/42/2
f 32/40/3 19/37/3 7/38/3 30/39/3
f 18/41/4 19/37/4 32/40/4 29/42/4
f 8/43/1 14/44/1 10/45/1 3/46/1
f 35/47/2 8/48/2 3/49/2 36/50/2
f 38/51/2 1/52/2 6/53/2 37/54/2
f 16/43/3 6/44/3 1/45/3 11/46/3
f 39/55/4 16/56/4 11/57/4 40/58/4
f 10/59/4 14/60/4 33/61/4 34/62/4
f 3/63/5 10/20/5 34/64/5 36/65/5
f 11/66/5 1/67/5 38/68/5 40/69/5
f 37/70/6 6/49/6 16/71/6 39/72/6
f 33/73/6 14/74/6 8/75/6 35/76/6
f 30/34/6 15/31/6 28/32/6 32/35/6
f 29/36/6 26/29/6 20/30/6 31/33/6
f 7/9/5 2/5/5 5/12/5 9/77/5
f 9/77/5 5/12/5 21/11/5 18/10/5
f 38/78/3 2/7/3 23/1/3 40/4/3
f 37/6/3 13/5/3 2/7/3 38/78/3
f 34/78/1 21/7/1 5/1/1 36/4/1
f 33/6/1 25/5/1 21/7/1 34/78/1
usemtl schematicannon_2
f 24/29/5 4/30/5 12/31/5 22/32/5
