# Blender 5.1.2
# www.blender.org
mtllib block.mtl
o block_cogs
v 0.437500 0.562500 0.718750
v 0.437500 0.437500 0.843750
v 0.437500 0.494638 0.820082
v 0.437500 0.317862 0.820082
v 0.437500 0.562500 0.656250
v 0.437500 0.437500 0.531250
v 0.437500 0.538833 0.775888
v 0.437500 0.538833 0.599112
v 0.437500 0.375000 0.843750
v 0.437500 0.250000 0.718750
v 0.437500 0.273667 0.599112
v 0.437500 0.273668 0.775888
v 0.437500 0.494638 0.554917
v 0.437500 0.250000 0.656250
v 0.437500 0.375000 0.531250
v 0.437500 0.317862 0.554917
v 0.312500 0.562500 0.656250
v 0.312500 0.538833 0.775888
v 0.312500 0.437500 0.531250
v 0.312500 0.538833 0.599112
v 0.312500 0.437500 0.843750
v 0.312500 0.562500 0.718750
v 0.312500 0.317862 0.820082
v 0.312500 0.494638 0.820082
v 0.312500 0.494638 0.554917
v 0.312500 0.250000 0.656250
v 0.312500 0.375000 0.531250
v 0.312500 0.317862 0.554917
v 0.312500 0.375000 0.843750
v 0.312500 0.273667 0.599112
v 0.312500 0.250000 0.718750
v 0.312500 0.273668 0.775888
v 0.312500 0.330806 0.656250
v 0.312500 0.481694 0.656250
v 0.437500 0.330806 0.656250
v 0.437500 0.481694 0.656250
v 0.437500 0.330806 0.718750
v 0.437500 0.481694 0.718750
v 0.312500 0.330806 0.718750
v 0.312500 0.481694 0.718750
v 0.312500 0.375000 0.612056
v 0.437500 0.375000 0.612056
v 0.437500 0.437500 0.762944
v 0.312500 0.437500 0.762944
v 0.437500 0.437500 0.612056
v 0.312500 0.437500 0.612056
v 0.437500 0.375000 0.762944
v 0.312500 0.375000 0.762944
v 0.687500 0.562500 0.718750
v 0.687500 0.437500 0.843750
v 0.687500 0.494638 0.820082
v 0.687500 0.317862 0.820082
v 0.687500 0.562500 0.656250
v 0.687500 0.437500 0.531250
v 0.687500 0.538833 0.775888
v 0.687500 0.538833 0.599112
v 0.687500 0.375000 0.843750
v 0.687500 0.250000 0.718750
v 0.687500 0.273667 0.599112
v 0.687500 0.273668 0.775888
v 0.687500 0.494638 0.554917
v 0.687500 0.250000 0.656250
v 0.687500 0.375000 0.531250
v 0.687500 0.317862 0.554917
v 0.562500 0.562500 0.656250
v 0.562500 0.538833 0.775888
v 0.562500 0.437500 0.531250
v 0.562500 0.538833 0.599112
v 0.562500 0.437500 0.843750
v 0.562500 0.562500 0.718750
v 0.562500 0.317862 0.820082
v 0.562500 0.494638 0.820082
v 0.562500 0.494638 0.554917
v 0.562500 0.250000 0.656250
v 0.562500 0.375000 0.531250
v 0.562500 0.317862 0.554917
v 0.562500 0.375000 0.843750
v 0.562500 0.273667 0.599112
v 0.562500 0.250000 0.718750
v 0.562500 0.273668 0.775888
v 0.562500 0.330806 0.656250
v 0.562500 0.481694 0.656250
v 0.687500 0.330806 0.656250
v 0.687500 0.481694 0.656250
v 0.687500 0.330806 0.718750
v 0.687500 0.481694 0.718750
v 0.562500 0.330806 0.718750
v 0.562500 0.481694 0.718750
v 0.562500 0.375000 0.612056
v 0.687500 0.375000 0.612056
v 0.687500 0.437500 0.762944
v 0.562500 0.437500 0.762944
v 0.687500 0.437500 0.612056
v 0.562500 0.437500 0.612056
v 0.687500 0.375000 0.762944
v 0.562500 0.375000 0.762944
vn -0.0000 -0.0000 -1.0000
vn 1.0000 -0.0000 -0.0000
vn -0.0000 -0.0000 1.0000
vn -1.0000 -0.0000 -0.0000
vn -0.0000 1.0000 -0.0000
vn -0.0000 -1.0000 -0.0000
vn -0.0000 0.7071 -0.7071
vn -0.0000 -0.7071 0.7071
vn -0.0000 0.7071 0.7071
vn -0.0000 -0.7071 -0.7071
vt 0.906250 0.115847
vt 0.906250 0.156250
vt 0.968750 0.156250
vt 0.968750 0.115847
vt 0.968750 0.000000
vt 0.906250 0.000000
vt 0.906250 0.040403
vt 0.968750 0.040403
vt 1.000000 0.000000
vt 1.000000 0.040403
vt 0.906250 0.115847
vt 0.906250 0.040403
vt 0.937500 0.156250
vt 0.937500 0.115847
vt 0.937500 0.000000
vt 0.937500 0.040403
vt 0.906250 0.115847
vt 0.937500 0.115847
vt 0.906250 0.218750
vt 0.968750 0.218750
vt 0.968750 0.250000
vt 0.906250 0.250000
vt 0.968750 0.115847
vt 0.937500 0.040403
vt 0.968750 0.115847
vt 1.000000 0.040403
vt 1.000000 0.156250
vt 1.000000 0.115847
vt 0.968750 0.040403
vt 0.906250 0.040403
vt 0.968750 0.062500
vt 0.968750 0.093750
vt 0.937500 0.093750
vt 0.937500 0.062500
vt 1.000000 0.115847
vt 1.000000 0.115847
vt 1.000000 0.040403
vt 0.968750 0.115847
vt 0.968750 0.040403
vt 0.937500 0.040403
vt 0.937500 0.115847
s 0
usemtl backtank
f 34/1/1 17/2/1 5/3/1 36/4/1
f 14/5/1 26/6/1 33/7/1 35/8/1
f 37/8/2 10/5/2 14/9/2 35/10/2
f 38/4/3 1/3/3 22/2/3 40/11/3
f 39/12/3 31/6/3 10/5/3 37/8/3
f 22/13/4 17/2/4 34/1/4 40/14/4
f 26/6/4 31/15/4 39/16/4 33/7/4
f 48/17/4 39/18/4 32/13/4 23/2/4
f 22/19/5 1/20/5 5/21/5 17/22/5
f 26/19/6 14/20/6 10/21/6 31/22/6
f 40/11/7 18/2/7 7/3/7 38/4/7
f 16/5/7 28/6/7 41/7/7 42/8/7
f 43/23/8 3/3/8 24/2/8 44/17/8
f 33/7/8 30/6/8 11/5/8 35/8/8
f 24/19/9 3/20/9 7/21/9 18/22/9
f 28/19/10 16/20/10 11/21/10 30/22/10
f 15/21/1 27/22/1 19/19/1 6/20/1
f 29/19/3 9/20/3 2/21/3 21/22/3
f 29/13/4 21/2/4 44/17/4 48/18/4
f 19/6/4 27/15/4 41/24/4 46/12/4
f 6/5/5 19/6/5 46/12/5 45/8/5
f 44/17/5 21/2/5 2/3/5 43/23/5
f 47/25/6 9/3/6 29/2/6 48/17/6
f 41/7/6 27/6/6 15/5/6 42/8/6
f 13/21/7 25/22/7 20/19/7 8/20/7
f 13/5/2 8/9/2 36/26/2 45/8/2
f 4/27/2 12/3/2 37/23/2 47/28/2
f 32/19/8 12/20/8 4/21/8 23/22/8
f 36/29/9 8/5/9 20/6/9 34/30/9
f 48/17/9 23/2/9 4/3/9 47/25/9
f 37/23/10 12/3/10 32/2/10 39/17/10
f 46/12/10 25/6/10 13/5/10 45/8/10
f 33/24/4 41/7/4 28/6/4 30/15/4
f 46/24/4 34/30/4 20/6/4 25/15/4
f 48/31/4 44/32/4 40/33/4 39/34/4
f 40/11/4 44/18/4 24/13/4 18/2/4
f 39/31/4 40/32/4 34/33/4 33/34/4
f 34/32/4 46/33/4 41/34/4 33/31/4
f 36/33/2 35/34/2 42/31/2 45/32/2
f 47/25/2 43/35/2 2/27/2 9/3/2
f 38/28/2 7/27/2 3/3/2 43/23/2
f 37/31/2 38/32/2 43/33/2 47/34/2
f 35/8/2 11/5/2 16/9/2 42/26/2
f 38/4/2 36/36/2 5/27/2 1/3/2
f 35/31/2 36/32/2 38/33/2 37/34/2
f 45/37/2 42/8/2 15/5/2 6/9/2
f 82/38/1 65/3/1 53/2/1 84/11/1
f 62/6/1 74/5/1 81/39/1 83/12/1
f 85/12/2 58/6/2 62/15/2 83/16/2
f 96/23/4 87/35/4 80/27/4 71/3/4
f 94/37/4 82/29/4 68/5/4 73/9/4
f 88/4/4 92/35/4 72/27/4 66/3/4
f 86/11/3 49/2/3 70/3/3 88/4/3
f 87/8/3 79/5/3 58/6/3 85/12/3
f 70/27/4 65/3/4 82/38/4 88/36/4
f 74/5/4 79/9/4 87/10/4 81/39/4
f 87/31/4 88/32/4 82/33/4 81/34/4
f 70/21/5 49/22/5 53/19/5 65/20/5
f 74/21/6 62/22/6 58/19/6 79/20/6
f 88/4/7 66/3/7 55/2/7 86/11/7
f 64/6/7 76/5/7 89/39/7 90/12/7
f 96/31/4 92/32/4 88/33/4 87/34/4
f 81/31/4 82/32/4 94/33/4 89/34/4
f 91/17/8 51/2/8 72/3/8 92/25/8
f 81/39/8 78/5/8 59/6/8 83/12/8
f 72/21/9 51/22/9 55/19/9 66/20/9
f 76/21/10 64/22/10 59/19/10 78/20/10
f 63/19/1 75/20/1 67/21/1 54/22/1
f 77/21/3 57/22/3 50/19/3 69/20/3
f 77/27/4 69/3/4 92/25/4 96/35/4
f 67/5/4 75/9/4 89/37/4 94/8/4
f 54/6/5 67/5/5 94/8/5 93/12/5
f 92/25/5 69/3/5 50/2/5 91/17/5
f 95/17/6 57/2/6 77/3/6 96/23/6
f 89/39/6 75/5/6 63/6/6 90/12/6
f 61/19/7 73/20/7 68/21/7 56/22/7
f 61/6/2 56/15/2 84/40/2 93/12/2
f 52/13/2 60/2/2 85/17/2 95/41/2
f 80/21/8 60/22/8 52/19/8 71/20/8
f 83/31/2 84/32/2 86/33/2 85/34/2
f 84/30/9 56/6/9 68/5/9 82/29/9
f 96/23/9 71/3/9 52/2/9 95/17/9
f 85/17/10 60/2/10 80/3/10 87/23/10
f 94/8/10 73/5/10 61/6/10 93/12/10
f 84/33/2 83/34/2 90/31/2 93/32/2
f 85/31/2 86/32/2 91/33/2 95/34/2
f 83/12/2 59/6/2 64/15/2 90/40/2
f 81/37/4 89/39/4 76/5/4 78/9/4
f 86/41/2 55/13/2 51/2/2 91/17/2
f 95/17/2 91/18/2 50/13/2 57/2/2
f 86/11/2 84/14/2 53/13/2 49/2/2
f 93/24/2 90/12/2 63/6/2 54/15/2
