# Blender 5.1.2
# www.blender.org
mtllib block.mtl
o block_shaft_input
v 0.593750 0.812500 0.593750
v 0.625000 1.000000 0.625000
v 0.593750 0.812500 0.406250
v 0.625000 1.000000 0.375000
v 0.593750 0.750000 0.593750
v 0.625000 0.812500 0.625000
v 0.593750 0.750000 0.406250
v 0.625000 0.812500 0.375000
v 0.406250 0.812500 0.406250
v 0.375000 1.000000 0.375000
v 0.406250 0.812500 0.593750
v 0.375000 1.000000 0.625000
v 0.406250 0.750000 0.406250
v 0.375000 0.812500 0.375000
v 0.406250 0.750000 0.593750
v 0.375000 0.812500 0.625000
vn -0.0000 -0.0000 -1.0000
vn 1.0000 -0.0000 -0.0000
vn -0.0000 -0.0000 1.0000
vn -1.0000 -0.0000 -0.0000
vn -0.0000 1.0000 -0.0000
vn -0.0000 -1.0000 -0.0000
vt 0.906250 0.593750
vt 1.000000 0.593750
vt 1.000000 0.625000
vt 0.906250 0.625000
vt 1.000000 0.656250
vt 0.906250 0.656250
vt 1.000000 0.687500
vt 0.906250 0.687500
vt 0.875000 0.656250
vt 1.000000 0.750000
vt 0.875000 0.750000
vt 1.000000 0.875000
vt 0.875000 0.875000
vt 0.968750 0.562500
vt 0.968750 0.531250
vt 1.000000 0.531250
vt 1.000000 0.562500
s 0
usemtl backtank
f 7/1/1 13/2/1 9/3/1 3/4/1
f 5/4/2 7/3/2 3/5/2 1/6/2
f 15/4/3 5/3/3 1/5/3 11/6/3
f 13/6/4 15/5/4 11/7/4 9/8/4
f 8/9/1 14/5/1 10/10/1 4/11/1
f 6/9/2 8/5/2 4/10/2 2/11/2
f 16/9/3 6/5/3 2/10/3 12/11/3
f 14/9/4 16/5/4 12/10/4 10/11/4
f 12/11/5 2/10/5 4/12/5 10/13/5
f 1/14/6 3/15/6 8/16/6 6/17/6
f 3/17/6 9/14/6 14/15/6 8/16/6
f 14/15/6 9/16/6 11/17/6 16/14/6
f 16/14/6 11/15/6 1/16/6 6/17/6
