# Blender 5.1.2
# www.blender.org
mtllib block.mtl
o block
v 0.312500 0.625000 0.312500
v 0.687500 0.625000 0.687500
v 0.312500 0.625000 0.687500
v 0.312500 -0.000000 0.312500
v 0.312500 0.000000 0.687500
v 0.687500 -0.000000 0.312500
v 0.687500 0.687500 0.312500
v 0.687500 0.750000 0.687500
v 0.687500 0.750000 0.312500
v 0.687500 0.687500 0.187500
v 0.687500 0.125000 0.312500
v 0.687500 0.625000 0.312500
v 0.687500 0.125000 0.187500
v 0.312500 0.750000 0.312500
v 0.312500 0.687500 0.187500
v 0.312500 0.687500 0.312500
v 0.312500 0.750000 0.687500
v 0.312500 0.125000 0.187500
v 0.312500 0.125000 0.312500
v 0.750000 0.625000 0.750000
v 0.750000 0.625000 0.250000
v 0.687500 0.250000 0.312500
v 0.750000 0.250000 0.750000
v 0.687500 0.000000 0.687500
v 0.750000 0.250000 0.250000
v 0.687500 -0.000000 0.312500
v 0.250000 0.625000 0.250000
v 0.312500 0.250000 0.312500
v 0.250000 0.625000 0.750000
v 0.250000 0.250000 0.250000
v 0.312500 -0.000000 0.312500
v 0.250000 0.250000 0.750000
v 0.312500 0.000000 0.687500
v 0.687500 0.250000 0.750000
v 0.562500 0.250000 0.750000
v 0.437500 0.250000 0.750000
v 0.312500 0.250000 0.750000
v 0.687500 0.562500 0.750000
v 0.562500 0.562500 0.750000
v 0.437500 0.562500 0.750000
v 0.312500 0.562500 0.750000
v 0.312500 0.250000 0.687500
v 0.687500 0.250000 0.687500
v 0.437500 0.250000 0.687500
v 0.562500 0.250000 0.687500
v 0.312500 0.250000 0.250000
v 0.687500 0.250000 0.250000
v 0.312500 0.625000 0.250000
v 0.687500 0.625000 0.250000
v 0.687500 0.000000 0.687500
v 0.687500 0.562500 0.687500
v 0.562500 0.562500 0.687500
v 0.437500 0.562500 0.687500
v 0.312500 0.562500 0.687500
vn -0.0000 1.0000 -0.0000
vn -0.0000 -0.0000 -1.0000
vn -0.0000 -0.0000 1.0000
vn 1.0000 -0.0000 -0.0000
vn -0.0000 -1.0000 -0.0000
vn -1.0000 -0.0000 -0.0000
vt 0.250000 0.000000
vt 0.218750 0.218750
vt 0.218750 0.031250
vt 0.031250 0.031250
vt 0.000000 0.000000
vt 0.031250 0.218750
vt 1.000000 0.968750
vt 1.000000 1.000000
vt 0.812500 1.000000
vt 0.812500 0.968750
vt 0.312500 0.937500
vt 0.500000 0.937500
vt 0.500000 1.000000
vt 0.312500 1.000000
vt 0.562500 1.000000
vt 0.562500 0.937500
vt 0.750000 0.968750
vt 0.750000 1.000000
vt 0.031250 0.500000
vt 0.000000 0.500000
vt 0.000000 0.312500
vt 0.031250 0.312500
vt 0.218750 0.312500
vt 0.250000 0.312500
vt 0.250000 0.500000
vt 0.218750 0.500000
vt 0.250000 0.250000
vt 0.218750 0.250000
vt 0.000000 1.000000
vt 0.031250 0.968950
vt 0.093750 0.968950
vt 0.250000 1.000000
vt 0.031250 0.968750
vt 0.000000 0.812500
vt 0.031250 0.812500
vt 0.218750 0.968750
vt 0.218750 0.812500
vt 0.250000 0.812500
vt 0.093750 0.968750
vt 0.093750 0.812500
vt 0.156250 0.812500
vt 0.156250 0.968750
vt 0.156250 0.968950
vt 0.218750 0.968950
vt 0.406250 0.250000
vt 0.406250 0.218750
vt 0.468750 0.218750
vt 0.468750 0.250000
vt 0.312500 0.375000
vt 0.500000 0.375000
vt 0.500000 0.437500
vt 0.312500 0.437500
vt 0.312500 0.562500
vt 0.500000 0.562500
vt 0.312500 0.625000
vt 0.343750 0.000000
vt 0.343750 0.031250
vt 0.343750 0.218750
vt 0.312500 0.000000
vt 0.375000 0.875000
vt 0.312500 0.875000
vt 0.312500 0.750000
vt 0.437500 0.875000
vt 0.562500 0.468750
vt 0.750000 0.468750
vt 0.750000 0.750000
vt 0.562500 0.750000
vt 0.812500 0.062500
vt 0.812500 0.000000
vt 0.750000 0.000000
vt 0.781250 0.062500
vt 0.812500 0.250000
vt 0.812500 0.281250
vt 0.750000 0.281250
vt 0.781250 0.250000
vt 0.750000 0.875000
vt 0.562500 0.875000
vt 0.562500 0.812500
vt 0.750000 0.812500
vt 0.625000 0.000000
vt 0.687500 0.000000
vt 0.687500 0.187500
vt 0.625000 0.187500
vt 0.812500 0.062500
vt 0.500000 0.625000
vt 0.750000 0.937500
vt 0.562500 0.968750
vt 0.343750 0.250000
vt 0.312500 0.250000
vt 0.000000 0.562500
vt 0.250000 0.562500
vt 0.250000 0.750000
vt 0.000000 0.750000
vt 0.531250 0.000000
vt 0.562500 0.000000
vt 0.531250 0.218750
vt 0.531250 0.031250
vt 0.500000 0.687500
vt 0.312500 0.687500
vt 0.562500 0.250000
vt 0.531250 0.250000
vt 0.500000 0.750000
vt 0.500000 0.875000
vt 0.656250 0.078125
vt 0.687500 0.078125
vt 0.687500 0.109375
vt 0.656250 0.109375
vt 0.031250 0.250000
vt 0.000000 0.250000
vt 0.531250 0.031250
s 0
g off
usemtl backtank
f 20/1/1 12/2/1 2/3/1 3/4/1
f 29/5/1 20/1/1 3/4/1 1/6/1
f 16/7/2 14/8/2 9/9/2 7/10/2
f 3/11/3 2/12/3 8/13/3 17/14/3
f 8/15/4 2/16/4 7/17/4 9/18/4
f 17/4/1 8/3/1 9/2/1 14/6/1
f 49/19/2 21/20/2 25/21/2 47/22/2
f 46/23/2 30/24/2 27/25/2 48/26/2
f 21/27/1 49/28/1 12/2/1 20/1/1
f 29/29/3 41/30/3 40/31/3 20/32/3
f 41/33/3 29/29/3 32/34/3 37/35/3
f 38/36/3 34/37/3 23/38/3 20/32/3
f 40/39/3 36/40/3 35/41/3 39/42/3
f 39/43/3 38/44/3 20/32/3 40/31/3
f 36/45/5 44/46/5 45/47/5 35/48/5
f 26/49/2 31/50/2 19/51/2 11/52/2
f 31/53/6 33/54/6 19/55/6
f 46/56/5 28/57/5 42/58/5 30/59/5
f 44/60/3 42/61/3 33/62/3 45/63/3
f 13/64/2 18/65/2 15/66/2 10/67/2
f 22/68/4 11/69/4 13/70/4 47/71/4
f 1/72/6 16/73/6 15/74/6 48/75/6
f 10/76/1 15/77/1 16/78/1 7/79/1
f 19/80/5 18/81/5 13/82/5 11/83/5
f 47/71/4 13/70/4 10/74/4 49/75/4
f 49/75/4 10/74/4 7/73/4 12/72/4
f 46/71/6 18/70/6 19/69/6 28/84/6
f 48/75/6 15/74/6 18/70/6 46/71/6
f 24/53/4 26/54/4 11/85/4
f 3/86/6 16/87/6 1/16/6
f 42/58/5 37/88/5 32/89/5 30/59/5
f 30/90/6 32/91/6 29/92/6 27/93/6
f 47/94/5 25/95/5 43/96/5 22/97/5
f 7/17/4 2/16/4 12/86/4
f 19/55/6 33/54/6 42/98/6 28/99/6
f 11/85/4 22/98/4 43/99/4 24/53/4
f 17/18/6 14/15/6 16/87/6 3/86/6
f 23/90/4 25/91/4 21/92/4 20/93/4
f 43/96/5 25/95/5 23/100/5 34/101/5
f 33/62/3 24/102/3 43/103/3 45/63/3
f 38/104/6 51/105/6 43/106/6 34/107/6
f 39/105/5 52/106/5 51/107/5 38/104/5
f 39/105/4 35/106/4 45/107/4 52/104/4
f 43/107/3 51/104/3 52/105/3 45/106/3
f 40/104/6 53/105/6 44/106/6 36/107/6
f 41/105/4 37/106/4 42/107/4 54/104/4
f 41/105/5 54/106/5 53/107/5 40/104/5
f 42/106/3 44/107/3 53/104/3 54/105/3
f 1/6/1 48/108/1 27/109/1 29/5/1
g down
f 4/57/5 6/110/5 50/96/5 5/58/5
