# Blender 5.1.2
# www.blender.org
mtllib block.mtl
o item
v 0.312500 0.625000 0.312500
v 0.593750 0.812500 0.593750
v 0.437500 0.562500 0.718750
v 0.625000 1.000000 0.625000
v 0.687500 0.625000 0.687500
v 0.593750 0.812500 0.406250
v 0.437500 0.437500 0.843750
v 0.625000 1.000000 0.375000
v 0.312500 0.625000 0.687500
v 0.593750 0.750000 0.593750
v 0.437500 0.494638 0.820082
v 0.625000 0.812500 0.625000
v 0.312500 -0.000000 0.312500
v 0.593750 0.750000 0.406250
v 0.437500 0.317862 0.820082
v 0.625000 0.812500 0.375000
v 0.312500 0.000000 0.687500
v 0.406250 0.812500 0.406250
v 0.687500 -0.000000 0.312500
v 0.375000 1.000000 0.375000
v 0.687500 0.687500 0.312500
v 0.406250 0.812500 0.593750
v 0.375000 1.000000 0.625000
v 0.437500 0.538833 0.775888
v 0.687500 0.750000 0.687500
v 0.406250 0.750000 0.406250
v 0.375000 0.812500 0.375000
v 0.687500 0.750000 0.312500
v 0.437500 0.375000 0.843750
v 0.406250 0.750000 0.593750
v 0.375000 0.812500 0.625000
v 0.687500 0.687500 0.187500
v 0.437500 0.250000 0.718750
v 0.687500 0.125000 0.312500
v 0.687500 0.625000 0.312500
v 0.437500 0.273668 0.775888
v 0.687500 0.125000 0.187500
v 0.312500 0.750000 0.312500
v 0.312500 0.687500 0.187500
v 0.312500 0.687500 0.312500
v 0.312500 0.750000 0.687500
v 0.312500 0.538833 0.775888
v 0.312500 0.125000 0.187500
v 0.312500 0.125000 0.312500
v 0.750000 0.625000 0.750000
v 0.312500 0.437500 0.843750
v 0.750000 0.625000 0.250000
v 0.312500 0.562500 0.718750
v 0.687500 0.250000 0.312500
v 0.750000 0.250000 0.750000
v 0.312500 0.317862 0.820082
v 0.312500 0.494638 0.820082
v 0.687500 0.000000 0.687500
v 0.750000 0.250000 0.250000
v 0.250000 0.625000 0.250000
v 0.312500 0.250000 0.312500
v 0.312500 0.375000 0.843750
v 0.250000 0.625000 0.750000
v 0.250000 0.250000 0.250000
v 0.312500 0.250000 0.718750
v 0.250000 0.250000 0.750000
v 0.312500 0.273668 0.775888
v 0.687500 0.250000 0.750000
v 0.562500 0.250000 0.750000
v 0.437500 0.250000 0.750000
v 0.312500 0.250000 0.750000
v 0.437500 0.330806 0.718750
v 0.687500 0.562500 0.750000
v 0.437500 0.481694 0.718750
v 0.312500 0.330806 0.718750
v 0.562500 0.562500 0.750000
v 0.437500 0.562500 0.750000
v 0.312500 0.481694 0.718750
v 0.312500 0.562500 0.750000
v 0.312500 0.250000 0.687500
v 0.437500 0.437500 0.762944
v 0.687500 0.250000 0.687500
v 0.437500 0.250000 0.687500
v 0.312500 0.437500 0.762944
v 0.562500 0.250000 0.687500
v 0.312500 0.250000 0.250000
v 0.687500 0.250000 0.250000
v 0.437500 0.375000 0.762944
v 0.312500 0.625000 0.250000
v 0.562500 0.437500 0.762944
v 0.687500 0.625000 0.250000
v 0.687500 0.562500 0.718750
v 0.687500 0.437500 0.843750
v 0.687500 0.494638 0.820082
v 0.687500 0.317862 0.820082
v 0.687500 0.538833 0.775888
v 0.687500 0.375000 0.843750
v 0.687500 0.250000 0.718750
v 0.687500 0.273668 0.775888
v 0.562500 0.538833 0.775888
v 0.562500 0.437500 0.843750
v 0.562500 0.562500 0.718750
v 0.562500 0.317862 0.820082
v 0.562500 0.494638 0.820082
v 0.562500 0.375000 0.843750
v 0.562500 0.250000 0.718750
v 0.562500 0.273668 0.775888
v 0.687500 0.330806 0.718750
v 0.687500 0.481694 0.718750
v 0.562500 0.330806 0.718750
v 0.562500 0.481694 0.718750
v 0.687500 0.437500 0.762944
v 0.687500 0.375000 0.762944
v 0.562500 0.375000 0.762944
v 0.312500 0.299556 0.750000
v 0.312500 0.375000 0.750000
v 0.312500 0.437500 0.750000
v 0.312500 0.512944 0.750000
v 0.687500 0.512944 0.750000
v 0.687500 0.437500 0.750000
v 0.687500 0.299556 0.750000
v 0.687500 0.375000 0.750000
v 0.437500 0.512944 0.750000
v 0.437500 0.437500 0.750000
v 0.437500 0.299556 0.750000
v 0.437500 0.375000 0.750000
v 0.562500 0.299556 0.750000
v 0.562500 0.375000 0.750000
v 0.562500 0.437500 0.750000
v 0.562500 0.512944 0.750000
v 0.312500 0.375000 0.762944
v 0.312500 -0.000000 0.312500
v 0.312500 0.000000 0.687500
v 0.687500 -0.000000 0.312500
v 0.687500 0.000000 0.687500
vn -0.0000 1.0000 -0.0000
vn -0.0000 -0.0000 -1.0000
vn -0.0000 -0.0000 1.0000
vn 1.0000 -0.0000 -0.0000
vn -0.0000 -1.0000 -0.0000
vn -1.0000 -0.0000 -0.0000
vn -0.0000 0.7071 -0.7071
vn -0.0000 -0.7071 0.7071
vn -0.0000 0.7071 0.7071
vn -0.0000 -0.7071 -0.7071
vt 0.250000 0.000000
vt 0.218750 0.218750
vt 0.218750 0.031250
vt 0.031250 0.031250
vt 0.000000 0.000000
vt 0.031250 0.218750
vt 1.000000 0.968750
vt 1.000000 1.000000
vt 0.812500 1.000000
vt 0.812500 0.968750
vt 0.312500 0.937500
vt 0.500000 0.937500
vt 0.500000 1.000000
vt 0.312500 1.000000
vt 0.562500 1.000000
vt 0.562500 0.937500
vt 0.750000 0.968750
vt 0.750000 1.000000
vt 0.078125 0.078125
vt 0.078125 0.171875
vt 0.171875 0.078125
vt 0.031250 0.500000
vt 0.000000 0.500000
vt 0.000000 0.312500
vt 0.031250 0.312500
vt 0.218750 0.312500
vt 0.250000 0.312500
vt 0.250000 0.500000
vt 0.218750 0.500000
vt 0.250000 0.250000
vt 0.218750 0.250000
vt 0.000000 1.000000
vt 0.031250 0.968950
vt 0.093750 0.968950
vt 0.250000 1.000000
vt 0.031250 0.906250
vt 0.031250 0.943972
vt 0.031250 0.968750
vt 0.218750 0.837278
vt 0.218750 0.812500
vt 0.250000 0.812500
vt 0.218750 0.875000
vt 0.156250 0.943972
vt 0.156250 0.968750
vt 0.093750 0.968750
vt 0.093750 0.943972
vt 0.156250 0.968950
vt 0.218750 0.968950
vt 0.468750 0.234375
vt 0.468750 0.250000
vt 0.406250 0.250000
vt 0.406250 0.234375
vt 0.312500 0.375000
vt 0.500000 0.375000
vt 0.500000 0.437500
vt 0.312500 0.437500
vt 0.312500 0.562500
vt 0.500000 0.562500
vt 0.312500 0.625000
vt 0.562500 0.250000
vt 0.531250 0.250000
vt 0.531250 0.234375
vt 0.531250 0.218750
vt 0.562500 0.468750
vt 0.750000 0.468750
vt 0.750000 0.750000
vt 0.562500 0.750000
vt 0.812500 0.062500
vt 0.812500 0.000000
vt 0.750000 0.000000
vt 0.781250 0.062500
vt 0.812500 0.250000
vt 0.812500 0.281250
vt 0.750000 0.281250
vt 0.781250 0.250000
vt 0.750000 0.875000
vt 0.562500 0.875000
vt 0.562500 0.812500
vt 0.750000 0.812500
vt 0.625000 0.000000
vt 0.687500 0.000000
vt 0.687500 0.187500
vt 0.625000 0.187500
vt 0.812500 0.062500
vt 0.500000 0.625000
vt 0.750000 0.937500
vt 0.562500 0.968750
vt 0.312500 0.250000
vt 0.343750 0.218750
vt 0.343750 0.234375
vt 0.343750 0.250000
vt 0.000000 0.562500
vt 0.250000 0.562500
vt 0.250000 0.750000
vt 0.000000 0.750000
vt 0.312500 0.687500
vt 0.500000 0.687500
vt 0.562500 0.000000
vt 0.531250 0.031250
vt 0.531250 0.000000
vt 0.437500 0.875000
vt 0.312500 0.750000
vt 0.500000 0.750000
vt 0.500000 0.875000
vt 0.671875 0.101294
vt 0.671875 0.109375
vt 0.656250 0.109375
vt 0.656250 0.104419
vt 0.656250 0.083081
vt 0.656250 0.078125
vt 0.671875 0.078125
vt 0.671875 0.086206
vt 0.656250 0.093750
vt 0.687500 0.078125
vt 0.687500 0.093750
vt 0.687500 0.104419
vt 0.687500 0.109375
vt 0.671875 0.101294
vt 0.687500 0.083081
vt 0.671875 0.086206
vt 0.671875 0.101294
vt 0.656250 0.093750
vt 0.687500 0.093750
vt 0.031250 0.250000
vt 0.000000 0.250000
vt 0.906250 0.156250
vt 0.906250 0.115847
vt 0.968750 0.115847
vt 0.968750 0.156250
vt 0.906250 0.040403
vt 0.906250 0.000000
vt 0.968750 0.000000
vt 0.968750 0.040403
vt 0.910826 0.111271
vt 0.937500 0.137944
vt 0.906250 0.115847
vt 0.968750 0.234375
vt 0.968750 0.250000
vt 0.906250 0.250000
vt 0.906250 0.234375
vt 0.968750 0.137944
vt 0.906250 0.137944
vt 0.968750 0.115847
vt 0.906250 0.218750
vt 0.968750 0.218750
vt 1.000000 0.115847
vt 0.968750 0.109375
vt 1.000000 0.109375
vt 0.968750 0.115847
vt 1.000000 0.115847
vt 1.000000 0.156250
vt 0.906250 0.137944
vt 0.937500 0.156250
vt 0.906250 0.115847
vt 0.937500 0.115847
vt 0.932924 0.111271
vt 0.937500 0.115847
vt 0.973327 0.111271
vt 1.000000 0.137944
vt 0.968750 0.115847
vt 1.000000 0.115847
vt 1.000000 0.137944
vt 0.995424 0.111271
vt 0.906250 0.234375
vt 0.937500 0.115847
vt 0.968750 0.137944
vt 0.906250 0.109375
vt 0.937500 0.109375
vt 0.910827 0.111271
vt 0.937500 0.137944
vt 0.906250 0.593750
vt 1.000000 0.593750
vt 1.000000 0.625000
vt 0.906250 0.625000
vt 1.000000 0.656250
vt 0.906250 0.656250
vt 1.000000 0.687500
vt 0.906250 0.687500
vt 0.875000 0.656250
vt 1.000000 0.750000
vt 0.875000 0.750000
vt 1.000000 0.875000
vt 0.875000 0.875000
vt 0.968750 0.562500
vt 0.968750 0.531250
vt 1.000000 0.531250
vt 1.000000 0.562500
vt 0.171875 0.171875
vt 0.375000 0.875000
vt 0.312500 0.875000
vt 0.968750 0.109375
vt 1.000000 0.109375
vt 0.937500 0.109375
vt 0.406250 0.218750
vt 0.468750 0.218750
vt 0.995424 0.111271
vt 0.973326 0.111271
vt 0.932924 0.111271
vt 0.000000 0.812500
vt 0.031250 0.875000
vt 0.031250 0.812500
vt 0.031250 0.837278
vt 0.093750 0.906250
vt 0.156250 0.906250
vt 0.093750 0.875000
vt 0.156250 0.875000
vt 0.093750 0.837278
vt 0.156250 0.837278
vt 0.093750 0.812500
vt 0.156250 0.812500
vt 0.218750 0.968750
vt 0.218750 0.943972
vt 0.218750 0.906250
vt 0.312500 0.000000
vt 0.343750 0.031250
vt 0.343750 0.000000
vt 0.531250 0.031250
s 0
g off
usemtl backtank
f 45/1/1 35/2/1 5/3/1 9/4/1
f 58/5/1 45/1/1 9/4/1 1/6/1
f 40/7/2 38/8/2 28/9/2 21/10/2
f 9/11/3 5/12/3 25/13/3 41/14/3
f 25/15/4 5/16/4 21/17/4 28/18/4
f 41/4/1 30/19/1 26/20/1 38/6/1
f 41/4/1 25/3/1 10/21/1 30/19/1
f 86/22/2 47/23/2 54/24/2 82/25/2
f 81/26/2 59/27/2 55/28/2 84/29/2
f 47/30/1 86/31/1 35/2/1 45/1/1
f 58/32/3 74/33/3 72/34/3 45/35/3
f 58/32/3 112/36/3 113/37/3 74/38/3
f 116/39/3 63/40/3 50/41/3 117/42/3
f 125/43/3 71/44/3 72/45/3 118/46/3
f 71/47/3 68/48/3 45/35/3 72/34/3
f 101/49/5 64/50/5 65/51/5 33/52/5
f 19/53/2 13/54/2 44/55/2 34/56/2
f 13/57/6 17/58/6 44/59/6
f 50/60/5 63/61/5 93/62/5 77/63/5
f 37/64/2 43/65/2 39/66/2 32/67/2
f 49/68/4 34/69/4 37/70/4 82/71/4
f 1/72/6 40/73/6 39/74/6 84/75/6
f 32/76/1 39/77/1 40/78/1 21/79/1
f 44/80/5 43/81/5 37/82/5 34/83/5
f 82/71/4 37/70/4 32/74/4 86/75/4
f 86/75/4 32/74/4 21/73/4 35/72/4
f 81/71/6 43/70/6 44/69/6 56/84/6
f 84/75/6 39/74/6 43/70/6 81/71/6
f 53/57/4 19/58/4 34/85/4
f 9/86/6 40/87/6 1/16/6
f 61/88/5 75/89/5 60/90/5 66/91/5
f 59/92/6 61/93/6 58/94/6 55/95/6
f 21/17/4 5/16/4 35/86/4
f 56/96/6 44/59/6 17/58/6 75/97/6
f 77/96/4 53/57/4 34/85/4 49/97/4
f 41/18/6 38/15/6 40/87/6 9/86/6
f 50/92/4 54/93/4 47/94/4 45/95/4
f 54/98/5 49/99/5 82/100/5
f 80/101/3 17/102/3 53/103/3 77/104/3
f 103/105/6 93/106/6 63/107/6 116/108/6
f 114/109/6 68/110/6 87/111/6 104/112/6
f 87/113/5 68/110/5 71/114/5 97/115/5
f 122/116/4 64/117/4 101/106/4 105/118/4
f 97/111/4 71/114/4 125/119/4 106/120/4
f 120/108/6 67/118/6 33/106/6 65/107/6
f 118/109/6 72/110/6 3/111/6 69/112/6
f 66/117/4 60/106/4 70/121/4 110/116/4
f 48/111/4 74/114/4 113/119/4 73/112/4
f 3/122/5 72/110/5 74/114/5 48/123/5
f 1/6/1 84/124/1 55/125/1 58/5/1
f 48/126/3 73/127/3 69/128/3 3/129/3
f 70/130/3 60/131/3 33/132/3 67/133/3
f 111/134/6 110/135/6 126/136/6
f 78/137/5 33/138/5 60/139/5 75/140/5
f 118/141/7 113/142/7 42/126/7 24/129/7
f 76/143/8 11/129/8 52/126/8 79/136/8
f 52/144/9 11/145/9 24/138/9 42/139/9
f 57/144/3 29/145/3 7/138/3 46/139/3
f 109/146/6 85/143/6 124/147/6 123/148/6
f 79/136/1 46/126/1 7/129/1 76/143/1
f 83/149/5 29/129/5 57/126/5 126/136/5
f 120/141/4 83/150/4 15/151/4 36/129/4
f 62/144/8 36/145/8 15/138/8 51/139/8
f 126/136/9 51/126/9 15/129/9 83/149/9
f 120/141/10 36/129/10 62/126/10 110/152/10
f 57/153/6 46/126/6 79/154/6 126/155/6
f 112/156/6 79/157/6 113/142/6
f 119/158/4 118/159/4 76/143/4
f 83/160/4 76/161/4 7/151/4 29/129/4
f 122/162/6 102/151/6 98/129/6 109/143/6
f 124/163/6 85/146/6 125/141/6
f 97/129/3 106/128/3 104/127/3 87/126/3
f 105/133/3 101/132/3 93/131/3 103/130/3
f 77/164/5 93/144/5 101/145/5 80/137/5
f 125/141/7 95/129/7 91/126/7 114/152/7
f 100/151/6 96/129/6 85/143/6 109/146/6
f 107/136/8 89/126/8 99/129/8 85/149/8
f 99/138/9 89/139/9 91/144/9 95/145/9
f 100/138/3 92/139/3 88/144/3 96/145/3
f 85/149/1 96/129/1 88/126/1 107/136/1
f 108/136/5 92/126/5 100/129/5 109/143/5
f 116/152/4 108/165/4 90/153/4 94/126/4
f 102/138/8 94/139/8 90/144/8 98/145/8
f 109/143/9 98/129/9 90/126/9 108/136/9
f 122/166/10 116/152/10 94/126/10 102/129/10
f 117/167/4 115/168/4 107/165/4 108/136/4
f 107/136/4 115/169/4 114/170/4
f 14/171/2 26/172/2 18/173/2 6/174/2
f 10/174/4 14/173/4 6/175/4 2/176/4
f 30/174/3 10/173/3 2/175/3 22/176/3
f 26/176/6 30/175/6 22/177/6 18/178/6
f 16/179/2 27/175/2 20/180/2 8/181/2
f 12/179/4 16/175/4 8/180/4 4/181/4
f 31/179/3 12/175/3 4/180/3 23/181/3
f 27/179/6 31/175/6 23/180/6 20/181/6
f 23/181/1 4/180/1 8/182/1 20/183/1
f 2/184/5 6/185/5 16/186/5 12/187/5
f 6/187/5 18/184/5 27/185/5 16/186/5
f 27/185/5 18/186/5 22/187/5 31/184/5
f 31/184/5 22/185/5 2/186/5 12/187/5
f 10/21/1 25/3/1 28/2/1 14/188/1
f 14/188/1 28/2/1 38/6/1 26/20/1
f 17/102/3 80/101/3 78/189/3 75/190/3
f 121/191/4 119/192/4 76/161/4 83/160/4
f 126/155/6 79/154/6 112/167/6 111/193/6
f 108/136/4 107/165/4 88/153/4 92/126/4
f 33/52/5 78/194/5 80/195/5 101/49/5
f 113/142/6 79/157/6 52/153/6 42/126/6
f 126/136/6 110/135/6 62/153/6 51/126/6
f 76/143/4 118/159/4 24/151/4 11/129/4
f 83/150/4 120/141/4 121/196/4
f 125/141/6 85/146/6 99/151/6 95/129/6
f 109/143/6 123/197/6 122/162/6
f 114/170/4 91/153/4 89/126/4 107/136/4
f 108/165/4 116/152/4 117/198/4
f 112/36/3 58/32/3 61/199/3 111/200/3
f 61/199/3 66/201/3 110/202/3 111/200/3
f 118/46/3 119/203/3 124/204/3 125/43/3
f 124/204/3 119/203/3 121/205/3 123/206/3
f 123/206/3 121/205/3 120/207/3 122/208/3
f 122/208/3 120/207/3 65/209/3 64/210/3
f 45/35/3 68/211/3 114/212/3 115/213/3
f 117/42/3 50/41/3 45/35/3 115/213/3
f 113/142/7 118/141/7 69/128/7 73/127/7
f 114/152/7 104/127/7 106/128/7 125/141/7
f 110/152/10 70/136/10 67/143/10 120/141/10
f 116/152/10 122/166/10 105/143/10 103/136/10
f 59/214/5 56/215/5 75/89/5 61/88/5
f 56/215/5 59/214/5 81/216/5
f 50/60/5 77/63/5 49/99/5 54/98/5
g down
f 127/215/5 129/217/5 130/63/5 128/89/5
