# Blender 5.2.1 LTS
# www.blender.org
mtllib block.mtl
o block_x
v 1.000000 1.000000 1.000000
v 1.000000 1.000000 -0.000000
v 0.000000 1.000000 1.000000
v 1.000000 0.125000 0.875000
v 0.000000 0.125000 0.125000
v 0.062500 0.875000 0.875000
v 0.062500 0.875000 0.125000
v 0.000000 1.000000 -0.000000
v 1.000000 0.125000 0.125000
v 0.000000 0.125000 0.875000
v 0.062500 0.125000 0.875000
v 0.062500 0.125000 0.125000
v 1.000000 0.000000 1.000000
v 0.000000 0.000000 1.000000
v 1.000000 -0.000000 0.000000
v 1.000000 0.875000 0.875000
v 0.937500 0.875000 0.875000
v 0.937500 0.875000 0.125000
v 0.000000 0.875000 0.125000
v 0.000000 -0.000000 0.000000
v 1.000000 0.875000 0.125000
v 0.937500 0.125000 0.875000
v 0.937500 0.125000 0.125000
v 0.000000 0.875000 0.875000
v 1.000000 1.000000 1.000000
v 0.000000 1.000000 1.000000
v 1.000000 0.000000 1.000000
v 0.000000 0.000000 1.000000
v 1.000000 1.000000 1.000000
v 1.000000 1.000000 -0.000000
v 0.000000 1.000000 1.000000
v 0.000000 1.000000 -0.000000
v 1.000000 1.000000 -0.000000
v 0.000000 1.000000 -0.000000
v 1.000000 -0.000000 0.000000
v 0.000000 -0.000000 0.000000
v 1.000000 0.000000 1.000000
v 0.000000 0.000000 1.000000
v 1.000000 -0.000000 0.000000
v 0.000000 -0.000000 0.000000
vn -0.0000 1.0000 -0.0000
vn -0.0000 -0.0000 -1.0000
vn -0.0000 -0.0000 1.0000
vn -0.0000 -1.0000 -0.0000
vn 1.0000 -0.0000 -0.0000
vn -1.0000 -0.0000 -0.0000
vt 0.000000 0.000000
vt 1.000000 0.000000
vt 1.000000 1.000000
vt 0.000000 1.000000
vt 0.125000 0.375000
vt 0.125000 0.312500
vt 0.875000 0.312500
vt 0.875000 0.375000
vt 0.125000 0.687500
vt 0.125000 0.625000
vt 0.875000 0.625000
vt 0.875000 0.687500
vt 1.000000 0.750000
vt 0.000000 0.750000
vt 0.875000 0.125000
vt 0.125000 0.125000
vt -0.000000 0.000000
vt 1.000000 0.000000
vt 0.000000 0.250000
vt 1.000000 0.250000
vt 0.000000 1.000000
vt 0.125000 0.875000
vt 0.875000 0.875000
vt 0.000000 1.000000
vt 1.000000 0.000000
s 0
g east
usemtl encased_border_1
f 15/13/5 2/14/5 21/10/5 9/11/5
f 16/15/5 21/16/5 2/17/5 1/18/5
f 1/19/5 13/20/5 4/8/5 16/5/5
f 13/3/5 15/21/5 9/22/5 4/23/5
g west
f 8/13/6 20/14/6 5/10/6 19/11/6
f 14/19/6 3/20/6 24/8/6 10/5/6
f 19/22/6 24/23/6 3/3/6 8/24/6
f 20/1/6 14/25/6 10/15/6 5/16/6
usemtl encased_border_2
f 11/5/2 10/6/2 24/7/2 6/8/2
f 5/9/3 12/10/3 7/11/3 19/12/3
f 19/9/4 7/10/4 6/11/4 24/12/4
f 10/9/1 11/10/1 12/11/1 5/12/1
g east
f 4/9/2 22/10/2 17/11/2 16/12/2
f 23/5/3 9/6/3 21/7/3 18/8/3
f 18/5/4 21/6/4 16/7/4 17/8/4
f 22/5/1 4/6/1 9/7/1 23/8/1
usemtl gearbox_3
f 22/23/5 23/22/5 18/16/5 17/15/5
g west
f 12/16/6 11/15/6 6/23/6 7/22/6
g up
usemtl casing
f 31/1/1 29/2/1 30/3/1 32/4/1
g down
f 37/3/4 38/4/4 40/1/4 39/2/4
g north
f 35/1/2 36/2/2 34/3/2 33/4/2
g south
f 28/1/3 27/2/3 25/3/3 26/4/3
