# Blender 5.2.1 LTS
# www.blender.org
mtllib block.mtl
o block
v 1.000000 1.000000 1.000000
v 0.000000 0.000000 1.000000
v 0.000000 1.000000 1.000000
v 0.875000 0.937500 0.875000
v 0.125000 1.000000 0.875000
v 0.875000 1.000000 0.125000
v 1.000000 1.000000 -0.000000
v 1.000000 -0.000000 0.000000
v 0.000000 1.000000 -0.000000
v 0.875000 0.937500 0.125000
v 0.125000 1.000000 0.125000
v 0.875000 1.000000 0.875000
v 0.000000 -0.000000 0.000000
v 1.000000 0.000000 1.000000
v 0.875000 0.062500 0.875000
v 0.125000 0.000000 0.875000
v 0.875000 -0.000000 0.125000
v 0.875000 0.062500 0.125000
v 0.125000 -0.000000 0.125000
v 0.875000 0.000000 0.875000
v 0.125000 0.937500 0.125000
v 0.125000 0.937500 0.875000
v 0.125000 0.062500 0.125000
v 0.125000 0.062500 0.875000
v 1.000000 1.000000 -0.000000
v 1.000000 -0.000000 0.000000
v 0.000000 1.000000 -0.000000
v 0.000000 -0.000000 0.000000
v 1.000000 1.000000 1.000000
v 0.000000 0.000000 1.000000
v 0.000000 1.000000 1.000000
v 1.000000 0.000000 1.000000
v 1.000000 1.000000 1.000000
v 1.000000 1.000000 -0.000000
v 1.000000 -0.000000 0.000000
v 1.000000 0.000000 1.000000
v 0.000000 0.000000 1.000000
v 0.000000 1.000000 1.000000
v 0.000000 1.000000 -0.000000
v 0.000000 -0.000000 0.000000
vn 1.0000 -0.0000 -0.0000
vn -1.0000 -0.0000 -0.0000
vn -0.0000 -0.0000 -1.0000
vn -0.0000 -0.0000 1.0000
vn -0.0000 1.0000 -0.0000
vn -0.0000 -1.0000 -0.0000
vt 0.125000 0.062500
vt 0.875000 0.062500
vt 0.875000 0.125000
vt 0.125000 0.125000
vt 0.000000 1.000000
vt 0.000000 0.000000
vt 1.000000 0.000000
vt 1.000000 1.000000
vt 0.875000 0.875000
vt 0.125000 0.875000
vt 0.125000 0.937500
vt 0.875000 0.937500
vt 0.875000 1.000000
vt 0.125000 1.000000
vt 1.000000 0.250000
vt 0.875000 0.375000
vt 0.125000 0.375000
vt 0.000000 0.250000
vt 0.000000 0.750000
vt 0.125000 0.625000
vt 0.875000 0.625000
vt 1.000000 0.750000
vt 0.000000 1.000000
vt -0.000000 0.000000
vt 1.000000 0.000000
vt 0.000000 1.000000
s 0
g up
usemtl encased_border_1
f 3/15/5 5/16/5 11/17/5 9/18/5
f 7/19/5 6/20/5 12/21/5 1/22/5
f 3/8/5 1/23/5 12/10/5 5/9/5
f 11/3/5 6/4/5 7/24/5 9/25/5
g down
f 13/24/6 8/7/6 17/3/6 19/4/6
f 2/22/6 13/19/6 19/20/6 16/21/6
f 8/18/6 14/15/6 20/16/6 17/17/6
f 16/10/6 20/9/6 14/8/6 2/26/6
usemtl encased_border_2
f 16/1/1 19/2/1 23/3/1 24/4/1
f 17/1/2 20/2/2 15/3/2 18/4/2
f 20/1/3 16/2/3 24/3/3 15/4/3
f 19/1/4 17/2/4 18/3/4 23/4/4
g up
f 22/11/1 21/12/1 11/13/1 5/14/1
f 10/11/2 4/12/2 12/13/2 6/14/2
f 4/11/3 22/12/3 5/13/3 12/14/3
f 21/11/4 10/12/4 6/13/4 11/14/4
usemtl gearbox_3
f 22/9/5 4/10/5 10/4/5 21/3/5
g down
f 23/4/6 18/3/6 15/9/6 24/10/6
g south
usemtl casing
f 31/5/4 30/6/4 32/7/4 29/8/4
g west
f 40/6/2 37/7/2 38/8/2 39/5/2
g east
f 36/6/1 35/7/1 34/8/1 33/5/1
g north
f 25/5/3 26/6/3 28/7/3 27/8/3
