# Blender 5.2.1 LTS
# www.blender.org
mtllib item.mtl
o item
v 0.875000 0.875000 0.937500
v 1.000000 1.000000 1.000000
v 0.875000 0.125000 0.000000
v 0.625000 0.625000 1.000000
v 0.000000 1.000000 1.000000
v 0.125000 0.875000 0.062500
v 0.000000 1.000000 -0.000000
v 0.875000 0.125000 1.000000
v 0.000000 -0.000000 0.000000
v 1.000000 1.000000 -0.000000
v 0.875000 0.125000 0.937500
v 0.875000 0.875000 -0.000000
v 0.875000 0.875000 0.062500
v 0.625000 0.625000 -0.000000
v 0.875000 0.875000 1.000000
v 0.000000 0.000000 1.000000
v 0.125000 0.875000 0.937500
v 0.125000 0.125000 1.000000
v 0.625000 0.375000 1.000000
v 1.000000 0.000000 1.000000
v 0.125000 0.125000 0.000000
v 0.125000 0.125000 0.062500
v 1.000000 -0.000000 0.000000
v 0.875000 0.125000 0.062500
v 0.125000 0.875000 -0.000000
v 0.125000 0.125000 0.937500
v 0.125000 0.875000 1.000000
v 0.625000 0.375000 0.000000
v 0.375000 0.625000 -0.000000
v 0.375000 0.625000 1.000000
v 0.375000 0.375000 0.000000
v 0.375000 0.375000 1.000000
v 0.375000 0.375000 0.062500
v 0.625000 0.375000 0.062500
v 0.375000 0.625000 0.062500
v 0.625000 0.625000 0.062500
v 0.375000 0.375000 0.937500
v 0.625000 0.625000 0.937500
v 0.625000 0.375000 0.937500
v 0.375000 0.625000 0.937500
vn 1.0000 -0.0000 -0.0000
vn -1.0000 -0.0000 -0.0000
vn -0.0000 1.0000 -0.0000
vn -0.0000 -1.0000 -0.0000
vn -0.0000 -0.0000 -1.0000
vn -0.0000 -0.0000 1.0000
vt 0.000000 0.000000
vt 1.000000 0.000000
vt 1.000000 1.000000
vt 0.000000 1.000000
vt 1.000000 0.250000
vt 0.875000 0.375000
vt 0.125000 0.375000
vt 0.000000 0.250000
vt 0.000000 0.750000
vt 0.125000 0.625000
vt 0.875000 0.625000
vt 1.000000 0.750000
vt 0.125000 0.875000
vt 0.875000 0.875000
vt 0.000000 1.000000
vt -0.000000 0.000000
vt 0.875000 0.125000
vt 0.125000 0.125000
vt 0.125000 0.312500
vt 0.875000 0.312500
vt 0.125000 0.687500
vt 0.875000 0.687500
vt 0.125000 0.000000
vt 0.875000 0.000000
vt 0.875000 0.062500
vt 0.125000 0.062500
vt 0.125000 0.937500
vt 0.875000 0.937500
vt 0.875000 1.000000
vt 0.125000 1.000000
vt 0.375000 0.625000
vt 0.625000 0.625000
vt 0.375000 0.375000
vt 0.375000 0.375000
vt 0.375000 0.625000
vt 0.625000 0.625000
vt 0.625000 0.375000
vt 1.000000 0.000000
vt 0.625000 0.625000
vt 0.375000 0.375000
vt 0.625000 0.375000
vt 0.625000 0.937500
vt 0.625000 1.000000
vt 0.375000 1.000000
vt 0.375000 0.937500
vt 0.375000 0.062500
vt 0.375000 0.000000
vt 0.625000 0.000000
vt 0.625000 0.062500
vt 0.625000 0.375000
s 0
usemtl casing
f 20/1/1 23/2/1 10/3/1 2/4/1
f 9/1/2 16/2/2 5/3/2 7/4/2
f 5/2/3 2/3/3 10/4/3 7/1/3
f 16/1/4 9/2/4 23/3/4 20/4/4
usemtl encased_border_1
f 7/5/5 25/6/5 21/7/5 9/8/5
f 23/9/5 3/10/5 12/11/5 10/12/5
f 12/13/5 25/14/5 7/3/5 10/15/5
f 23/16/5 9/2/5 21/17/5 3/18/5
f 5/12/6 16/9/6 18/10/6 27/11/6
f 20/8/6 2/5/6 15/6/6 8/7/6
f 27/13/6 15/14/6 2/3/6 5/15/6
f 16/1/6 20/38/6 8/17/6 18/18/6
usemtl encased_border_2
f 22/7/1 21/19/1 25/20/1 6/6/1
f 3/21/2 24/10/2 13/11/2 12/22/2
f 25/23/4 12/24/4 13/25/4 6/26/4
f 22/27/3 24/28/3 3/29/3 21/30/3
f 18/21/1 26/10/1 17/11/1 27/22/1
f 11/7/2 8/19/2 15/20/2 1/6/2
f 17/27/4 1/28/4 15/29/4 27/30/4
f 18/23/3 8/24/3 11/25/3 26/26/3
usemtl gearbox_3
f 6/14/5 13/13/5 36/31/5 35/32/5
f 36/31/5 13/13/5 24/18/5 34/33/5
f 11/13/6 1/18/6 38/34/6 39/35/6
f 17/17/6 26/14/6 37/36/6 40/37/6
f 38/34/6 1/18/6 17/17/6 40/37/6
f 37/36/6 26/14/6 11/13/6 39/35/6
f 34/33/5 24/18/5 22/17/5 33/50/5
f 33/50/5 22/17/5 6/14/5 35/32/5
usemtl axis
f 34/42/1 28/43/1 14/44/1 36/45/1
f 38/46/1 4/47/1 19/48/1 39/49/1
f 37/46/2 32/47/2 30/48/2 40/49/2
f 29/43/2 31/44/2 33/45/2 35/42/2
f 14/43/3 29/44/3 35/45/3 36/42/3
f 40/46/3 30/47/3 4/48/3 38/49/3
f 39/46/4 19/47/4 32/48/4 37/49/4
f 33/42/4 31/43/4 28/44/4 34/45/4
usemtl axis_top
f 28/39/5 31/31/5 29/40/5 14/41/5
f 32/40/6 19/41/6 4/39/6 30/31/6
