# Blender 5.2.1 LTS
# www.blender.org
mtllib block.mtl
o block
v 0.625000 1.000000 0.625000
v 0.750000 0.625000 0.750000
v 0.625000 1.000000 0.375000
v 0.750000 0.625000 0.250000
v 0.625000 0.000000 0.625000
v 0.750000 0.375000 0.750000
v 0.750000 0.375000 0.250000
v 0.625000 -0.000000 0.375000
v 0.375000 1.000000 0.375000
v 0.250000 0.625000 0.250000
v 0.250000 0.625000 0.750000
v 0.375000 1.000000 0.625000
v 0.250000 0.375000 0.250000
v 0.375000 -0.000000 0.375000
v 0.250000 0.375000 0.750000
v 0.375000 0.000000 0.625000
v 0.750000 0.593750 0.750000
v 0.750000 0.593750 0.250000
v 0.250000 0.593750 0.250000
v 0.250000 0.593750 0.750000
v 0.250000 0.406250 0.250000
v 0.250000 0.406250 0.750000
v 0.750000 0.593750 0.382582
v 0.617417 0.593750 0.250000
v 0.406250 0.593750 0.250000
v 0.250000 0.593750 0.382582
v 0.250000 0.593750 0.406250
v 0.250000 0.593750 0.593750
v 0.250000 0.593750 0.617417
v 0.617417 0.593750 0.750000
v 0.593750 0.593750 0.750000
v 0.406250 0.593750 0.750000
v 0.382583 0.593750 0.750000
v 0.750000 0.593750 0.617417
v 0.750000 0.593750 0.593750
v 0.617418 0.406250 0.250000
v 0.593750 0.406250 0.250000
v 0.406250 0.406250 0.250000
v 0.750000 0.406250 0.617417
v 0.750000 0.406250 0.593750
v 0.406250 0.406250 0.750000
v 0.382583 0.406250 0.750000
v 0.250000 0.406250 0.382582
v 0.250000 0.406250 0.406250
v 0.250000 0.406250 0.593750
v 0.250000 0.406250 0.617417
v 0.742418 0.406250 0.875000
v 0.617417 0.406250 0.750000
v 0.593750 0.406250 0.750000
v 0.593750 0.406250 0.875000
v 0.593750 0.593750 0.875000
v 0.593750 0.593750 0.250000
v 0.593750 0.593750 -0.062500
v 0.593750 0.406250 -0.062500
v 0.406250 0.593750 -0.062500
v 0.406250 0.406250 -0.062500
v 0.593750 0.593750 0.125000
v 0.593750 0.406250 0.125000
v 0.406250 0.593750 0.125000
v 0.406250 0.406250 0.125000
v 0.593750 0.593750 1.062500
v 0.593750 0.406250 1.062500
v 0.406250 0.593750 1.062500
v 0.406250 0.406250 1.062500
v 0.406250 0.593750 0.875000
v -0.062500 0.593750 0.406250
v -0.062500 0.593750 0.593750
v -0.062500 0.406250 0.406250
v -0.062500 0.406250 0.593750
v 0.125000 0.593750 0.593750
v 0.125000 0.593750 0.406250
v 0.125000 0.406250 0.593750
v 0.125000 0.406250 0.406250
v 1.062500 0.593750 0.593750
v 1.062500 0.593750 0.406250
v 1.062500 0.406250 0.593750
v 1.062500 0.406250 0.406250
v 0.750000 0.593750 0.406250
v 0.750000 0.406250 0.406250
v 0.875000 0.593750 0.406250
v 0.875000 0.593750 0.593750
v 0.875000 0.406250 0.406250
v 0.875000 0.406250 0.593750
v 0.168544 0.593750 0.035961
v 0.382582 0.406250 0.250000
v 0.168544 0.406250 0.035961
v 0.035961 0.593750 0.168544
v 0.035961 0.406250 0.168544
v 0.125000 0.406250 0.257582
v 0.742417 0.593750 0.875000
v 0.035961 0.593750 0.831456
v 0.035961 0.406250 0.831456
v 0.168544 0.593750 0.964039
v 0.168544 0.406250 0.964039
v 0.831456 0.593750 0.964039
v 0.831456 0.406250 0.964039
v 0.964039 0.593750 0.831456
v 0.964039 0.406250 0.831456
v 0.875000 0.593750 0.742417
v 0.964039 0.593750 0.168544
v 0.964039 0.406250 0.168544
v 0.831456 0.593750 0.035961
v 0.831456 0.406250 0.035961
v 0.257583 0.593750 0.125000
v 0.382583 0.593750 0.250000
v 0.257582 0.406250 0.125000
v 0.875000 0.593750 0.257582
v 0.875000 0.406250 0.257582
v 0.750000 0.406250 0.382583
v 0.742417 0.406250 0.125000
v 0.125000 0.406250 0.742417
v 0.125000 0.593750 0.257582
v 0.125000 0.593750 0.742417
v 0.257583 0.593750 0.875000
v 0.257583 0.406250 0.875000
v 0.875000 0.406250 0.742417
v 0.742417 0.593750 0.125000
v 0.406250 0.406250 0.875000
v 0.750000 0.406250 0.250000
v 0.750000 0.406250 0.750000
v 0.375000 0.375000 0.375000
v 0.375000 0.625000 0.375000
v 0.625000 0.375000 0.375000
v 0.625000 0.625000 0.375000
v 0.625000 0.375000 0.625000
v 0.625000 0.625000 0.625000
v 0.375000 0.375000 0.625000
v 0.375000 0.625000 0.625000
vn -0.0000 -0.0000 -1.0000
vn 1.0000 -0.0000 -0.0000
vn -0.0000 -0.0000 1.0000
vn -1.0000 -0.0000 -0.0000
vn -0.0000 1.0000 -0.0000
vn -0.0000 -1.0000 -0.0000
vn -0.7071 -0.0000 -0.7071
vn 0.7071 -0.0000 -0.7071
vn -0.7071 -0.0000 0.7071
vn 0.7071 -0.0000 0.7071
vt 0.625000 0.625000
vt 0.625000 1.000000
vt 0.375000 1.000000
vt 0.375000 0.625000
vt 0.375000 0.000000
vt 0.625000 0.000000
vt 0.625000 0.375000
vt 0.375000 0.375000
vt 0.125000 0.875000
vt 0.000000 1.000000
vt 0.000000 0.500000
vt 0.125000 0.625000
vt 0.500000 1.000000
vt 0.375000 0.875000
vt 0.500000 0.500000
vt 0.375000 0.625000
vt 0.132583 0.031250
vt 0.156250 0.031250
vt 0.000000 0.062500
vt 0.000000 0.031250
vt 0.132583 0.031250
vt 0.000000 0.000000
vt 0.156250 0.031250
vt 0.132583 0.031250
vt 0.000000 0.031250
vt 0.156250 0.031250
vt 0.132583 0.031250
vt 0.156250 0.031250
vt 0.132583 0.031250
vt 0.156250 0.031250
vt 0.132583 0.031250
vt 0.492417 0.875000
vt 0.617418 1.000000
vt 0.468750 1.000000
vt 0.468750 0.875000
vt 0.468750 0.250000
vt 0.617418 0.250000
vt 0.492417 0.375000
vt 0.468750 0.375000
vt 0.843750 0.500000
vt 0.992418 0.500000
vt 0.992418 0.687500
vt 0.843750 0.687500
vt 0.812500 0.187500
vt 1.000000 0.187500
vt 1.000000 0.375000
vt 0.812500 0.375000
vt 0.312500 0.187500
vt 0.312500 0.375000
vt 0.187500 0.375000
vt 0.187500 0.187500
vt 0.000000 0.375000
vt 0.000000 0.187500
vt 0.187500 0.187500
vt 0.187500 0.375000
vt 0.625000 0.812500
vt 0.812500 0.812500
vt 0.812500 1.000000
vt 1.000000 0.812500
vt 1.000000 1.000000
vt 0.187500 0.187500
vt 0.187500 0.375000
vt 0.187500 0.375000
vt 0.187500 0.187500
vt 0.208947 0.281250
vt 0.302697 0.375000
vt 0.125920 0.375000
vt 0.125920 0.187500
vt 0.125920 0.187500
vt 0.125920 0.375000
vt 0.686580 0.812500
vt 0.686580 1.000000
vt 0.938420 0.812500
vt 0.938420 1.000000
vt 0.208947 0.281250
vt 0.125920 0.375000
vt 0.125920 0.187500
vt 0.125920 0.187500
vt 0.125920 0.375000
vt 0.125920 0.187500
vt 0.257583 0.875000
vt 0.281250 0.875000
vt 0.281250 1.000000
vt 0.132583 1.000000
vt 0.281250 0.250000
vt 0.281250 0.375000
vt 0.257582 0.375000
vt 0.132583 0.250000
vt 0.992417 0.687500
vt 0.617417 1.000000
vt 0.492417 0.375000
vt 0.468750 0.250000
vt 0.632583 0.500000
vt 0.781250 0.500000
vt 0.781250 0.687500
vt 0.632583 0.687500
vt 0.125000 0.507582
vt 0.125000 0.531250
vt 0.000000 0.531250
vt 0.000000 0.382582
vt 0.000000 0.718750
vt 0.125000 0.718750
vt 0.125000 0.742418
vt 0.000000 0.867417
vt 0.992418 0.687500
vt 0.125000 0.507583
vt 0.125000 0.531250
vt 0.632582 0.500000
vt 0.781250 0.687500
vt 0.632582 0.687500
vt 0.750000 0.718750
vt 0.750000 0.867418
vt 0.625000 0.742417
vt 0.625000 0.718750
vt 0.617417 0.250000
vt 0.781250 0.500000
vt 0.125920 0.187500
vt 0.208947 0.281250
vt 0.302697 0.187500
vt 0.208947 0.281250
vt 0.750000 0.867417
vt 0.302697 0.187500
vt 0.343750 0.031250
vt 0.500000 0.062500
vt 0.367417 0.031250
vt 0.500000 0.031250
vt 0.343750 0.031250
vt 0.500000 0.000000
vt 0.367417 0.031250
vt 0.343750 0.031250
vt 0.500000 0.031250
vt 0.367417 0.031250
vt 0.343750 0.031250
vt 0.367417 0.031250
vt 0.343750 0.031250
s 0
usemtl cogwheel_axis
f 122/1/1 9/2/1 3/3/1 124/4/1
f 8/5/1 14/6/1 121/7/1 123/8/1
f 3/2/2 1/3/2 126/4/2 124/1/2
f 5/5/2 8/6/2 123/7/2 125/8/2
f 126/1/3 1/2/3 12/3/3 128/4/3
f 127/8/3 16/5/3 5/6/3 125/7/3
f 12/2/4 9/3/4 122/4/4 128/1/4
f 14/5/4 16/6/4 127/7/4 121/8/4
usemtl axis_top
f 12/8/5 1/7/5 3/1/5 9/4/5
f 14/8/6 8/7/6 5/1/6 16/4/6
usemtl cogwheel_1
f 122/9/5 10/10/5 11/11/5 128/12/5
f 4/13/5 10/10/5 122/9/5 124/14/5
f 7/15/6 6/13/6 125/14/6 123/16/6
f 15/10/6 13/11/6 121/12/6 127/9/6
f 24/17/1 52/18/1 4/19/1 18/20/1
f 34/17/2 35/18/2 2/19/2 17/20/2
f 33/17/3 32/18/3 11/19/3 20/20/3
f 26/21/4 27/18/4 10/19/4 19/20/4
f 7/22/1 37/23/1 36/24/1 119/25/1
f 6/22/2 40/26/2 39/27/2 120/25/2
f 15/22/3 41/28/3 42/29/3 22/20/3
f 13/22/4 44/30/4 43/31/4 21/20/4
f 50/40/3 47/41/3 90/42/3 51/43/3
f 54/44/1 56/45/1 55/46/1 53/47/1
f 25/48/5 52/49/5 57/50/5 59/51/5
f 56/52/6 54/53/6 58/54/6 60/55/6
f 58/56/2 54/57/2 53/58/2 57/2/2
f 56/57/4 60/59/4 59/60/4 55/58/4
f 64/44/3 62/45/3 61/46/3 63/47/3
f 63/52/5 61/53/5 51/51/5 65/50/5
f 41/48/6 49/49/6 50/50/6 118/51/6
f 62/57/2 50/59/2 51/60/2 61/58/2
f 118/56/4 64/57/4 63/58/4 65/2/4
f 68/44/4 69/45/4 67/46/4 66/47/4
f 67/53/5 70/61/5 71/62/5 66/52/5
f 68/53/6 73/51/6 72/50/6 69/52/6
f 73/56/1 68/57/1 66/58/1 71/2/1
f 69/57/3 72/59/3 70/60/3 67/58/3
f 76/44/2 77/45/2 75/46/2 74/47/2
f 35/49/5 81/50/5 80/51/5 78/48/5
f 79/49/6 82/63/6 83/64/6 40/48/6
f 77/57/1 82/59/1 80/60/1 75/58/1
f 83/56/3 76/57/3 74/58/3 81/2/3
f 86/44/7 88/45/7 87/46/7 84/47/7
f 20/65/5 29/66/5 113/67/5 114/68/5
f 88/52/6 86/53/6 106/69/6 89/70/6
f 106/71/8 86/57/8 84/58/8 104/72/8
f 88/57/9 89/73/9 112/74/9 87/58/9
f 111/71/7 92/57/7 91/58/7 113/72/7
f 94/57/10 115/73/10 114/74/10 93/58/10
f 92/44/9 94/45/9 93/46/9 91/47/9
f 94/52/6 92/53/6 111/69/6 115/70/6
f 96/44/10 98/45/10 97/46/10 95/47/10
f 19/75/5 105/66/5 104/76/5 112/77/5
f 98/52/6 96/53/6 47/78/6 116/79/6
f 47/71/9 96/57/9 95/58/9 90/72/9
f 98/57/8 116/73/8 99/74/8 97/58/8
f 101/44/8 103/45/8 102/46/8 100/47/8
f 103/52/6 101/53/6 108/80/6 110/70/6
f 108/71/10 101/57/10 100/58/10 107/72/10
f 103/57/7 110/73/7 117/74/7 102/58/7
f 60/40/1 106/41/1 104/89/1 59/43/1
f 82/40/2 108/41/2 107/89/2 80/43/2
f 110/93/1 58/94/1 57/95/1 117/96/1
f 72/40/4 111/41/4 113/105/4 70/43/4
f 89/108/4 73/94/4 71/109/4 112/110/4
f 115/108/3 118/94/3 65/109/3 114/96/3
f 116/93/2 83/116/2 81/109/2 99/96/2
f 59/51/5 57/50/5 53/52/5 55/53/5
f 112/77/5 104/76/5 84/52/5 87/53/5
f 71/62/5 70/61/5 28/48/5 27/49/5
f 114/68/5 113/67/5 91/52/5 93/53/5
f 65/50/5 51/51/5 31/48/5 32/49/5
f 99/80/5 90/67/5 95/52/5 97/53/5
f 80/51/5 81/50/5 74/52/5 75/53/5
f 117/117/5 107/67/5 100/52/5 102/53/5
f 83/64/6 82/63/6 77/52/6 76/53/6
f 60/55/6 58/54/6 37/48/6 38/49/6
f 116/79/6 47/78/6 120/75/6 39/66/6
f 72/50/6 73/51/6 44/48/6 45/49/6
f 110/70/6 108/80/6 119/65/6 36/66/6
f 118/51/6 50/50/6 62/52/6 64/53/6
f 107/67/5 117/117/5 18/118/5 23/66/5
f 17/75/5 99/80/5 34/119/5
f 89/70/6 106/69/6 21/120/6 43/66/6
f 115/70/6 111/69/6 22/75/6 42/66/6
f 114/68/5 33/119/5 20/65/5
f 17/75/5 30/66/5 90/67/5 99/80/5
f 18/118/5 117/117/5 24/119/5
f 112/77/5 26/119/5 19/75/5
f 119/65/6 108/80/6 109/122/6
f 120/75/6 47/78/6 48/119/6
f 22/75/6 111/69/6 46/119/6
f 21/120/6 106/69/6 85/119/6
f 10/19/4 27/18/4 28/123/4 11/124/4
f 11/124/4 28/123/4 29/125/4 20/126/4
f 11/19/3 32/18/3 31/123/3 2/124/3
f 2/124/3 31/123/3 30/125/3 17/126/3
f 2/19/2 35/18/2 78/127/2 4/124/2
f 4/124/2 78/127/2 23/125/2 18/126/2
f 4/19/1 52/18/1 25/123/1 10/124/1
f 10/124/1 25/123/1 105/125/1 19/126/1
f 13/128/1 21/126/1 85/129/1 38/130/1
f 37/23/1 7/22/1 13/128/1 38/130/1
f 7/128/2 119/131/2 109/132/2 79/133/2
f 40/26/2 6/22/2 7/128/2 79/133/2
f 6/128/3 120/131/3 48/134/3 49/135/3
f 41/28/3 15/22/3 6/128/3 49/135/3
f 15/128/4 22/126/4 46/125/4 45/123/4
f 44/30/4 13/22/4 15/128/4 45/123/4
f 128/12/5 11/11/5 2/15/5 126/4/5
f 126/4/5 2/15/5 4/13/5 124/14/5
f 125/14/6 6/13/6 15/10/6 127/9/6
f 121/12/6 13/11/6 7/15/6 123/16/6
usemtl cogwheel_2
f 48/32/6 47/33/6 50/34/6 49/35/6
f 51/36/5 90/37/5 30/38/5 31/39/5
f 105/81/5 25/82/5 59/83/5 104/84/5
f 60/85/6 38/86/6 85/87/6 106/88/6
f 57/34/5 52/35/5 24/32/5 117/90/5
f 109/91/6 108/37/6 82/92/6 79/39/6
f 58/36/6 110/37/6 36/38/6 37/39/6
f 29/97/5 28/98/5 70/99/5 113/100/5
f 72/101/6 45/102/6 46/103/6 111/104/6
f 71/101/5 27/102/5 26/103/5 112/104/5
f 43/106/6 44/107/6 73/99/6 89/100/6
f 65/85/5 32/86/5 33/87/5 114/88/5
f 42/81/6 41/82/6 118/83/6 115/84/6
f 83/111/6 116/112/6 39/113/6 40/114/6
f 34/38/5 99/115/5 81/36/5 35/39/5
f 80/111/5 107/121/5 23/113/5 78/114/5
