# Blender 5.2.1 LTS
# www.blender.org
mtllib textures.mtl
o block_bottom
v 0.000000 -0.000000 0.000000
v 0.000000 0.375000 0.000000
v 1.000000 -0.000000 0.000000
v 1.000000 0.375000 0.000000
v 0.000000 0.625000 1.000000
v 0.000000 0.625000 -0.000000
v 1.000000 0.625000 1.000000
v 1.000000 0.625000 -0.000000
v 0.000000 0.625000 -0.000000
v 0.000000 0.625000 1.000000
v 1.000000 0.375000 1.000000
v 1.000000 0.375000 0.000000
v 0.000000 1.000000 1.000000
v 0.000000 1.000000 -0.000000
v 0.000000 0.375000 0.000000
v 0.000000 0.375000 1.000000
v 0.125000 -0.000000 0.125000
v 0.125000 0.062500 0.125000
v 0.875000 -0.000000 0.125000
v 0.875000 0.062500 0.125000
v 0.000000 0.625000 -0.000000
v 0.000000 1.000000 -0.000000
v 1.000000 0.625000 -0.000000
v 1.000000 1.000000 -0.000000
v 0.000000 1.000000 1.000000
v 0.000000 1.000000 -0.000000
v 1.000000 1.000000 -0.000000
v 1.000000 1.000000 1.000000
v 1.000000 0.000000 1.000000
v 1.000000 -0.000000 0.000000
v 0.000000 -0.000000 0.000000
v 0.000000 0.000000 1.000000
v 0.875000 0.062500 0.875000
v 0.875000 0.000000 0.875000
v 0.125000 0.062500 0.875000
v 0.125000 0.000000 0.875000
v 1.000000 1.000000 1.000000
v 1.000000 0.625000 1.000000
v 0.000000 1.000000 1.000000
v 0.000000 0.625000 1.000000
v 1.000000 0.375000 1.000000
v 1.000000 0.000000 1.000000
v 0.000000 0.375000 1.000000
v 0.000000 0.000000 1.000000
v 1.000000 1.000000 1.000000
v 1.000000 1.000000 -0.000000
v 1.000000 0.625000 1.000000
v 1.000000 0.625000 -0.000000
v 1.000000 0.375000 1.000000
v 1.000000 0.375000 0.000000
v 1.000000 0.000000 1.000000
v 1.000000 -0.000000 0.000000
v 0.000000 0.375000 0.000000
v 0.000000 0.375000 1.000000
v 0.000000 -0.000000 0.000000
v 0.000000 0.000000 1.000000
vn -1.0000 -0.0000 -0.0000
vn -0.0000 -0.0000 -1.0000
vn -0.0000 -0.0000 1.0000
vn 1.0000 -0.0000 -0.0000
vn -0.0000 -1.0000 -0.0000
vn -0.0000 1.0000 -0.0000
vt 0.000000 0.000000
vt 1.000000 0.000000
vt 1.000000 0.375000
vt 0.000000 0.375000
vt 0.000000 0.625000
vt 1.000000 0.625000
vt 1.000000 1.000000
vt 0.000000 1.000000
vt 0.125000 0.937500
vt 0.875000 0.937500
vt 0.875000 1.000000
vt 0.125000 1.000000
vt 0.875000 0.125000
vt 0.125000 0.125000
vt 0.125000 0.875000
vt 0.875000 0.875000
vt 0.125000 0.375000
vt 0.000000 0.250000
vt 1.000000 0.250000
vt 0.875000 0.375000
vt 0.000000 0.750000
vt 0.125000 0.625000
vt 0.875000 0.625000
vt 1.000000 0.750000
vt 0.125000 0.125000
vt 0.125000 0.875000
s 0
g up
usemtl casing
f 25/1/6 28/2/6 27/7/6 26/8/6
g north
usemtl side_1
f 23/5/2 21/6/2 22/7/2 24/8/2
g south
f 40/5/3 38/6/3 37/7/3 39/8/3
g east
f 47/5/4 48/6/4 46/7/4 45/8/4
g west
f 6/5/1 5/6/1 13/7/1 14/8/1
usemtl side_2
f 55/1/1 56/2/1 54/3/1 53/4/1
g north
f 3/1/2 1/2/2 2/3/2 4/4/2
g south
f 44/1/3 42/2/3 41/3/3 43/4/3
g east
f 51/1/4 52/2/4 50/3/4 49/4/4
g down
usemtl encased_border_1
f 31/1/5 30/2/5 19/13/5 17/14/5
f 32/8/5 36/15/5 34/16/5 29/7/5
f 19/17/5 30/18/5 29/19/5 34/20/5
f 31/21/5 17/22/5 36/23/5 32/24/5
usemtl encased_border_2
f 17/9/3 19/10/3 20/11/3 18/12/3
f 19/9/1 34/10/1 33/11/1 20/12/1
f 36/9/4 17/10/4 18/11/4 35/12/4
f 34/9/2 36/10/2 35/11/2 33/12/2
usemtl gearbox
f 18/25/5 20/13/5 33/16/5 35/26/5
g off
usemtl stripped_spruce_log_top
f 9/1/5 8/2/5 7/7/5 10/8/5
f 16/1/6 11/2/6 12/7/6 15/8/6
