# Blender 5.2.1 LTS
# www.blender.org
mtllib textures.mtl
o block_top
v 1.000000 1.000000 1.000000
v 1.000000 1.000000 -0.000000
v 1.000000 0.625000 1.000000
v 1.000000 0.625000 -0.000000
v 0.000000 1.000000 -0.000000
v 0.000000 1.000000 1.000000
v 0.000000 0.625000 -0.000000
v 0.000000 0.625000 1.000000
v 1.000000 0.375000 1.000000
v 1.000000 0.375000 0.000000
v 1.000000 0.000000 1.000000
v 1.000000 -0.000000 0.000000
v 0.000000 0.375000 0.000000
v 0.000000 0.375000 1.000000
v 0.000000 -0.000000 0.000000
v 0.000000 0.000000 1.000000
v 0.875000 1.000000 0.125000
v 0.875000 0.937500 0.125000
v 0.125000 1.000000 0.125000
v 0.125000 0.937500 0.125000
v 0.875000 1.000000 0.875000
v 0.875000 0.937500 0.875000
v 0.125000 1.000000 0.875000
v 0.125000 0.937500 0.875000
v 0.000000 0.625000 -0.000000
v 0.000000 1.000000 -0.000000
v 1.000000 0.625000 -0.000000
v 1.000000 1.000000 -0.000000
v 0.000000 0.000000 1.000000
v 0.000000 0.375000 1.000000
v 1.000000 0.000000 1.000000
v 1.000000 0.375000 1.000000
v 0.000000 0.625000 1.000000
v 0.000000 0.625000 -0.000000
v 0.000000 1.000000 1.000000
v 0.000000 1.000000 -0.000000
v 0.000000 0.625000 1.000000
v 0.000000 1.000000 1.000000
v 1.000000 0.625000 1.000000
v 1.000000 1.000000 1.000000
v 1.000000 -0.000000 0.000000
v 1.000000 0.000000 1.000000
v 1.000000 0.375000 0.000000
v 1.000000 0.375000 1.000000
v 1.000000 0.625000 -0.000000
v 1.000000 0.625000 1.000000
v 1.000000 1.000000 -0.000000
v 1.000000 1.000000 1.000000
v 0.000000 0.000000 1.000000
v 0.000000 -0.000000 0.000000
v 0.000000 0.375000 1.000000
v 0.000000 0.375000 0.000000
v 1.000000 0.375000 0.000000
v 1.000000 -0.000000 0.000000
v 0.000000 0.375000 0.000000
v 0.000000 -0.000000 0.000000
vn -1.0000 -0.0000 -0.0000
vn -0.0000 -0.0000 -1.0000
vn -0.0000 -0.0000 1.0000
vn 1.0000 -0.0000 -0.0000
vn -0.0000 -1.0000 -0.0000
vn -0.0000 1.0000 -0.0000
vt 0.000000 0.625000
vt 1.000000 0.625000
vt 1.000000 1.000000
vt 0.000000 1.000000
vt 0.000000 0.000000
vt 1.000000 0.000000
vt 1.000000 0.375000
vt 0.000000 0.375000
vt 0.125000 0.937500
vt 0.875000 0.937500
vt 0.875000 1.000000
vt 0.125000 1.000000
vt 0.125000 0.125000
vt 0.875000 0.125000
vt 0.875000 0.875000
vt 0.125000 0.875000
vt 0.000000 0.750000
vt 0.125000 0.625000
vt 0.875000 0.625000
vt 1.000000 0.750000
vt 0.125000 0.375000
vt 0.000000 0.250000
vt 1.000000 0.250000
vt 0.875000 0.375000
vt 0.125000 0.125000
vt 0.125000 0.875000
s 0
g down
usemtl casing
f 15/5/5 12/6/5 11/3/5 16/4/5
g north
usemtl side_1
f 54/5/2 56/6/2 55/7/2 53/8/2
g south
f 29/5/3 31/6/3 32/7/3 30/8/3
g east
f 42/5/4 41/6/4 43/7/4 44/8/4
g west
f 50/5/1 49/6/1 51/7/1 52/8/1
usemtl side_2
f 34/1/1 33/2/1 35/3/1 36/4/1
g north
f 27/1/2 25/2/2 26/3/2 28/4/2
g south
f 37/1/3 39/2/3 40/3/3 38/4/3
g east
f 46/1/4 45/2/4 47/3/4 48/4/4
g up
usemtl gearbox
f 24/13/6 22/14/6 18/15/6 20/16/6
usemtl encased_border_1
f 6/17/6 23/18/6 19/19/6 5/20/6
f 21/21/6 1/22/6 2/23/6 17/24/6
f 6/5/6 1/6/6 21/14/6 23/25/6
f 5/4/6 19/26/6 17/15/6 2/3/6
usemtl encased_border_2
f 20/9/3 18/10/3 17/11/3 19/12/3
f 22/9/2 24/10/2 23/11/2 21/12/2
f 24/9/1 20/10/1 19/11/1 23/12/1
f 18/9/1 22/10/1 21/11/1 17/12/1
g off
usemtl stripped_spruce_log_top
f 7/5/5 4/6/5 3/3/5 8/4/5
f 14/5/6 9/6/6 10/3/6 13/4/6
