# Blender 5.2.1 LTS
# www.blender.org
mtllib textures.mtl
o item
v 1.000000 1.000000 1.000000
v 0.937500 0.625000 0.937500
v 1.000000 1.000000 -0.000000
v 0.593750 0.592188 1.437500
v 1.000000 0.625000 1.000000
v 0.227848 0.592188 1.402014
v 1.000000 0.625000 -0.000000
v 0.937500 0.625000 1.062500
v 0.000000 1.000000 -0.000000
v 0.593750 0.592187 -0.437500
v 1.062500 0.625000 0.937500
v 0.000000 1.000000 1.000000
v 0.000000 0.625000 -0.000000
v 0.937500 0.625000 0.062500
v 1.437500 0.592188 0.593750
v 0.000000 0.625000 1.000000
v 1.000000 0.375000 1.000000
v 0.937500 0.375000 1.062500
v 0.593750 0.407813 1.437500
v 1.000000 0.375000 0.000000
v 1.000000 0.000000 1.000000
v 1.229204 0.592188 1.096621
v 1.000000 -0.000000 0.000000
v 1.062500 0.625000 0.062500
v 0.937500 0.625000 -0.062500
v 0.000000 0.375000 0.000000
v 1.437500 0.592188 0.406250
v 0.000000 0.375000 1.000000
v 0.593750 0.407812 -0.437500
v 0.000000 -0.000000 0.000000
v 0.000000 0.000000 1.000000
v 1.062500 0.375000 0.937500
v -0.096621 0.592187 -0.229204
v 0.062500 0.625000 1.062500
v 0.406250 0.592187 -0.437500
v 0.937500 0.375000 0.937500
v 1.437500 0.407813 0.593750
v 1.062500 0.375000 0.062500
v 0.406250 0.592188 1.437500
v 0.062500 0.375000 1.062500
v 0.406250 0.407812 -0.437500
v 0.937500 0.375000 0.062500
v 1.437500 0.407813 0.406250
v 0.937500 0.375000 -0.062500
v 0.406250 0.407813 1.437500
v 0.062500 0.625000 0.062500
v 1.229204 0.592187 -0.096621
v 0.062500 0.625000 -0.062500
v -0.062500 0.625000 0.062500
v 0.945379 0.592188 1.330261
v -0.437500 0.592188 0.406250
v 0.062500 0.625000 0.937500
v -0.437500 0.592188 0.593750
v 0.062500 0.375000 -0.062500
v 1.229204 0.407813 1.096621
v -0.062500 0.625000 0.937500
v 0.062500 0.375000 0.062500
v -0.096621 0.407812 -0.229204
v -0.062500 0.375000 0.062500
v -0.437500 0.407813 0.406250
v 0.062500 0.375000 0.937500
v 1.096621 0.592187 -0.229204
v -0.437500 0.407813 0.593750
v -0.062500 0.375000 0.937500
v -0.229204 0.592187 -0.096621
v 0.227848 0.592187 -0.402014
v 1.229204 0.407812 -0.096621
v 1.096621 0.592188 1.229204
v -0.229204 0.407812 -0.096621
v 1.330261 0.592188 0.945379
v 1.096621 0.407812 -0.229204
v 1.096621 0.407813 1.229204
v -0.229204 0.592188 1.096621
v 1.402014 0.592188 0.227848
v -0.096621 0.592188 1.229204
v 0.945379 0.407813 1.330261
v 1.402014 0.592188 0.772152
v -0.229204 0.407813 1.096621
v 0.227848 0.407812 -0.402014
v -0.096621 0.407813 1.229204
v 0.945379 0.592187 -0.330261
v 0.054621 0.592187 -0.330261
v 0.772152 0.592188 1.402014
v 1.330261 0.407813 0.945379
v 1.330261 0.592187 0.054621
v 0.054621 0.407812 -0.330261
v 1.402014 0.407813 0.772152
v 0.772152 0.407813 1.402014
v -0.330261 0.592187 0.054621
v 0.227848 0.407813 1.402014
v 1.402014 0.407812 0.227848
v -0.402014 0.592188 0.227848
v 0.945379 0.407812 -0.330261
v -0.330261 0.407812 0.054621
v -0.402014 0.407812 0.227848
v 1.330261 0.407812 0.054621
v 0.772152 0.592187 -0.402014
v -0.402014 0.592188 0.772152
v 0.054621 0.592188 1.330261
v -0.330261 0.592188 0.945379
v 0.772152 0.407812 -0.402014
v -0.402014 0.407813 0.772152
v 0.054621 0.407813 1.330261
v -0.330261 0.407813 0.945379
v 0.860358 0.407812 -0.125000
v 0.860358 0.592187 -0.125000
v 0.342591 0.592188 1.125000
v 0.342591 0.407813 1.125000
v 0.139642 0.592188 1.125000
v 0.139642 0.407813 1.125000
v 0.657409 0.407812 -0.125000
v 0.657409 0.592187 -0.125000
v -0.125000 0.592188 0.657409
v -0.125000 0.407813 0.657409
v 1.125000 0.592188 0.139642
v 1.125000 0.407812 0.139642
v 1.125000 0.592188 0.342591
v 1.125000 0.407813 0.342591
v -0.125000 0.407813 0.860358
v -0.125000 0.592188 0.860358
v -0.125000 0.592188 0.139642
v -0.125000 0.407812 0.139642
v 1.125000 0.592188 0.657409
v 1.125000 0.407813 0.657409
v 1.125000 0.592188 0.860358
v 1.125000 0.407813 0.860358
v -0.125000 0.407813 0.342591
v -0.125000 0.592188 0.342591
v 0.342591 0.407812 -0.125000
v 0.342591 0.592187 -0.125000
v 0.860358 0.592188 1.125000
v 0.860358 0.407813 1.125000
v 0.657409 0.407813 1.125000
v 0.657409 0.592188 1.125000
v 0.139642 0.407812 -0.125000
v 0.139642 0.592187 -0.125000
v -0.125000 0.407813 0.992417
v -0.125000 0.592188 0.992417
v 0.992417 0.407812 -0.125000
v 0.992417 0.592187 -0.125000
v 1.125000 0.407812 0.007583
v 1.125000 0.592187 0.007582
v 0.007583 0.407813 1.125000
v 0.007583 0.592188 1.125000
v 0.007583 0.407812 -0.125000
v 0.007583 0.592187 -0.125000
v 1.125000 0.407813 0.992417
v 1.125000 0.592188 0.992417
v 0.992417 0.407813 1.125000
v 0.992417 0.592188 1.125000
v -0.125000 0.592187 0.007582
v -0.125000 0.407812 0.007583
v -0.125000 0.407813 0.406250
v -0.125000 0.592188 0.406250
v 1.125000 0.407813 0.406250
v 1.125000 0.592188 0.406250
v 1.125000 0.407813 0.593750
v 1.125000 0.592188 0.593750
v -0.125000 0.592188 0.593750
v -0.125000 0.407813 0.593750
v 0.593750 0.407812 -0.125000
v 0.593750 0.592187 -0.125000
v 0.593750 0.592188 1.125000
v 0.593750 0.407813 1.125000
v 0.406250 0.592188 1.125000
v 0.406250 0.407813 1.125000
v 0.406250 0.407812 -0.125000
v 0.406250 0.592187 -0.125000
v 0.312870 0.592188 1.196753
v 0.312870 0.407813 1.196753
v 0.687130 0.407812 -0.196753
v 0.687130 0.592187 -0.196753
v -0.196753 0.592188 0.687130
v -0.196753 0.407813 0.687130
v 1.196753 0.592188 0.312870
v 1.196753 0.407813 0.312870
v 1.196753 0.407813 0.687130
v 1.196753 0.592188 0.687130
v -0.196753 0.407813 0.312870
v -0.196753 0.592188 0.312870
v 0.312870 0.407812 -0.196753
v 0.312870 0.592187 -0.196753
v 0.687130 0.407813 1.196753
v 0.687130 0.592188 1.196753
v -0.290133 0.407813 0.406250
v -0.290133 0.592188 0.406250
v 1.290133 0.592188 0.406250
v 1.290133 0.407813 0.406250
v 1.290133 0.592188 0.593750
v 1.290133 0.407813 0.593750
v -0.290133 0.592188 0.593750
v -0.290133 0.407813 0.593750
v 0.593750 0.407812 -0.290134
v 0.593750 0.592187 -0.290134
v 0.593750 0.592188 1.290133
v 0.593750 0.407813 1.290133
v 0.406250 0.592188 1.290133
v 0.406250 0.407813 1.290133
v 0.406250 0.407812 -0.290134
v 0.406250 0.592187 -0.290134
v -0.062500 0.407812 0.062500
v -0.062500 0.592187 0.062500
v 0.062500 0.407812 0.062500
v 0.062500 0.592187 0.062500
v 0.062500 0.407813 0.937500
v 0.062500 0.592188 0.937500
v -0.062500 0.407813 0.937500
v -0.062500 0.592188 0.937500
v -0.062500 0.407813 0.368479
v -0.062500 0.407813 0.406250
v -0.062500 0.407813 0.593750
v -0.062500 0.407813 0.631521
v -0.062500 0.592188 0.929917
v -0.062500 0.592188 0.834469
v -0.062500 0.407813 0.834469
v -0.062500 0.407813 0.929917
v -0.062500 0.407812 0.070083
v -0.062500 0.407812 0.165531
v -0.062500 0.592188 0.165531
v -0.062500 0.592187 0.070082
v -0.062500 0.592188 0.631521
v -0.062500 0.592188 0.368479
v -0.062500 0.592188 0.406250
v -0.062500 0.592188 0.593750
v 0.062500 0.407812 -0.062500
v 0.070083 0.407812 -0.062500
v 0.062500 0.592187 -0.062500
v 0.070083 0.592187 -0.062500
v 0.165531 0.407812 -0.062500
v 0.165531 0.592187 -0.062500
v 0.631521 0.407812 -0.062500
v 0.593750 0.407812 -0.062500
v 0.406250 0.407812 -0.062500
v 0.368479 0.407812 -0.062500
v 0.368479 0.592187 -0.062500
v 0.406250 0.592187 -0.062500
v 0.834469 0.592187 -0.062500
v 0.834469 0.407812 -0.062500
v 0.929917 0.407812 -0.062500
v 0.929917 0.592187 -0.062500
v 0.937500 0.407812 -0.062500
v 0.937500 0.592187 -0.062500
v 0.593750 0.592187 -0.062500
v 0.631521 0.592187 -0.062500
v 0.937500 0.407812 0.062500
v 0.937500 0.592187 0.062500
v 1.062500 0.407812 0.062500
v 1.062500 0.592187 0.062500
v 1.062500 0.407812 0.070083
v 1.062500 0.407812 0.165531
v 1.062500 0.407813 0.368479
v 1.062500 0.407813 0.406250
v 1.062500 0.592188 0.165531
v 1.062500 0.592187 0.070082
v 1.062500 0.407813 0.631521
v 1.062500 0.407813 0.593750
v 1.062500 0.407813 0.834469
v 1.062500 0.407813 0.929917
v 1.062500 0.592188 0.368479
v 1.062500 0.592188 0.406250
v 1.062500 0.407813 0.937500
v 1.062500 0.592188 0.834469
v 1.062500 0.592188 0.929917
v 1.062500 0.592188 0.937500
v 1.062500 0.592188 0.593750
v 1.062500 0.592188 0.631521
v 0.937500 0.407813 0.937500
v 0.937500 0.592188 0.937500
v 0.937500 0.407813 1.062500
v 0.937500 0.592188 1.062500
v 0.406250 0.407813 1.062500
v 0.368479 0.407813 1.062500
v 0.834469 0.407813 1.062500
v 0.834469 0.592188 1.062500
v 0.929917 0.407813 1.062500
v 0.929917 0.592188 1.062500
v 0.593750 0.407813 1.062500
v 0.631521 0.407813 1.062500
v 0.062500 0.407813 1.062500
v 0.070083 0.407813 1.062500
v 0.062500 0.592188 1.062500
v 0.070083 0.592188 1.062500
v 0.165531 0.592188 1.062500
v 0.165531 0.407813 1.062500
v 0.631521 0.592188 1.062500
v 0.593750 0.592188 1.062500
v 0.406250 0.592188 1.062500
v 0.368479 0.592188 1.062500
v 0.062500 0.625000 -0.000000
v 0.937500 0.625000 -0.000000
v 1.000000 0.625000 0.937500
v 1.000000 0.625000 0.062500
v 0.937500 0.625000 1.000000
v 0.062500 0.625000 1.000000
v 0.000000 0.625000 0.937500
v 0.000000 0.625000 0.062500
v 0.937500 0.375000 0.000000
v 0.062500 0.375000 0.000000
v 1.000000 0.375000 0.062500
v 1.000000 0.375000 0.937500
v 0.062500 0.375000 1.000000
v 0.937500 0.375000 1.000000
v 0.000000 0.375000 0.062500
v 0.000000 0.375000 0.937500
vn -0.0000 -0.0000 -1.0000
vn 1.0000 -0.0000 -0.0000
vn -0.0000 -0.0000 1.0000
vn -1.0000 -0.0000 -0.0000
vn -0.0000 1.0000 -0.0000
vn -0.0000 -1.0000 -0.0000
vn 0.3827 -0.0000 -0.9239
vn 0.9239 -0.0000 0.3827
vn -0.3827 -0.0000 0.9239
vn -0.9239 -0.0000 -0.3827
vn -0.3827 -0.0000 -0.9239
vn 0.9239 -0.0000 -0.3827
vn 0.3827 -0.0000 0.9239
vn -0.9239 -0.0000 0.3827
vn -0.7071 -0.0000 -0.7071
vn 0.7071 -0.0000 -0.7071
vn 0.7071 -0.0000 0.7071
vn -0.7071 -0.0000 0.7071
vt 0.000000 1.000000
vt 0.000000 0.625000
vt 0.062500 0.625000
vt 1.000000 1.000000
vt 0.937500 0.625000
vt 1.000000 0.625000
vt 0.000000 0.000000
vt 1.000000 0.000000
vt 0.937500 0.062500
vt 0.937500 0.000000
vt 1.000000 0.062500
vt 1.000000 0.937500
vt 0.937500 1.000000
vt 0.937500 0.937500
vt 0.062500 0.937500
vt 0.062500 1.000000
vt 0.000000 0.937500
vt 0.000000 0.062500
vt 0.062500 0.000000
vt 0.062500 0.062500
vt 0.062500 0.375000
vt 0.000000 0.375000
vt 0.937500 0.375000
vt 1.000000 0.375000
vt 0.625000 0.937500
vt 0.633203 0.937500
vt 0.625000 0.968750
vt 0.679297 1.000000
vt 0.679297 0.937500
vt 0.687500 0.968750
vt 0.687500 1.000000
vt 0.625000 0.593750
vt 0.625000 0.562500
vt 0.633203 0.562500
vt 0.633203 0.625000
vt 0.687500 0.593750
vt 0.679297 0.625000
vt 0.679297 0.562500
vt 0.687500 0.562500
vt 0.633203 0.996209
vt 0.633203 1.000000
vt 0.625000 1.000000
vt 0.633203 0.948485
vt 0.679297 0.614015
vt 0.679297 0.566291
vt 0.781250 0.562500
vt 0.812500 0.562500
vt 0.812500 1.000000
vt 0.781250 1.000000
vt 0.843750 0.562500
vt 0.875000 0.562500
vt 0.875000 1.000000
vt 0.843750 1.000000
vt 0.625000 1.000000
vt 0.625000 0.625000
vt 1.000000 0.562500
vt 0.968750 1.000000
vt 0.968750 0.562500
vt 0.906250 0.562500
vt 0.937500 0.562500
vt 0.906250 1.000000
vt 0.625000 0.312500
vt 0.718750 0.312500
vt 0.718750 0.406250
vt 0.625000 0.406250
vt 0.826414 0.093750
vt 0.937500 0.093750
vt 0.937500 0.187500
vt 0.826414 0.187500
vt 0.111086 0.187500
vt 0.000000 0.187500
vt 0.000000 0.093750
vt 0.111086 0.093750
vt 0.937500 0.187500
vt 0.111086 0.187500
vt 0.115197 0.278569
vt 0.115197 0.190181
vt 0.159391 0.234375
vt 0.937500 0.281250
vt 0.826414 0.281250
vt 0.718750 0.406250
vt 0.183743 0.187500
vt 0.144911 0.281250
vt 0.149919 0.187500
vt 0.863817 0.187500
vt 0.863817 0.281250
vt 0.111086 0.281250
vt 0.187500 0.187500
vt 0.187500 0.281250
vt 0.156250 0.281250
vt 0.156250 0.187500
vt 0.792589 0.281250
vt 0.787581 0.187500
vt 0.000000 0.281250
vt 0.144911 0.187500
vt 0.149919 0.281250
vt 0.863817 0.093750
vt 0.073683 0.187500
vt 0.073683 0.093750
vt 0.073683 0.187500
vt 0.822303 0.190181
vt 0.819623 0.187500
vt 0.822303 0.278569
vt 0.778109 0.234375
vt 0.558709 1.000000
vt 0.492679 1.000000
vt 0.479735 0.968750
vt 0.527459 0.968750
vt 0.117877 0.281250
vt 0.073683 0.281250
vt 0.750000 0.281250
vt 0.750000 0.187500
vt 0.781250 0.187500
vt 0.781250 0.281250
vt 0.787581 0.281250
vt 0.792589 0.187500
vt 0.753757 0.281250
vt 0.066291 0.281250
vt 0.132321 0.281250
vt 0.132321 0.375000
vt 0.066291 0.375000
vt 0.558709 0.375000
vt 0.492679 0.375000
vt 0.492679 0.281250
vt 0.558709 0.281250
vt 0.132321 0.375000
vt 0.558709 0.375000
vt 0.233795 0.375000
vt 0.265625 0.375000
vt 0.265625 0.406250
vt 0.246740 0.406250
vt 0.031250 0.520265
vt 0.000000 0.507321
vt 0.000000 0.441291
vt 0.031250 0.472541
vt 0.378260 0.406250
vt 0.359375 0.406250
vt 0.359375 0.375000
vt 0.391205 0.375000
vt 0.479735 0.406250
vt 0.527459 0.406250
vt 0.625000 0.734375
vt 0.625000 0.766205
vt 0.593750 0.753260
vt 0.593750 0.734375
vt 0.593750 0.621740
vt 0.625000 0.608795
vt 0.625000 0.640625
vt 0.593750 0.640625
vt 0.145265 0.406250
vt 0.097541 0.406250
vt 0.593750 0.472541
vt 0.625000 0.441291
vt 0.625000 0.507321
vt 0.593750 0.520265
vt 0.000000 0.933709
vt 0.000000 0.867679
vt 0.031250 0.854735
vt 0.031250 0.902459
vt 0.145265 0.968750
vt 0.132321 1.000000
vt 0.066291 1.000000
vt 0.097541 0.968750
vt 0.000000 0.734375
vt 0.031250 0.734375
vt 0.031250 0.753260
vt 0.000000 0.766205
vt 0.031250 0.640625
vt 0.000000 0.640625
vt 0.000000 0.608795
vt 0.031250 0.621740
vt 0.265625 1.000000
vt 0.233795 1.000000
vt 0.246740 0.968750
vt 0.265625 0.968750
vt 0.391205 1.000000
vt 0.359375 1.000000
vt 0.359375 0.968750
vt 0.378260 0.968750
vt 0.625000 0.867679
vt 0.625000 0.933709
vt 0.593750 0.902459
vt 0.593750 0.854735
vt 0.566616 0.875325
vt 0.589123 0.852818
vt 0.147182 0.410877
vt 0.124675 0.433383
vt 0.566616 0.499675
vt 0.589123 0.522182
vt 0.500325 0.433384
vt 0.477818 0.410877
vt 0.058384 0.875325
vt 0.035877 0.852818
vt 0.124675 0.941617
vt 0.147182 0.964123
vt 0.477818 0.964123
vt 0.500325 0.941616
vt 0.058384 0.499675
vt 0.035877 0.522182
vt 0.753756 0.187500
vt 0.819623 0.281250
vt 0.753757 0.187500
vt 0.183743 0.281250
vt 0.117877 0.187500
vt 0.822304 0.190181
vt 0.183744 0.281250
vt 0.633203 0.566291
vt 0.633203 0.614015
vt 0.633203 0.715490
vt 0.633203 0.734375
vt 0.633203 0.828125
vt 0.633203 0.847010
vt 0.679297 0.948485
vt 0.679297 0.847010
vt 0.679297 0.828125
vt 0.679297 0.996209
vt 0.679297 0.734375
vt 0.679297 0.715490
vt 0.687500 0.625000
vt 0.687500 0.937500
s 0
usemtl side_1
f 3/1/1 7/2/1 290/3/1 9/4/1
f 292/5/2 7/6/2 3/4/2 291/3/2
f 293/5/3 5/6/3 1/4/3 294/3/3
f 12/4/4 296/3/4 295/5/4 16/6/4
f 297/21/1 20/22/1 23/7/1 298/23/1
f 300/21/2 17/22/2 21/7/2 299/23/2
f 31/7/3 302/23/3 301/21/3 28/22/3
f 31/8/4 28/24/4 304/23/4 30/7/4
f 294/3/3 1/4/3 12/1/3 16/2/3
f 291/3/2 3/4/2 1/1/2 5/2/2
f 289/5/1 13/6/1 9/4/1 290/3/1
f 296/3/4 12/4/4 9/1/4 13/2/4
f 298/23/1 23/7/1 30/8/1 26/24/1
f 299/23/2 21/7/2 23/8/2 20/24/2
f 302/23/3 31/7/3 21/8/3 17/24/3
f 303/21/4 26/22/4 30/7/4 304/23/4
usemtl casing
f 12/7/5 1/8/5 3/4/5 9/1/5
f 30/7/6 23/8/6 21/4/6 31/1/6
usemtl stripped_spruce_log_top
f 14/9/6 290/10/6 7/8/6 292/11/6
f 291/12/6 5/4/6 293/13/6 2/14/6
f 52/15/6 294/16/6 16/1/6 295/17/6
f 296/18/6 13/7/6 289/19/6 46/20/6
f 20/4/5 297/13/5 42/14/5 299/12/5
f 300/11/5 36/9/5 302/10/5 17/8/5
f 298/16/5 26/1/5 303/17/5 57/15/5
f 28/7/5 301/19/5 61/20/5 304/18/5
usemtl large_cogwheel
f 46/25/1 204/26/1 296/27/1
f 201/28/1 203/29/1 303/30/1 59/31/1
f 295/32/3 56/33/3 208/34/3 206/35/3
f 304/36/3 205/37/3 207/38/3 64/39/3
f 213/40/4 208/41/4 56/42/4 214/43/4
f 59/39/4 218/44/4 217/45/4 201/38/4
f 296/46/5 49/47/5 56/48/5 295/49/5
f 304/50/6 64/51/6 59/52/6 303/53/6
f 228/40/1 227/41/1 48/54/1 230/43/1
f 44/39/1 238/44/1 239/45/1 241/38/1
f 290/27/2 246/26/2 242/41/2 25/54/2
f 297/30/2 44/31/2 241/28/2 245/29/2
f 204/35/4 46/55/4 289/32/4
f 225/38/4 54/39/4 298/36/4 203/37/4
f 25/51/5 48/52/5 289/53/5 290/50/5
f 298/46/6 54/47/6 44/48/6 297/49/6
f 248/34/1 246/35/1 292/32/1 24/33/1
f 247/38/1 38/39/1 299/36/1 245/37/1
f 254/40/2 248/41/2 24/42/2 253/43/2
f 32/39/2 257/44/2 258/45/2 261/38/2
f 291/27/3 268/26/3 264/41/3 11/54/3
f 300/30/3 32/31/3 261/28/3 267/29/3
f 11/56/5 24/4/5 292/57/5 291/58/5
f 299/59/6 38/60/6 32/13/6 300/61/6
f 293/32/2 8/33/2 270/34/2 268/35/2
f 302/36/2 267/37/2 269/38/2 18/39/2
f 276/40/3 270/41/3 8/42/3 274/43/3
f 280/45/3 279/38/3 40/39/3 284/44/3
f 281/41/4 34/54/4 294/27/4 206/26/4
f 279/28/4 205/29/4 301/30/4 40/31/4
f 34/60/5 8/13/5 293/61/5 294/59/5
f 302/58/6 18/56/6 40/4/6 301/57/6
f 93/62/7 101/63/7 97/64/7 81/65/7
f 105/66/8 93/67/8 81/68/8 106/69/8
f 169/70/8 6/71/8 90/72/8 170/73/8
f 103/62/9 90/63/9 6/64/9 99/65/9
f 103/67/10 99/74/10 109/69/10 110/66/10
f 97/71/10 101/72/10 171/73/10 172/75/10
f 279/76/6 207/77/6 205/78/6
f 135/69/6 86/74/6 79/79/6 181/80/6
f 102/67/11 98/68/11 173/69/11 174/66/11
f 85/71/11 96/72/11 116/73/11 115/75/11
f 91/62/12 96/63/12 85/81/12 74/65/12
f 91/67/13 74/74/13 175/69/13 176/66/13
f 100/71/13 104/72/13 119/73/13 120/75/13
f 102/62/14 104/63/14 100/81/14 98/65/14
f 278/82/6 273/83/6 133/84/6
f 94/67/7 89/68/7 121/69/7 122/66/7
f 178/70/7 77/71/7 87/72/7 177/73/7
f 84/62/8 87/63/8 77/81/8 70/65/8
f 84/67/9 70/74/9 125/69/9 126/66/9
f 92/71/9 95/72/9 179/73/9 180/75/9
f 94/62/10 95/63/10 92/64/10 89/65/10
f 197/85/5 39/74/5 4/79/5 195/86/5
f 119/87/6 174/75/6 114/84/6 215/83/6
f 224/88/5 223/89/5 154/90/5 159/91/5
f 79/62/11 86/63/11 82/64/11 66/65/11
f 181/66/12 79/67/12 66/68/12 182/69/12
f 131/70/12 50/71/12 76/72/12 132/73/12
f 88/62/13 76/63/13 50/64/13 83/65/13
f 88/67/14 83/74/14 184/69/14 183/66/14
f 82/71/14 86/72/14 135/73/14 136/75/14
f 177/69/6 126/80/6 257/92/6 124/93/6
f 66/94/5 82/71/5 136/75/5 182/87/5
f 173/87/5 120/75/5 214/95/5 113/96/5
f 236/88/5 243/89/5 162/90/5 168/91/5
f 137/97/15 78/67/15 73/68/15 138/85/15
f 140/98/15 62/71/15 71/72/15 139/99/15
f 67/62/16 71/63/16 62/81/16 47/65/16
f 67/67/17 47/74/17 142/85/17 141/97/17
f 75/71/17 80/72/17 143/99/17 144/100/17
f 78/62/18 80/63/18 75/81/18 73/65/18
f 270/101/5 276/102/5 150/85/5 264/103/5
f 241/101/6 247/103/6 245/104/6
f 140/105/5 106/106/5 237/107/5 240/108/5
f 179/87/6 122/75/6 218/95/6 127/96/6
f 58/62/15 69/63/15 65/81/15 33/65/15
f 145/97/16 58/67/16 33/68/16 146/85/16
f 148/98/16 22/71/16 55/72/16 147/99/16
f 72/62/17 55/63/17 22/81/17 68/65/17
f 72/67/18 68/74/18 150/85/18 149/97/18
f 151/98/18 65/71/18 69/72/18 152/99/18
f 261/76/6 269/77/6 267/78/6
f 175/69/5 115/80/5 253/92/5 117/93/5
f 208/76/5 213/109/5 138/110/5 281/77/5
f 256/111/6 252/112/6 155/113/6 157/114/6
f 125/69/5 178/80/5 123/115/5 262/116/5
f 185/97/1 60/67/1 51/68/1 186/85/1
f 27/71/1 43/72/1 188/99/1 187/100/1
f 37/62/2 43/63/2 27/64/2 15/65/2
f 190/97/3 37/67/3 15/74/3 189/85/3
f 191/98/3 53/71/3 63/72/3 192/99/3
f 60/62/4 63/63/4 53/64/4 51/65/4
f 189/85/5 187/86/5 156/114/5 158/113/5
f 227/76/5 202/77/5 204/78/5
f 248/101/5 254/102/5 142/85/5 242/103/5
f 192/110/6 185/100/6 153/91/6 160/90/6
f 251/117/6 250/116/6 118/115/6
f 29/62/1 41/63/1 35/64/1 10/65/1
f 193/97/2 29/67/2 10/68/2 194/85/2
f 195/98/2 4/71/2 19/72/2 196/99/2
f 45/62/3 19/63/3 4/64/3 39/65/3
f 198/97/4 45/67/4 39/74/4 197/85/4
f 35/71/4 41/72/4 199/99/4 200/100/4
f 271/88/6 277/89/6 164/90/6 166/91/6
f 199/85/6 193/86/6 161/114/6 167/113/6
f 131/80/5 274/92/5 134/93/5 184/69/5
f 152/85/6 69/74/6 58/79/6 145/86/6
f 139/118/1 105/119/1 106/120/1 140/121/1
f 146/122/1 136/123/1 135/124/1 145/125/1
f 147/118/2 126/119/2 125/120/2 148/121/2
f 142/122/2 115/123/2 116/124/2 141/125/2
f 110/119/3 109/126/3 144/121/3 143/118/3
f 131/123/3 132/124/3 149/125/3 150/127/3
f 122/119/4 121/120/4 151/121/4 152/118/4
f 120/123/4 119/124/4 137/125/4 138/127/4
f 107/128/5 165/129/5 287/130/5 288/131/5
f 214/132/5 120/133/5 138/134/5 213/135/5
f 285/136/5 286/137/5 163/138/5 134/139/5
f 274/140/5 131/123/5 150/127/5 276/141/5
f 156/142/5 117/143/5 259/144/5 260/145/5
f 266/146/5 123/147/5 158/148/5 265/149/5
f 144/121/5 109/126/5 283/150/5 282/151/5
f 263/152/5 148/153/5 125/154/5 262/155/5
f 151/156/5 121/157/5 219/158/5 220/159/5
f 230/160/5 136/161/5 146/162/5 228/163/5
f 154/164/5 223/165/5 222/166/5 128/167/5
f 224/168/5 159/169/5 113/170/5 221/171/5
f 168/172/5 130/173/5 235/174/5 236/175/5
f 105/123/6 139/127/6 239/141/6 238/140/6
f 112/176/5 162/177/5 243/178/5 244/179/5
f 115/180/5 142/181/5 254/182/5 253/183/5
f 234/131/6 129/128/6 167/129/6 233/130/6
f 232/137/6 161/138/6 111/139/6 231/136/6
f 126/180/6 147/181/6 258/182/6 257/183/6
f 118/147/6 155/148/6 252/149/6 251/146/6
f 157/142/6 124/143/6 255/144/6 256/145/6
f 275/108/6 149/105/6 132/106/6 273/107/6
f 141/153/6 116/154/6 250/155/6 249/152/6
f 218/132/6 122/133/6 152/134/6 217/135/6
f 226/151/6 145/121/6 135/126/6 229/150/6
f 209/171/6 210/168/6 153/169/6 127/170/6
f 114/167/6 160/164/6 211/165/6 212/166/6
f 271/175/6 166/172/6 108/173/6 272/174/6
f 137/156/6 119/157/6 215/158/6 216/159/6
f 164/177/6 277/178/6 278/179/6 133/176/6
f 284/160/6 110/161/6 143/162/6 280/163/6
f 171/69/6 105/80/6 238/92/6 111/93/6
f 170/87/6 110/75/6 284/95/6 108/96/6
f 222/82/5 219/83/5 128/84/5
f 181/119/15 182/120/15 200/121/15 199/118/15
f 180/123/15 179/124/15 185/125/15 186/127/15
f 188/118/16 176/119/16 175/120/16 187/121/16
f 172/123/16 171/124/16 193/125/16 194/127/16
f 196/118/17 183/119/17 184/120/17 195/121/17
f 189/122/17 178/123/17 177/124/17 190/125/17
f 174/119/18 173/120/18 191/121/18 192/118/18
f 197/122/18 169/123/18 170/124/18 198/125/18
f 162/184/5 112/185/5 172/180/5 194/181/5
f 134/186/5 163/187/5 195/121/5 184/120/5
f 156/188/5 187/153/5 175/154/5 117/189/5
f 178/123/5 189/122/5 158/190/5 123/191/5
f 159/192/5 191/156/5 173/157/5 113/193/5
f 180/161/5 186/162/5 154/194/5 128/195/5
f 130/196/5 168/197/5 200/105/5 182/106/5
f 165/198/5 107/199/5 169/133/5 197/134/5
f 179/126/6 127/186/6 153/187/6 185/121/6
f 199/127/6 167/190/6 129/191/6 181/123/6
f 171/154/6 111/189/6 161/188/6 193/153/6
f 155/184/6 118/185/6 176/180/6 188/181/6
f 160/198/6 114/199/6 174/133/6 192/134/6
f 170/157/6 108/193/6 166/192/6 198/156/6
f 196/162/6 164/194/6 133/195/6 183/161/6
f 177/106/6 124/196/6 157/197/6 190/105/6
f 244/82/5 237/83/5 112/84/5
f 109/69/5 169/80/5 107/115/5 283/116/5
f 283/116/5 107/115/5 288/117/5
f 169/80/5 109/69/5 99/74/5 6/79/5
f 165/113/5 163/114/5 286/111/5 287/112/5
f 195/86/5 163/114/5 165/113/5 197/85/5
f 134/93/5 274/92/5 285/200/5
f 184/69/5 83/74/5 50/79/5 131/80/5
f 148/86/5 150/85/5 68/74/5 22/79/5
f 264/103/5 150/85/5 148/86/5 263/201/5
f 264/103/5 268/104/5 270/101/5
f 178/80/5 125/69/5 70/74/5 77/79/5
f 262/116/5 123/115/5 266/117/5
f 158/113/5 156/114/5 260/111/5 265/112/5
f 187/86/5 189/85/5 15/74/5 27/79/5
f 117/93/5 253/92/5 259/202/5
f 115/80/5 175/69/5 74/74/5 85/79/5
f 142/85/5 47/74/5 62/79/5 140/86/5
f 140/86/5 240/201/5 242/103/5 142/85/5
f 242/103/5 246/104/5 248/101/5
f 112/84/5 237/83/5 106/87/5 172/75/5
f 172/75/5 106/87/5 81/94/5 97/71/5
f 168/91/5 162/90/5 194/110/5 200/100/5
f 200/100/5 194/110/5 10/94/5 35/71/5
f 182/87/5 136/75/5 230/95/5 130/96/5
f 130/96/5 230/95/5 235/203/5
f 227/76/5 228/109/5 146/110/5 202/77/5
f 146/110/5 33/94/5 65/71/5 151/98/5
f 151/98/5 220/204/5 202/77/5 146/110/5
f 201/205/6 217/102/6 152/85/6 225/103/6
f 180/75/5 121/87/5 89/94/5 92/71/5
f 128/84/5 219/83/5 121/87/5 180/75/5
f 191/98/5 186/110/5 51/94/5 53/71/5
f 159/91/5 154/90/5 186/110/5 191/98/5
f 113/96/5 214/95/5 221/206/5
f 120/75/5 173/87/5 98/94/5 100/71/5
f 144/100/5 138/110/5 73/94/5 75/71/5
f 144/100/5 282/204/5 281/77/5 138/110/5
f 281/77/5 206/78/5 208/76/5
f 34/33/3 281/34/3 282/207/3 283/208/3
f 34/33/3 283/208/3 288/209/3 287/210/3
f 8/42/3 286/211/3 285/212/3 274/43/3
f 286/211/3 8/42/3 34/33/3 287/210/3
f 11/33/2 264/34/2 263/207/2 262/208/2
f 11/33/2 262/208/2 266/209/2 265/210/2
f 24/42/2 260/211/2 259/212/2 253/43/2
f 260/211/2 24/42/2 11/33/2 265/210/2
f 25/33/1 242/34/1 240/207/1 237/208/1
f 25/33/1 237/208/1 244/209/1 243/210/1
f 48/54/1 236/211/1 235/212/1 230/43/1
f 236/211/1 48/54/1 25/33/1 243/210/1
f 49/33/4 219/208/4 222/209/4 223/210/4
f 49/33/4 202/34/4 220/207/4 219/208/4
f 56/42/4 224/211/4 221/212/4 214/43/4
f 224/211/4 56/42/4 49/33/4 223/210/4
f 167/113/6 161/114/6 232/111/6 233/112/6
f 193/86/6 199/85/6 41/74/6 29/79/6
f 111/93/6 238/92/6 231/202/6
f 105/80/6 171/69/6 101/74/6 93/79/6
f 141/86/6 139/85/6 71/74/6 67/79/6
f 241/101/6 239/102/6 139/85/6 247/103/6
f 141/86/6 249/201/6 247/103/6 139/85/6
f 176/80/6 116/69/6 96/74/6 91/79/6
f 118/115/6 250/116/6 116/69/6 176/80/6
f 190/86/6 188/85/6 43/74/6 37/79/6
f 157/114/6 155/113/6 188/85/6 190/86/6
f 126/80/6 177/69/6 87/74/6 84/79/6
f 124/93/6 257/92/6 255/202/6
f 261/76/6 258/109/6 147/110/6 269/77/6
f 147/110/6 55/94/6 72/71/6 149/100/6
f 149/100/6 275/204/6 269/77/6 147/110/6
f 183/75/6 132/87/6 76/94/6 88/71/6
f 133/84/6 273/83/6 132/87/6 183/75/6
f 198/100/6 196/110/6 19/94/6 45/71/6
f 166/91/6 164/90/6 196/110/6 198/100/6
f 110/75/6 170/87/6 90/94/6 103/71/6
f 108/96/6 284/95/6 272/206/6
f 279/76/6 280/109/6 143/110/6 207/77/6
f 143/110/6 80/94/6 78/71/6 137/100/6
f 137/100/6 216/204/6 207/77/6 143/110/6
f 174/75/6 119/87/6 104/94/6 102/71/6
f 215/83/6 114/84/6 212/82/6
f 185/100/6 192/110/6 63/94/6 60/71/6
f 160/90/6 153/91/6 210/88/6 211/89/6
f 122/75/6 179/87/6 95/94/6 94/71/6
f 127/96/6 218/95/6 209/206/6
f 145/86/6 226/201/6 225/103/6 152/85/6
f 225/103/6 203/104/6 201/205/6
f 181/80/6 129/115/6 229/116/6 135/69/6
f 229/116/6 129/115/6 234/117/6
f 54/31/1 229/213/1 234/214/1 233/215/1
f 54/31/1 225/28/1 226/216/1 229/213/1
f 44/39/1 232/217/1 231/218/1 238/44/1
f 232/217/1 44/39/1 54/31/1 233/215/1
f 38/31/2 250/213/2 251/214/2 252/215/2
f 38/31/2 247/28/2 249/216/2 250/213/2
f 32/39/2 256/217/2 255/218/2 257/44/2
f 256/217/2 32/39/2 38/31/2 252/215/2
f 18/31/3 273/213/3 278/214/3 277/215/3
f 18/31/3 269/28/3 275/216/3 273/213/3
f 40/39/3 271/217/3 272/218/3 284/44/3
f 271/217/3 40/39/3 18/31/3 277/215/3
f 64/31/4 215/213/4 212/214/4 211/215/4
f 64/31/4 207/28/4 216/216/4 215/213/4
f 59/39/4 210/217/4 209/218/4 218/44/4
f 210/217/4 59/39/4 64/31/4 211/215/4
f 206/35/3 52/55/3 295/32/3
f 294/27/4 52/25/4 206/26/4
f 268/35/2 2/55/2 293/32/2
f 268/26/3 291/27/3 2/25/3
f 292/32/1 246/35/1 14/55/1
f 246/26/2 290/27/2 14/25/2
f 296/27/1 204/26/1 202/41/1 49/54/1
f 289/32/4 48/33/4 227/34/4 204/35/4
f 299/36/1 42/219/1 245/37/1
f 245/29/2 42/220/2 297/30/2
f 267/37/2 302/36/2 36/219/2
f 267/29/3 36/220/3 300/30/3
f 205/37/3 304/36/3 61/219/3
f 301/30/4 205/29/4 61/220/4
f 303/30/1 203/29/1 57/220/1
f 203/37/4 298/36/4 57/219/4
