# Blender 5.2.1 LTS
# www.blender.org
mtllib textures.mtl
o item
v 1.000000 1.000000 1.000000
v 0.625000 0.625000 1.000000
v 1.000000 1.000000 -0.000000
v 0.625000 0.625000 -0.000000
v 1.000000 0.000000 1.000000
v 0.625000 0.375000 1.000000
v 1.000000 -0.000000 0.000000
v 0.625000 0.375000 0.000000
v 0.000000 1.000000 -0.000000
v 0.375000 0.625000 -0.000000
v 0.000000 1.000000 1.000000
v 0.375000 0.625000 1.000000
v 0.000000 -0.000000 0.000000
v 0.375000 0.375000 0.000000
v 0.000000 0.000000 1.000000
v 0.375000 0.375000 1.000000
v 0.875000 0.875000 -0.000000
v 0.875000 0.875000 0.062500
v 0.875000 0.125000 0.000000
v 0.875000 0.125000 0.062500
v 0.125000 0.875000 0.062500
v 0.125000 0.875000 -0.000000
v 0.125000 0.125000 0.062500
v 0.125000 0.125000 0.000000
v 0.875000 0.875000 0.937500
v 0.875000 0.875000 1.000000
v 0.875000 0.125000 0.937500
v 0.875000 0.125000 1.000000
v 0.125000 0.875000 1.000000
v 0.125000 0.875000 0.937500
v 0.125000 0.125000 1.000000
v 0.125000 0.125000 0.937500
v 0.375000 0.375000 0.062500
v 0.625000 0.375000 0.062500
v 0.375000 0.625000 0.062500
v 0.625000 0.625000 0.062500
v 0.375000 0.375000 0.937500
v 0.625000 0.625000 0.937500
v 0.625000 0.375000 0.937500
v 0.375000 0.625000 0.937500
vn 1.0000 -0.0000 -0.0000
vn -1.0000 -0.0000 -0.0000
vn -0.0000 1.0000 -0.0000
vn -0.0000 -1.0000 -0.0000
vn -0.0000 -0.0000 -1.0000
vn -0.0000 -0.0000 1.0000
vt 0.000000 0.000000
vt 1.000000 0.000000
vt 1.000000 1.000000
vt 0.000000 1.000000
vt 0.125000 0.875000
vt 0.875000 0.875000
vt 0.875000 0.125000
vt 0.125000 0.125000
vt 0.000000 0.750000
vt 0.125000 0.625000
vt 0.875000 0.625000
vt 1.000000 0.750000
vt 0.125000 0.750000
vt 0.125000 0.687500
vt 0.875000 0.687500
vt 0.875000 0.750000
vt 0.125000 0.375000
vt 0.000000 0.250000
vt 1.000000 0.250000
vt 0.875000 0.375000
vt 0.125000 0.312500
vt 0.125000 0.250000
vt 0.875000 0.250000
vt 0.875000 0.312500
vt 0.125000 0.937500
vt 0.875000 0.937500
vt 0.875000 1.000000
vt 0.125000 1.000000
vt 0.125000 0.000000
vt 0.875000 0.000000
vt 0.875000 0.062500
vt 0.125000 0.062500
vt 0.125000 0.875000
vt 0.375000 0.625000
vt 0.625000 0.625000
vt 0.375000 0.375000
vt 0.125000 0.875000
vt 0.125000 0.125000
vt 0.625000 0.375000
vt 0.625000 0.625000
vt 0.375000 0.375000
vt 0.625000 0.375000
vt 0.625000 0.937500
vt 0.625000 1.000000
vt 0.375000 1.000000
vt 0.375000 0.937500
vt 0.375000 0.062500
vt 0.375000 0.000000
vt 0.625000 0.000000
vt 0.625000 0.062500
s 0
usemtl side
f 5/1/1 7/2/1 3/3/1 1/4/1
f 13/1/2 15/2/2 11/3/2 9/4/2
f 11/2/3 1/3/3 3/4/3 9/1/3
f 13/4/4 7/1/4 5/2/4 15/3/4
usemtl gearbox
f 21/6/5 18/33/5 36/34/5 35/35/5
f 36/34/5 18/33/5 20/8/5 34/36/5
f 27/7/6 25/6/6 38/35/6 39/39/6
f 30/33/6 32/8/6 37/36/6 40/34/6
f 38/35/6 25/6/6 30/33/6 40/34/6
f 37/36/6 32/8/6 27/7/6 39/39/6
f 33/39/5 23/7/5 21/6/5 35/35/5
f 34/36/5 20/8/5 23/7/5 33/39/5
usemtl encased_border_1
f 3/4/5 17/5/5 22/6/5 9/3/5
f 7/1/5 13/2/5 24/7/5 19/8/5
f 7/9/5 19/10/5 17/11/5 3/12/5
f 24/17/5 13/18/5 9/19/5 22/20/5
f 11/4/6 29/37/6 26/6/6 1/3/6
f 15/1/6 5/2/6 28/7/6 31/38/6
f 28/17/6 5/18/6 1/19/6 26/20/6
f 15/9/6 31/10/6 29/11/6 11/12/6
usemtl encased_border_2
f 19/13/2 20/14/2 18/15/2 17/16/2
f 23/21/1 24/22/1 22/23/1 21/24/1
f 23/25/3 20/26/3 19/27/3 24/28/3
f 22/29/4 17/30/4 18/31/4 21/32/4
f 27/21/2 28/22/2 26/23/2 25/24/2
f 31/13/1 32/14/1 30/15/1 29/16/1
f 31/29/3 28/30/3 27/31/3 32/32/3
f 30/25/4 25/26/4 26/27/4 29/28/4
usemtl axis_top
f 8/40/5 14/34/5 10/41/5 4/42/5
f 16/41/6 6/42/6 2/40/6 12/34/6
usemtl axis
f 34/43/1 8/44/1 4/45/1 36/46/1
f 38/47/1 2/48/1 6/49/1 39/50/1
f 37/47/2 16/48/2 12/49/2 40/50/2
f 10/44/2 14/45/2 33/46/2 35/43/2
f 4/44/3 10/45/3 35/46/3 36/43/3
f 40/47/3 12/48/3 2/49/3 38/50/3
f 39/47/4 6/48/4 16/49/4 37/50/4
f 33/43/4 14/44/4 8/45/4 34/46/4
