# Blender 5.2.1 LTS
# www.blender.org
mtllib item.mtl
o item
v 1.000000 0.625000 1.000000
v 0.635299 0.625000 0.826641
v 1.000000 0.625000 0.875000
v 0.826641 0.625000 0.364701
v 1.000000 0.375000 1.000000
v 0.635299 0.375000 0.826641
v 1.000000 0.375000 0.875000
v 0.826641 0.375000 0.364701
v 0.875000 0.625000 1.000000
v 0.364701 0.625000 0.173359
v 0.875000 0.375000 1.000000
v 0.173359 0.625000 0.635299
v 1.000000 0.375000 -0.000000
v 0.364701 0.375000 0.173359
v 0.173359 0.375000 0.635299
v 0.000000 0.000000 1.000000
v 0.000000 0.000000 0.000000
v 0.635299 0.593750 0.826641
v 0.000000 0.375000 -0.000000
v 0.826641 0.593750 0.364701
v 0.364701 0.593750 0.173359
v 0.000000 0.375000 1.000000
v 0.173359 0.593750 0.635299
v 0.003906 0.375000 0.003125
v 0.364701 0.406250 0.173359
v 0.003906 0.375000 0.127344
v 0.125000 0.625000 -0.000000
v 0.173359 0.406250 0.635299
v 0.125000 0.375000 -0.000000
v 0.775904 0.593750 0.487191
v 0.000000 0.625000 -0.000000
v 0.704150 0.593750 0.313964
v 0.000000 0.625000 0.125000
v 0.509057 0.593750 0.233154
v 0.313964 0.593750 0.295849
v 0.000000 0.375000 0.125000
v 0.304907 0.593750 0.317715
v 0.233154 0.593750 0.490943
v 0.224097 0.593750 0.512808
v 1.000000 0.625000 -0.000000
v 0.512808 0.593750 0.775903
v 0.003906 0.625000 0.003125
v 0.003906 0.625000 0.127344
v 0.490943 0.593750 0.766846
v 0.317715 0.593750 0.695093
v 0.000000 0.625000 1.000000
v 1.000000 0.625000 0.125000
v 0.295850 0.593750 0.686036
v 1.000000 0.375000 0.125000
v 0.686036 0.593750 0.704150
v 0.875000 0.625000 -0.000000
v 0.695093 0.593750 0.682285
v 0.704151 0.406250 0.313964
v 0.875000 0.375000 -0.000000
v 0.682285 0.406250 0.304907
v 0.125000 0.625000 1.000000
v 0.125000 0.375000 1.000000
v 0.509057 0.406250 0.233154
v 0.686036 0.406250 0.704150
v 0.000000 0.625000 0.875000
v 0.000000 0.375000 0.875000
v 0.695093 0.406250 0.682285
v 0.317715 0.406250 0.695093
v 0.996875 0.625000 0.996094
v 0.295850 0.406250 0.686036
v 0.996875 0.625000 0.871875
v 0.996875 0.625000 0.003125
v 0.313964 0.406250 0.295849
v 0.304907 0.406250 0.317715
v 0.996875 0.625000 0.127344
v 0.996875 0.375000 0.003125
v 0.233154 0.406250 0.490943
v 0.224097 0.406250 0.512808
v 0.996875 0.375000 0.127344
v 0.872656 0.375000 0.003125
v 0.580459 0.406250 0.939224
v 0.512808 0.406250 0.775903
v 0.872656 0.625000 0.003125
v 0.490943 0.406250 0.766846
v 0.443107 0.406250 0.882331
v 0.128125 0.625000 0.003125
v 0.443107 0.593750 0.882331
v 0.128125 0.375000 0.003125
v 0.682285 0.593750 0.304907
v 0.003906 0.625000 0.996094
v 0.801873 0.593750 0.016194
v 0.003906 0.625000 0.871875
v 0.801873 0.406250 0.016194
v 0.003906 0.375000 0.996094
v 0.628646 0.593750 -0.055559
v 0.003906 0.375000 0.871875
v 0.628646 0.406250 -0.055559
v 0.872656 0.625000 0.996094
v 0.730120 0.593750 0.189422
v 0.872656 0.375000 0.996094
v 0.730120 0.406250 0.189422
v 0.556893 0.593750 0.117669
v 0.556893 0.406250 0.117669
v 0.371354 0.593750 1.055559
v 0.371354 0.406250 1.055559
v 0.996875 0.375000 0.996094
v 1.000000 0.000000 0.000000
v 0.198127 0.593750 0.983806
v 0.198127 0.406250 0.983806
v 0.269880 0.593750 0.810578
v 0.016194 0.593750 0.198127
v -0.055559 0.593750 0.371354
v 1.000000 0.000000 1.000000
v 0.016194 0.406250 0.198127
v -0.055559 0.406250 0.371354
v 0.000000 1.000000 1.000000
v 0.000000 1.000000 -0.000000
v 0.117669 0.593750 0.443107
v 1.000000 1.000000 -0.000000
v 0.189422 0.593750 0.269880
v 0.117669 0.406250 0.443107
v 1.000000 1.000000 1.000000
v 0.189422 0.406250 0.269880
v 0.983806 0.593750 0.801873
v 1.055559 0.593750 0.628646
v 0.983806 0.406250 0.801873
v 1.055559 0.406250 0.628646
v 0.766846 0.593750 0.509057
v 0.766846 0.406250 0.509057
v 0.882331 0.593750 0.556893
v 0.810578 0.593750 0.730120
v 0.882331 0.406250 0.556893
v 0.810578 0.406250 0.730120
v 0.371355 0.593750 -0.055559
v 0.487191 0.406250 0.224096
v 0.371355 0.406250 -0.055559
v 0.198127 0.593750 0.016194
v 0.198127 0.406250 0.016194
v 0.246315 0.406250 0.132529
v 0.580458 0.593750 0.939224
v -0.055559 0.593750 0.628645
v -0.055559 0.406250 0.628645
v 0.016195 0.593750 0.801873
v 0.016195 0.406250 0.801873
v 0.628645 0.593750 1.055559
v 0.628645 0.406250 1.055559
v 0.801873 0.593750 0.983805
v 0.801873 0.406250 0.983805
v 0.753686 0.593750 0.867470
v 1.055559 0.593750 0.371355
v 1.055559 0.406250 0.371355
v 0.983805 0.593750 0.198127
v 0.983805 0.406250 0.198127
v 0.419542 0.593750 0.060776
v 0.487192 0.593750 0.224097
v 0.419541 0.406250 0.060776
v 0.939224 0.593750 0.419541
v 0.939224 0.406250 0.419541
v 0.775903 0.406250 0.487192
v 0.867470 0.406250 0.246314
v 0.060776 0.406250 0.580458
v 0.246315 0.593750 0.132529
v 0.060776 0.593750 0.580458
v 0.132530 0.593750 0.753686
v 0.132530 0.406250 0.753686
v 0.753686 0.406250 0.867470
v 0.867470 0.593750 0.246314
v 0.996875 0.375000 0.871875
v 0.269880 0.406250 0.810578
v 0.128125 0.625000 0.996094
v 0.826641 0.406250 0.364701
v 0.128125 0.375000 0.996094
v 0.635299 0.406250 0.826641
vn -0.0000 1.0000 -0.0000
vn -0.0000 -1.0000 -0.0000
vn -0.0000 -0.0000 -1.0000
vn -0.0000 -0.0000 1.0000
vn 1.0000 -0.0000 -0.0000
vn -1.0000 -0.0000 -0.0000
vn 0.3827 -0.0000 -0.9239
vn 0.9239 -0.0000 0.3827
vn -0.3827 -0.0000 0.9239
vn -0.9239 -0.0000 -0.3827
vn -0.3827 -0.0000 -0.9239
vn 0.9239 -0.0000 -0.3827
vn -0.9239 -0.0000 0.3827
vn 0.3827 -0.0000 0.9239
vt 0.000000 0.000000
vt 1.000000 0.000000
vt 1.000000 1.000000
vt 0.000000 1.000000
vt 0.375000 0.375000
vt 0.375000 0.250000
vt 0.625000 0.250000
vt 0.625000 0.375000
vt 0.375000 0.625000
vt 0.375000 0.750000
vt 0.625000 0.750000
vt 0.625000 0.625000
vt 0.875000 0.375000
vt 0.125000 0.375000
vt 0.000000 0.375000
vt 0.125000 0.625000
vt 0.000000 0.625000
vt 1.000000 0.375000
vt 0.875000 0.625000
vt 1.000000 0.625000
vt 0.635299 0.826641
vt 0.875000 1.000000
vt 0.125000 1.000000
vt 0.173359 0.635299
vt 0.125000 0.000000
vt 0.173359 0.364701
vt 0.000000 0.125000
vt 1.000000 0.125000
vt 1.000000 0.875000
vt 0.826641 0.635299
vt 0.635299 0.173359
vt 0.364701 0.826641
vt 0.875000 0.000000
vt 0.364701 0.173359
vt 0.826641 0.364701
vt 0.000000 0.875000
vt 0.132583 0.031250
vt 0.156250 0.031250
vt 0.000000 0.062500
vt 0.000000 0.031250
vt 0.843750 0.500000
vt 0.992418 0.500000
vt 0.992418 0.687500
vt 0.843750 0.687500
vt 0.812500 0.187500
vt 1.000000 0.187500
vt 0.812500 0.375000
vt 0.312500 0.187500
vt 0.312500 0.375000
vt 0.187500 0.375000
vt 0.187500 0.187500
vt 0.000000 0.187500
vt 0.625000 0.812500
vt 0.812500 0.812500
vt 0.812500 1.000000
vt 0.625000 1.000000
vt 1.000000 0.812500
vt 0.208947 0.281250
vt 0.302697 0.375000
vt 0.125920 0.375000
vt 0.125920 0.187500
vt 0.686580 0.812500
vt 0.686580 1.000000
vt 0.938420 0.812500
vt 0.938420 1.000000
vt 0.992417 0.687500
vt 0.632583 0.500000
vt 0.781250 0.500000
vt 0.781250 0.687500
vt 0.632583 0.687500
vt 0.632582 0.500000
vt 0.632582 0.687500
vt 0.302697 0.187500
vt 0.343750 0.031250
vt 0.500000 0.062500
vt 0.367417 0.031250
vt 0.500000 0.031250
vt 0.500000 0.000000
vt 0.492417 0.875000
vt 0.617418 1.000000
vt 0.468750 1.000000
vt 0.468750 0.875000
vt 0.468750 0.250000
vt 0.617418 0.250000
vt 0.492417 0.375000
vt 0.468750 0.375000
vt 0.257583 0.875000
vt 0.281250 0.875000
vt 0.281250 1.000000
vt 0.132583 1.000000
vt 0.281250 0.250000
vt 0.281250 0.375000
vt 0.257582 0.375000
vt 0.132583 0.250000
vt 0.617417 1.000000
vt 0.492417 0.375000
vt 0.125000 0.507582
vt 0.125000 0.531250
vt 0.000000 0.531250
vt 0.000000 0.382582
vt 0.000000 0.718750
vt 0.125000 0.718750
vt 0.125000 0.742418
vt 0.000000 0.867417
vt 0.125000 0.507583
vt 0.750000 0.718750
vt 0.750000 0.867418
vt 0.625000 0.742417
vt 0.625000 0.718750
vt 0.617417 0.250000
vt 0.750000 0.867417
s 0
usemtl casing
f 111/1/1 117/2/1 114/3/1 112/4/1
f 17/1/2 102/2/2 108/3/2 16/4/2
usemtl encased_border_1
f 29/5/3 19/6/3 31/7/3 27/8/3
f 24/6/3 83/5/3 81/8/3 42/7/3
f 75/9/3 71/10/3 67/11/3 78/12/3
f 13/10/3 54/9/3 51/12/3 40/11/3
f 101/6/4 95/5/4 93/8/4 64/7/4
f 167/9/4 89/10/4 85/11/4 165/12/4
f 11/5/4 5/6/4 1/7/4 9/8/4
f 22/10/4 57/9/4 56/12/4 46/11/4
f 163/9/5 101/10/5 64/11/5 66/12/5
f 71/6/5 74/5/5 70/8/5 67/7/5
f 49/5/5 13/6/5 40/7/5 47/8/5
f 5/10/5 7/9/5 3/12/5 1/11/5
f 89/6/6 91/5/6 87/8/6 85/7/6
f 26/9/6 24/10/6 42/11/6 43/12/6
f 61/5/6 22/6/6 46/7/6 60/8/6
f 19/10/6 36/9/6 33/12/6 31/11/6
usemtl encased_cogwheel_side
f 17/1/6 61/13/6 36/14/6 19/15/6
f 33/16/6 111/3/6 112/4/6 31/17/6
f 16/2/6 22/18/6 61/13/6 17/1/6
f 60/19/6 46/20/6 111/3/6 33/16/6
f 51/16/3 112/3/3 114/4/3 40/17/3
f 27/19/3 31/20/3 112/3/3 51/16/3
f 17/2/3 19/18/3 29/13/3 102/1/3
f 102/1/3 29/13/3 54/14/3 13/15/3
f 56/16/4 117/3/4 111/4/4 46/17/4
f 16/1/4 11/13/4 57/14/4 22/15/4
f 108/2/4 5/18/4 11/13/4 16/1/4
f 9/19/4 1/20/4 117/3/4 56/16/4
f 47/19/5 40/20/5 114/3/5 3/16/5
f 3/16/5 114/3/5 117/4/5 1/17/5
f 102/2/5 13/18/5 49/13/5 108/1/5
f 108/1/5 49/13/5 7/14/5 5/15/5
usemtl stripped_spruce_log_top
f 2/21/2 9/22/2 56/23/2 12/24/2
f 57/25/1 15/26/1 61/27/1 22/1/1
f 7/28/1 49/29/1 8/30/1 6/31/1
f 14/32/1 8/30/1 54/22/1 29/23/1
f 11/33/1 5/2/1 7/28/1 6/31/1
f 54/22/1 8/30/1 49/29/1 13/3/1
f 33/27/2 31/1/2 27/25/2 10/34/2
f 3/29/2 1/3/2 9/22/2 2/21/2
f 51/33/2 40/2/2 47/28/2 4/35/2
f 4/35/2 47/28/2 3/29/2 2/21/2
f 12/24/2 60/36/2 33/27/2 10/34/2
f 51/33/2 4/35/2 10/34/2 27/25/2
f 60/36/2 12/24/2 56/23/2 46/4/2
f 6/31/1 15/26/1 57/25/1 11/33/1
f 29/23/1 19/4/1 36/36/1 14/32/1
f 36/36/1 61/27/1 15/26/1 14/32/1
usemtl cogwheel_1
f 32/37/7 84/38/7 4/39/7 20/40/7
f 50/37/8 52/38/8 2/39/8 18/40/8
f 48/37/9 45/38/9 12/39/9 23/40/9
f 35/37/10 37/38/10 10/39/10 21/40/10
f 8/1/7 55/38/7 53/37/7 166/40/7
f 6/1/8 62/38/8 59/37/8 168/40/8
f 15/1/9 63/38/9 65/37/9 28/40/9
f 14/1/10 69/38/10 68/37/10 25/40/10
f 80/41/9 76/42/9 135/43/9 82/44/9
f 88/45/7 92/46/7 90/18/7 86/47/7
f 34/48/1 84/49/1 94/50/1 97/51/1
f 92/15/2 88/52/2 96/51/2 98/50/2
f 96/53/8 88/54/8 86/55/8 94/56/8
f 92/54/10 98/57/10 97/3/10 90/55/10
f 104/45/9 100/46/9 99/18/9 103/47/9
f 103/15/1 99/52/1 82/51/1 105/50/1
f 63/48/2 79/49/2 80/50/2 164/51/2
f 100/54/8 80/57/8 82/3/8 99/55/8
f 164/53/10 104/54/10 103/55/10 105/56/10
f 109/45/10 110/46/10 107/18/10 106/47/10
f 107/52/1 113/51/1 115/50/1 106/15/1
f 109/52/2 118/51/2 116/50/2 110/15/2
f 118/53/7 109/54/7 106/55/7 115/56/7
f 110/54/9 116/57/9 113/3/9 107/55/9
f 121/45/8 122/46/8 120/18/8 119/47/8
f 52/49/1 126/50/1 125/51/1 123/48/1
f 124/49/2 127/50/2 128/51/2 62/48/2
f 122/54/7 127/57/7 125/3/7 120/55/7
f 128/53/9 121/54/9 119/55/9 126/56/9
f 131/45/11 133/46/11 132/18/11 129/47/11
f 23/58/1 39/59/1 158/60/1 159/61/1
f 133/15/2 131/52/2 151/61/2 134/60/2
f 151/62/12 131/54/12 129/55/12 149/63/12
f 133/54/13 134/64/13 157/65/13 132/55/13
f 156/62/11 137/54/11 136/55/11 158/63/11
f 139/54/14 160/64/14 159/65/14 138/55/14
f 137/45/13 139/46/13 138/18/13 136/47/13
f 139/15/2 137/52/2 156/61/2 160/60/2
f 141/45/14 143/46/14 142/18/14 140/47/14
f 21/58/1 150/59/1 149/60/1 157/61/1
f 143/15/2 141/52/2 76/61/2 161/60/2
f 76/62/13 141/54/13 140/55/13 135/63/13
f 143/54/12 161/64/12 144/65/12 142/55/12
f 146/45/12 148/46/12 147/18/12 145/47/12
f 148/15/2 146/52/2 153/61/2 155/60/2
f 153/62/14 146/54/14 145/55/14 152/63/14
f 148/54/11 155/64/11 162/65/11 147/55/11
f 98/41/7 151/42/7 149/66/7 97/44/7
f 127/41/8 153/42/8 152/66/8 125/44/8
f 155/67/7 96/68/7 94/69/7 162/70/7
f 116/41/10 156/42/10 158/43/10 113/44/10
f 134/71/10 118/68/10 115/69/10 157/72/10
f 160/71/9 164/68/9 105/69/9 159/70/9
f 161/67/8 128/68/8 126/69/8 144/70/8
f 97/51/1 94/50/1 86/15/1 90/52/1
f 157/61/1 149/60/1 129/15/1 132/52/1
f 115/50/1 113/51/1 38/48/1 37/49/1
f 159/61/1 158/60/1 136/15/1 138/52/1
f 105/50/1 82/51/1 44/48/1 45/49/1
f 144/61/1 135/60/1 140/15/1 142/52/1
f 125/51/1 126/50/1 119/15/1 120/52/1
f 162/61/1 152/60/1 145/15/1 147/52/1
f 128/51/2 127/50/2 122/15/2 121/52/2
f 98/50/2 96/51/2 55/48/2 58/49/2
f 161/60/2 76/61/2 168/58/2 59/59/2
f 116/50/2 118/51/2 69/48/2 72/49/2
f 155/60/2 153/61/2 166/58/2 53/59/2
f 164/51/2 80/50/2 100/15/2 104/52/2
f 152/60/1 162/61/1 20/58/1 30/59/1
f 18/58/1 144/61/1 50/73/1
f 134/60/2 151/61/2 25/58/2 68/59/2
f 160/60/2 156/61/2 28/58/2 65/59/2
f 159/61/1 48/73/1 23/58/1
f 18/58/1 41/59/1 135/60/1 144/61/1
f 20/58/1 162/61/1 32/73/1
f 157/61/1 35/73/1 21/58/1
f 166/58/2 153/61/2 154/73/2
f 168/58/2 76/61/2 77/73/2
f 28/58/2 156/61/2 73/73/2
f 25/58/2 151/61/2 130/73/2
f 38/74/10 12/75/10 10/39/10 37/38/10
f 12/75/10 38/74/10 39/76/10 23/77/10
f 12/39/9 45/38/9 44/74/9 2/75/9
f 2/75/9 44/74/9 41/76/9 18/77/9
f 4/75/8 2/39/8 52/38/8 123/74/8
f 4/75/8 123/74/8 30/76/8 20/77/8
f 4/39/7 84/38/7 34/74/7 10/75/7
f 10/75/7 34/74/7 150/76/7 21/77/7
f 14/78/7 25/77/7 130/76/7 58/74/7
f 55/38/7 8/1/7 14/78/7 58/74/7
f 8/78/8 166/77/8 154/76/8 124/74/8
f 62/38/8 6/1/8 8/78/8 124/74/8
f 6/78/9 168/77/9 77/76/9 79/74/9
f 6/78/9 79/74/9 63/38/9 15/1/9
f 15/78/10 28/77/10 73/76/10 72/74/10
f 69/38/10 14/1/10 15/78/10 72/74/10
usemtl cogwheel_2
f 77/79/2 76/80/2 80/81/2 79/82/2
f 82/83/1 135/84/1 41/85/1 44/86/1
f 150/87/1 34/88/1 97/89/1 149/90/1
f 98/91/2 58/92/2 130/93/2 151/94/2
f 94/81/1 84/82/1 32/79/1 162/95/1
f 154/85/2 153/84/2 127/83/2 124/86/2
f 96/83/2 155/84/2 53/96/2 55/86/2
f 39/97/1 38/98/1 113/99/1 158/100/1
f 116/101/2 72/102/2 73/103/2 156/104/2
f 115/101/1 37/102/1 35/103/1 157/104/1
f 68/105/2 69/98/2 118/99/2 134/100/2
f 105/91/1 45/92/1 48/93/1 159/94/1
f 65/87/2 63/88/2 164/89/2 160/90/2
f 128/106/2 161/107/2 59/108/2 62/109/2
f 50/85/1 144/110/1 126/83/1 52/86/1
f 125/106/1 152/111/1 30/108/1 123/109/1
