# Blender 5.2.1 LTS
# www.blender.org
mtllib block.mtl
o block
v 0.750000 0.125000 0.750000
v 1.000000 0.875000 0.875000
v 0.750000 0.687500 0.750000
v 1.000000 0.875000 0.125000
v 0.687500 0.562500 0.687500
v 1.000000 0.687500 0.875000
v 0.750000 0.687500 0.250000
v 1.000000 0.687500 0.125000
v 0.750000 0.125000 0.250000
v 0.000000 0.875000 0.125000
v 0.750000 0.562500 0.750000
v 0.000000 0.875000 0.875000
v 0.687500 0.562500 0.312500
v 0.000000 0.687500 0.125000
v 0.750000 0.562500 0.250000
v 0.000000 0.687500 0.875000
v 0.750000 0.000000 0.750000
v 0.250000 0.687500 0.250000
v 0.687500 0.125000 0.687500
v 0.250000 0.687500 0.750000
v 0.750000 -0.000000 0.250000
v 0.250000 0.562500 0.250000
v 0.687500 0.125000 0.312500
v 0.250000 0.562500 0.750000
v 0.250000 0.125000 0.250000
v 0.312500 0.562500 0.312500
v 0.250000 0.125000 0.750000
v 0.312500 0.562500 0.687500
v 0.250000 -0.000000 0.250000
v 0.312500 0.125000 0.312500
v 0.250000 0.000000 0.750000
v 0.312500 0.125000 0.687500
v 0.750000 0.000000 0.750000
v 0.750000 -0.000000 0.250000
v 0.250000 -0.000000 0.250000
v 0.250000 0.000000 0.750000
v 0.000000 0.875000 0.125000
v 0.000000 0.875000 0.875000
v 0.000000 0.687500 0.125000
v 0.000000 0.687500 0.875000
v 1.000000 0.875000 0.875000
v 1.000000 0.875000 0.125000
v 1.000000 0.687500 0.875000
v 1.000000 0.687500 0.125000
vn -0.0000 1.0000 -0.0000
vn -0.0000 -0.0000 -1.0000
vn 1.0000 -0.0000 -0.0000
vn -0.0000 -0.0000 1.0000
vn -1.0000 -0.0000 -0.0000
vn -0.0000 -1.0000 -0.0000
vt 0.437500 0.437500
vt 0.437500 0.062500
vt 0.500000 0.000000
vt 0.500000 0.500000
vt 0.000000 0.000000
vt 0.062500 0.062500
vt 0.625000 0.000000
vt 1.000000 0.000000
vt 1.000000 0.437500
vt 0.625000 0.437500
vt 0.000000 0.500000
vt 1.000000 0.500000
vt 1.000000 0.687500
vt 0.000000 0.687500
vt 0.062500 0.437500
vt 0.312500 0.875000
vt 0.812500 0.875000
vt 0.812500 1.000000
vt 0.312500 1.000000
vt 0.375000 0.625000
vt 0.875000 0.625000
vt 0.875000 0.750000
vt 0.375000 0.750000
vt 0.062500 0.250000
vt 0.562500 0.250000
vt 0.562500 0.375000
vt 0.062500 0.375000
vt 0.250000 0.000000
vt 0.750000 0.000000
vt 0.750000 0.125000
vt 0.250000 0.125000
vt 0.000000 0.812500
vt 0.750000 0.812500
vt 0.750000 1.000000
vt 0.000000 1.000000
vt 0.687500 0.812500
vt 0.687500 0.437500
vt 0.750000 0.375000
vt 0.750000 0.875000
vt 0.312500 0.812500
vt 0.250000 0.875000
vt 0.250000 0.375000
vt 0.312500 0.437500
vt 0.000000 0.250000
vt 1.000000 0.250000
vt 1.000000 1.000000
vt 0.250000 0.375000
vt 0.250000 0.875000
vt 0.750000 0.375000
s 0
g off
usemtl schematic_table_1
f 15/28/2 22/29/2 18/30/2 7/31/2
f 3/31/3 11/28/3 15/29/3 7/30/3
f 24/28/4 11/29/4 3/30/4 20/31/4
f 22/28/5 24/29/5 20/30/5 18/31/5
f 5/36/6 13/37/6 15/38/6 11/39/6
f 28/40/6 24/41/6 22/42/6 26/43/6
f 12/44/1 2/45/1 4/46/1 10/35/1
f 16/35/6 14/44/6 18/47/6 20/48/6
f 8/45/6 7/49/6 18/47/6 14/44/6
f 20/48/6 3/39/6 6/46/6 16/35/6
f 6/46/6 3/39/6 7/49/6 8/45/6
f 26/43/6 22/42/6 15/38/6 13/37/6
f 24/41/6 28/40/6 5/36/6 11/39/6
usemtl schematic_table_2
f 8/11/2 14/12/2 10/13/2 4/14/2
f 16/11/4 6/12/4 2/13/4 12/14/4
f 31/24/4 17/25/4 1/26/4 27/27/4
f 29/28/5 31/29/5 27/30/5 25/31/5
g west
f 39/32/5 40/33/5 38/34/5 37/35/5
g east
f 43/32/3 44/33/3 42/34/3 41/35/3
g off
usemtl schematic_table_3
f 23/1/1 19/2/1 1/3/1 9/4/1
f 27/5/1 1/3/1 19/2/1 32/6/1
f 23/7/2 30/8/2 26/9/2 13/10/2
f 19/7/3 23/8/3 13/9/3 5/10/3
f 32/7/4 19/8/4 5/9/4 28/10/4
f 30/7/5 32/8/5 28/9/5 26/10/5
f 9/4/1 25/11/1 30/15/1 23/1/1
f 30/15/1 25/11/1 27/5/1 32/6/1
f 21/16/2 29/17/2 25/18/2 9/19/2
f 17/20/3 21/21/3 9/22/3 1/23/3
g down
f 35/5/6 34/3/6 33/4/6 36/11/6
