# Blender 5.2.1 LTS
# www.blender.org
mtllib block.mtl
o block
v 0.937500 0.625000 0.937500
v 0.625000 1.000000 0.625000
v 0.593750 0.592188 1.437500
v 0.625000 1.000000 0.375000
v 0.625000 0.000000 0.625000
v 0.227848 0.592188 1.402014
v 0.937500 0.625000 1.062500
v 0.625000 -0.000000 0.375000
v 0.593750 0.592187 -0.437500
v 0.375000 1.000000 0.375000
v 0.375000 1.000000 0.625000
v 1.062500 0.625000 0.937500
v 0.937500 0.625000 0.062500
v 0.375000 -0.000000 0.375000
v 0.375000 0.000000 0.625000
v 1.437500 0.592188 0.593750
v 0.937500 0.375000 1.062500
v 0.593750 0.407813 1.437500
v 1.229204 0.592188 1.096621
v 1.062500 0.625000 0.062500
v 0.937500 0.625000 -0.062500
v 1.437500 0.592188 0.406250
v 0.593750 0.407812 -0.437500
v 1.062500 0.375000 0.937500
v -0.096621 0.592187 -0.229204
v 0.062500 0.625000 1.062500
v 0.406250 0.592187 -0.437500
v 0.937500 0.375000 0.937500
v 1.437500 0.407813 0.593750
v 1.062500 0.375000 0.062500
v 0.406250 0.592188 1.437500
v 0.062500 0.375000 1.062500
v 0.406250 0.407812 -0.437500
v 0.937500 0.375000 0.062500
v 1.437500 0.407813 0.406250
v 0.937500 0.375000 -0.062500
v 0.406250 0.407813 1.437500
v 0.062500 0.625000 0.062500
v 1.229204 0.592187 -0.096621
v 0.062500 0.625000 -0.062500
v -0.062500 0.625000 0.062500
v 0.945379 0.592188 1.330261
v -0.437500 0.592188 0.406250
v 0.062500 0.625000 0.937500
v -0.437500 0.592188 0.593750
v 0.062500 0.375000 -0.062500
v 1.229204 0.407813 1.096621
v -0.062500 0.625000 0.937500
v 0.062500 0.375000 0.062500
v -0.096621 0.407812 -0.229204
v -0.062500 0.375000 0.062500
v -0.437500 0.407813 0.406250
v 0.062500 0.375000 0.937500
v 1.096621 0.592187 -0.229204
v -0.437500 0.407813 0.593750
v -0.062500 0.375000 0.937500
v -0.229204 0.592187 -0.096621
v 0.227848 0.592187 -0.402014
v 1.229204 0.407812 -0.096621
v 1.096621 0.592188 1.229204
v -0.229204 0.407812 -0.096621
v 1.330261 0.592188 0.945379
v 1.096621 0.407812 -0.229204
v 1.096621 0.407813 1.229204
v -0.229204 0.592188 1.096621
v 1.402014 0.592188 0.227848
v -0.096621 0.592188 1.229204
v 0.945379 0.407813 1.330261
v 1.402014 0.592188 0.772152
v -0.229204 0.407813 1.096621
v 0.227848 0.407812 -0.402014
v -0.096621 0.407813 1.229204
v 0.945379 0.592187 -0.330261
v 0.054621 0.592187 -0.330261
v 0.772152 0.592188 1.402014
v 1.330261 0.407813 0.945379
v 1.330261 0.592187 0.054621
v 0.054621 0.407812 -0.330261
v 1.402014 0.407813 0.772152
v 0.772152 0.407813 1.402014
v -0.330261 0.592187 0.054621
v 0.227848 0.407813 1.402014
v 1.402014 0.407812 0.227848
v -0.402014 0.592188 0.227848
v 0.945379 0.407812 -0.330261
v -0.330261 0.407812 0.054621
v -0.402014 0.407812 0.227848
v 1.330261 0.407812 0.054621
v 0.772152 0.592187 -0.402014
v -0.402014 0.592188 0.772152
v 0.054621 0.592188 1.330261
v -0.330261 0.592188 0.945379
v 0.772152 0.407812 -0.402014
v -0.402014 0.407813 0.772152
v 0.054621 0.407813 1.330261
v -0.330261 0.407813 0.945379
v 0.860358 0.407812 -0.125000
v 0.860358 0.592187 -0.125000
v 0.342591 0.592188 1.125000
v 0.342591 0.407813 1.125000
v 0.139642 0.592188 1.125000
v 0.139642 0.407813 1.125000
v 0.657409 0.407812 -0.125000
v 0.657409 0.592187 -0.125000
v -0.125000 0.592188 0.657409
v -0.125000 0.407813 0.657409
v 1.125000 0.592188 0.139642
v 1.125000 0.407812 0.139642
v 1.125000 0.592188 0.342591
v 1.125000 0.407813 0.342591
v -0.125000 0.407813 0.860358
v -0.125000 0.592188 0.860358
v -0.125000 0.592188 0.139642
v -0.125000 0.407812 0.139642
v 1.125000 0.592188 0.657409
v 1.125000 0.407813 0.657409
v 1.125000 0.592188 0.860358
v 1.125000 0.407813 0.860358
v -0.125000 0.407813 0.342591
v -0.125000 0.592188 0.342591
v 0.342591 0.407812 -0.125000
v 0.342591 0.592187 -0.125000
v 0.860358 0.592188 1.125000
v 0.860358 0.407813 1.125000
v 0.657409 0.407813 1.125000
v 0.657409 0.592188 1.125000
v 0.139642 0.407812 -0.125000
v 0.139642 0.592187 -0.125000
v -0.125000 0.407813 0.992417
v -0.125000 0.592188 0.992417
v 0.992417 0.407812 -0.125000
v 0.992417 0.592187 -0.125000
v 1.125000 0.407812 0.007583
v 1.125000 0.592187 0.007582
v 0.007583 0.407813 1.125000
v 0.007583 0.592188 1.125000
v 0.007583 0.407812 -0.125000
v 0.007583 0.592187 -0.125000
v 1.125000 0.407813 0.992417
v 1.125000 0.592188 0.992417
v 0.992417 0.407813 1.125000
v 0.992417 0.592188 1.125000
v -0.125000 0.592187 0.007582
v -0.125000 0.407812 0.007583
v -0.125000 0.407813 0.406250
v -0.125000 0.592188 0.406250
v 1.125000 0.407813 0.406250
v 1.125000 0.592188 0.406250
v 1.125000 0.407813 0.593750
v 1.125000 0.592188 0.593750
v -0.125000 0.592188 0.593750
v -0.125000 0.407813 0.593750
v 0.593750 0.407812 -0.125000
v 0.593750 0.592187 -0.125000
v 0.593750 0.592188 1.125000
v 0.593750 0.407813 1.125000
v 0.406250 0.592188 1.125000
v 0.406250 0.407813 1.125000
v 0.406250 0.407812 -0.125000
v 0.406250 0.592187 -0.125000
v 0.312870 0.592188 1.196753
v 0.312870 0.407813 1.196753
v 0.687130 0.407812 -0.196753
v 0.687130 0.592187 -0.196753
v -0.196753 0.592188 0.687130
v -0.196753 0.407813 0.687130
v 1.196753 0.592188 0.312870
v 1.196753 0.407813 0.312870
v 1.196753 0.407813 0.687130
v 1.196753 0.592188 0.687130
v -0.196753 0.407813 0.312870
v -0.196753 0.592188 0.312870
v 0.312870 0.407812 -0.196753
v 0.312870 0.592187 -0.196753
v 0.687130 0.407813 1.196753
v 0.687130 0.592188 1.196753
v -0.290133 0.407813 0.406250
v -0.290133 0.592188 0.406250
v 1.290133 0.592188 0.406250
v 1.290133 0.407813 0.406250
v 1.290133 0.592188 0.593750
v 1.290133 0.407813 0.593750
v -0.290133 0.592188 0.593750
v -0.290133 0.407813 0.593750
v 0.593750 0.407812 -0.290134
v 0.593750 0.592187 -0.290134
v 0.593750 0.592188 1.290133
v 0.593750 0.407813 1.290133
v 0.406250 0.592188 1.290133
v 0.406250 0.407813 1.290133
v 0.406250 0.407812 -0.290134
v 0.406250 0.592187 -0.290134
v -0.062500 0.407812 0.062500
v -0.062500 0.592187 0.062500
v 0.062500 0.407812 0.062500
v 0.062500 0.592187 0.062500
v 0.062500 0.407813 0.937500
v 0.062500 0.592188 0.937500
v -0.062500 0.407813 0.937500
v -0.062500 0.592188 0.937500
v -0.062500 0.407813 0.368479
v -0.062500 0.407813 0.406250
v -0.062500 0.407813 0.593750
v -0.062500 0.407813 0.631521
v -0.062500 0.592188 0.929917
v -0.062500 0.592188 0.834469
v -0.062500 0.407813 0.834469
v -0.062500 0.407813 0.929917
v -0.062500 0.407812 0.070083
v -0.062500 0.407812 0.165531
v -0.062500 0.592188 0.165531
v -0.062500 0.592187 0.070082
v -0.062500 0.592188 0.631521
v -0.062500 0.592188 0.368479
v -0.062500 0.592188 0.406250
v -0.062500 0.592188 0.593750
v 0.062500 0.407812 -0.062500
v 0.070083 0.407812 -0.062500
v 0.062500 0.592187 -0.062500
v 0.070083 0.592187 -0.062500
v 0.165531 0.407812 -0.062500
v 0.165531 0.592187 -0.062500
v 0.631521 0.407812 -0.062500
v 0.593750 0.407812 -0.062500
v 0.406250 0.407812 -0.062500
v 0.368479 0.407812 -0.062500
v 0.368479 0.592187 -0.062500
v 0.406250 0.592187 -0.062500
v 0.834469 0.592187 -0.062500
v 0.834469 0.407812 -0.062500
v 0.929917 0.407812 -0.062500
v 0.929917 0.592187 -0.062500
v 0.937500 0.407812 -0.062500
v 0.937500 0.592187 -0.062500
v 0.593750 0.592187 -0.062500
v 0.631521 0.592187 -0.062500
v 0.937500 0.407812 0.062500
v 0.937500 0.592187 0.062500
v 1.062500 0.407812 0.062500
v 1.062500 0.592187 0.062500
v 1.062500 0.407812 0.070083
v 1.062500 0.407812 0.165531
v 1.062500 0.407813 0.368479
v 1.062500 0.407813 0.406250
v 1.062500 0.592188 0.165531
v 1.062500 0.592187 0.070082
v 1.062500 0.407813 0.631521
v 1.062500 0.407813 0.593750
v 1.062500 0.407813 0.834469
v 1.062500 0.407813 0.929917
v 1.062500 0.592188 0.368479
v 1.062500 0.592188 0.406250
v 1.062500 0.407813 0.937500
v 1.062500 0.592188 0.834469
v 1.062500 0.592188 0.929917
v 1.062500 0.592188 0.937500
v 1.062500 0.592188 0.593750
v 1.062500 0.592188 0.631521
v 0.937500 0.407813 0.937500
v 0.937500 0.592188 0.937500
v 0.937500 0.407813 1.062500
v 0.937500 0.592188 1.062500
v 0.406250 0.407813 1.062500
v 0.368479 0.407813 1.062500
v 0.834469 0.407813 1.062500
v 0.834469 0.592188 1.062500
v 0.929917 0.407813 1.062500
v 0.929917 0.592188 1.062500
v 0.593750 0.407813 1.062500
v 0.631521 0.407813 1.062500
v 0.062500 0.407813 1.062500
v 0.070083 0.407813 1.062500
v 0.062500 0.592188 1.062500
v 0.070083 0.592188 1.062500
v 0.165531 0.592188 1.062500
v 0.165531 0.407813 1.062500
v 0.631521 0.592188 1.062500
v 0.593750 0.592188 1.062500
v 0.406250 0.592188 1.062500
v 0.368479 0.592188 1.062500
v 0.375000 0.625000 0.625000
v 0.625000 0.625000 0.625000
v 0.625000 0.625000 0.375000
v 0.375000 0.625000 0.375000
v 0.375000 0.375000 0.375000
v 0.625000 0.375000 0.625000
v 0.625000 0.375000 0.375000
v 0.375000 0.375000 0.625000
vn -0.0000 1.0000 -0.0000
vn -0.0000 -1.0000 -0.0000
vn -0.0000 -0.0000 -1.0000
vn -0.0000 -0.0000 1.0000
vn -1.0000 -0.0000 -0.0000
vn 1.0000 -0.0000 -0.0000
vn 0.3827 -0.0000 -0.9239
vn 0.9239 -0.0000 0.3827
vn -0.3827 -0.0000 0.9239
vn -0.9239 -0.0000 -0.3827
vn -0.3827 -0.0000 -0.9239
vn 0.9239 -0.0000 -0.3827
vn 0.3827 -0.0000 0.9239
vn -0.9239 -0.0000 0.3827
vn -0.7071 -0.0000 -0.7071
vn 0.7071 -0.0000 -0.7071
vn 0.7071 -0.0000 0.7071
vn -0.7071 -0.0000 0.7071
vt 0.250000 0.750000
vt 0.093750 0.906250
vt 0.093750 0.468750
vt 0.250000 0.625000
vt 0.531250 0.906250
vt 0.375000 0.750000
vt 0.531250 0.468750
vt 0.375000 0.625000
vt 0.633203 1.000000
vt 0.625000 1.000000
vt 0.625000 0.937500
vt 0.633203 0.937500
vt 0.679297 0.937500
vt 0.687500 0.937500
vt 0.687500 1.000000
vt 0.679297 1.000000
vt 0.633203 0.625000
vt 0.625000 0.625000
vt 0.625000 0.562500
vt 0.633203 0.562500
vt 0.679297 0.562500
vt 0.687500 0.562500
vt 0.687500 0.625000
vt 0.679297 0.625000
vt 0.633203 0.996209
vt 0.633203 0.948485
vt 0.679297 0.614015
vt 0.679297 0.566291
vt 0.812500 1.000000
vt 0.750000 1.000000
vt 0.750000 0.562500
vt 0.812500 0.562500
vt 0.875000 1.000000
vt 0.875000 0.562500
vt 0.937500 0.562500
vt 1.000000 0.562500
vt 1.000000 1.000000
vt 0.937500 1.000000
vt 0.625000 0.312500
vt 0.718750 0.312500
vt 0.718750 0.406250
vt 0.625000 0.406250
vt 0.826414 0.093750
vt 0.937500 0.093750
vt 0.937500 0.187500
vt 0.826414 0.187500
vt 0.111086 0.187500
vt 0.000000 0.187500
vt 0.000000 0.093750
vt 0.111086 0.093750
vt 0.115197 0.278569
vt 0.115197 0.190181
vt 0.159391 0.234375
vt 0.826414 0.187500
vt 0.937500 0.281250
vt 0.826414 0.281250
vt 0.826414 0.093750
vt 0.111086 0.093750
vt 0.111086 0.187500
vt 0.111086 0.187500
vt 0.183743 0.187500
vt 0.144911 0.281250
vt 0.149919 0.187500
vt 0.826414 0.187500
vt 0.863817 0.187500
vt 0.863817 0.281250
vt 0.111086 0.281250
vt 0.111086 0.187500
vt 0.149919 0.187500
vt 0.144911 0.281250
vt 0.187500 0.187500
vt 0.187500 0.281250
vt 0.156250 0.281250
vt 0.156250 0.187500
vt 0.111086 0.093750
vt 0.826414 0.281250
vt 0.792589 0.281250
vt 0.787581 0.187500
vt 0.000000 0.281250
vt 0.111086 0.281250
vt 0.144911 0.187500
vt 0.149919 0.281250
vt 0.187500 0.187500
vt 0.156250 0.187500
vt 0.863817 0.093750
vt 0.073683 0.187500
vt 0.073683 0.093750
vt 0.822303 0.190181
vt 0.819623 0.187500
vt 0.822303 0.278569
vt 0.778109 0.234375
vt 0.558709 1.000000
vt 0.492679 1.000000
vt 0.479735 0.968750
vt 0.527459 0.968750
vt 0.111086 0.187500
vt 0.115197 0.278569
vt 0.115197 0.190181
vt 0.792589 0.281250
vt 0.115197 0.278569
vt 0.117877 0.281250
vt 0.073683 0.281250
vt 0.115197 0.190181
vt 0.750000 0.281250
vt 0.750000 0.187500
vt 0.781250 0.187500
vt 0.781250 0.281250
vt 0.787581 0.281250
vt 0.792589 0.187500
vt 0.073683 0.187500
vt 0.115197 0.278569
vt 0.159391 0.234375
vt 0.073683 0.281250
vt 0.753757 0.281250
vt 0.792589 0.187500
vt 0.187500 0.187500
vt 0.826414 0.281250
vt 0.787581 0.187500
vt 0.066291 0.281250
vt 0.132321 0.281250
vt 0.132321 0.375000
vt 0.066291 0.375000
vt 0.558709 0.375000
vt 0.492679 0.375000
vt 0.492679 0.281250
vt 0.558709 0.281250
vt 0.233795 0.375000
vt 0.265625 0.375000
vt 0.265625 0.406250
vt 0.246740 0.406250
vt 0.031250 0.520265
vt 0.000000 0.507321
vt 0.000000 0.441291
vt 0.031250 0.472541
vt 0.378260 0.406250
vt 0.359375 0.406250
vt 0.359375 0.375000
vt 0.391205 0.375000
vt 0.479735 0.406250
vt 0.527459 0.406250
vt 0.625000 0.734375
vt 0.625000 0.766205
vt 0.593750 0.753260
vt 0.593750 0.734375
vt 0.593750 0.621740
vt 0.625000 0.608795
vt 0.625000 0.640625
vt 0.593750 0.640625
vt 0.145265 0.406250
vt 0.097541 0.406250
vt 0.593750 0.472541
vt 0.625000 0.441291
vt 0.625000 0.507321
vt 0.593750 0.520265
vt 0.000000 0.933709
vt 0.000000 0.867679
vt 0.031250 0.854735
vt 0.031250 0.902459
vt 0.145265 0.968750
vt 0.132321 1.000000
vt 0.066291 1.000000
vt 0.097541 0.968750
vt 0.000000 0.734375
vt 0.031250 0.734375
vt 0.031250 0.753260
vt 0.000000 0.766205
vt 0.031250 0.640625
vt 0.000000 0.640625
vt 0.000000 0.608795
vt 0.031250 0.621740
vt 0.265625 1.000000
vt 0.233795 1.000000
vt 0.246740 0.968750
vt 0.265625 0.968750
vt 0.527459 0.406250
vt 0.391205 1.000000
vt 0.359375 1.000000
vt 0.359375 0.968750
vt 0.378260 0.968750
vt 0.625000 0.867679
vt 0.625000 0.933709
vt 0.593750 0.902459
vt 0.593750 0.854735
vt 0.527459 0.968750
vt 0.479735 0.968750
vt 0.097541 0.406250
vt 0.066291 0.375000
vt 0.145265 0.406250
vt 0.145265 0.968750
vt 0.097541 0.968750
vt 0.183743 0.187500
vt 0.149919 0.187500
vt 0.132321 0.375000
vt 0.492679 0.281250
vt 0.566616 0.875325
vt 0.589123 0.852818
vt 0.147182 0.410877
vt 0.124675 0.433383
vt 0.566616 0.499675
vt 0.625000 0.441291
vt 0.589123 0.522182
vt 0.500325 0.433384
vt 0.477818 0.410877
vt 0.058384 0.875325
vt 0.000000 0.933709
vt 0.035877 0.852818
vt 0.124675 0.941617
vt 0.147182 0.964123
vt 0.477818 0.964123
vt 0.500325 0.941616
vt 0.558709 1.000000
vt 0.058384 0.499675
vt 0.035877 0.522182
vt 0.066291 0.375000
vt 0.144911 0.281250
vt 0.375000 1.000000
vt 0.375000 0.625000
vt 0.375000 0.000000
vt 0.625000 0.000000
vt 0.625000 0.375000
vt 0.375000 0.375000
vt 0.753757 0.281250
vt 0.753756 0.187500
vt 0.819623 0.281250
vt 0.778109 0.234375
vt 0.753757 0.187500
vt 0.111086 0.281250
vt 0.144911 0.187500
vt 0.183743 0.281250
vt 0.117877 0.281250
vt 0.073683 0.281250
vt 0.117877 0.187500
vt 0.822304 0.190181
vt 0.822303 0.278569
vt 0.183744 0.281250
vt 0.159391 0.234375
vt 0.633203 0.566291
vt 0.633203 0.614015
vt 0.633203 0.715490
vt 0.633203 0.734375
vt 0.633203 0.828125
vt 0.633203 0.847010
vt 0.111086 0.281250
vt 0.073683 0.187500
vt 0.117877 0.187500
vt 0.679297 0.948485
vt 0.679297 0.847010
vt 0.679297 0.828125
vt 0.679297 0.996209
vt 0.679297 0.734375
vt 0.679297 0.715490
s 0
usemtl large_cogwheel
f 284/1/1 38/2/1 44/3/1 281/4/1
f 13/5/1 38/2/1 284/1/1 283/6/1
f 34/7/2 28/5/2 286/6/2 287/8/2
f 53/2/2 49/3/2 285/4/2 288/1/2
f 194/9/3 41/10/3 38/11/3 196/12/3
f 195/13/3 49/14/3 51/15/3 193/16/3
f 198/17/4 44/18/4 48/19/4 200/20/4
f 199/21/4 56/22/4 53/23/4 197/24/4
f 205/25/5 200/9/5 48/10/5 206/26/5
f 51/22/5 210/27/5 209/28/5 193/21/5
f 48/29/1 44/30/1 38/31/1 41/32/1
f 51/33/2 49/29/2 53/32/2 56/34/2
f 220/25/3 219/9/3 40/10/3 222/26/3
f 36/22/3 230/27/3 231/28/3 233/21/3
f 21/10/6 13/11/6 238/12/6 234/9/6
f 237/13/6 34/14/6 36/15/6 233/16/6
f 196/17/5 38/18/5 40/19/5 219/20/5
f 217/21/5 46/22/5 49/23/5 195/24/5
f 38/29/1 13/32/1 21/34/1 40/33/1
f 46/32/2 36/29/2 34/30/2 49/31/2
f 13/18/3 20/19/3 240/20/3 238/17/3
f 30/22/3 34/23/3 237/24/3 239/21/3
f 246/25/6 240/9/6 20/10/6 245/26/6
f 24/22/6 249/27/6 250/28/6 253/21/6
f 256/9/4 12/10/4 1/11/4 260/12/4
f 259/13/4 28/14/4 24/15/4 253/16/4
f 1/35/1 12/36/1 20/37/1 13/38/1
f 34/34/2 30/35/2 24/38/2 28/33/2
f 1/18/6 7/19/6 262/20/6 260/17/6
f 17/22/6 28/23/6 259/24/6 261/21/6
f 268/25/4 262/9/4 7/10/4 266/26/4
f 272/28/4 271/21/4 32/22/4 276/27/4
f 26/10/5 44/11/5 198/12/5 273/9/5
f 53/14/5 32/15/5 271/16/5 197/13/5
f 26/35/1 7/38/1 1/33/1 44/34/1
f 53/38/2 28/35/2 17/36/2 32/37/2
f 85/39/7 93/40/7 89/41/7 73/42/7
f 97/43/8 85/44/8 73/45/8 98/46/8
f 161/47/8 6/48/8 82/49/8 162/50/8
f 95/39/9 82/40/9 6/41/9 91/42/9
f 95/44/10 91/45/10 101/46/10 102/43/10
f 89/48/10 93/49/10 163/50/10 164/47/10
f 271/51/2 199/52/2 197/53/2
f 127/54/2 78/45/2 71/55/2 173/56/2
f 94/44/11 90/45/11 165/54/11 166/57/11
f 77/48/11 88/49/11 108/58/11 107/59/11
f 83/39/12 88/40/12 77/41/12 66/42/12
f 83/44/13 66/45/13 167/54/13 168/57/13
f 92/48/13 96/49/13 111/58/13 112/60/13
f 94/39/14 96/40/14 92/41/14 90/42/14
f 270/61/2 265/62/2 125/63/2
f 86/44/7 81/45/7 113/64/7 114/43/7
f 170/47/7 69/48/7 79/49/7 169/50/7
f 76/39/8 79/40/8 69/41/8 62/42/8
f 76/44/9 62/45/9 117/64/9 118/43/9
f 84/48/9 87/49/9 171/50/9 172/47/9
f 86/39/10 87/40/10 84/41/10 81/42/10
f 189/65/1 31/45/1 3/55/1 187/66/1
f 111/67/2 166/68/2 106/69/2 207/70/2
f 216/71/1 215/72/1 146/73/1 151/74/1
f 71/39/11 78/40/11 74/41/11 58/42/11
f 173/57/12 71/44/12 58/45/12 174/54/12
f 123/68/12 42/48/12 68/49/12 124/75/12
f 80/39/13 68/40/13 42/41/13 75/42/13
f 80/44/14 75/45/14 176/46/14 175/57/14
f 74/48/14 78/49/14 127/75/14 128/60/14
f 169/46/2 118/76/2 249/77/2 116/78/2
f 58/79/1 74/48/1 128/60/1 174/80/1
f 165/80/1 112/60/1 206/81/1 105/82/1
f 228/83/1 235/72/1 154/73/1 160/84/1
f 129/85/15 70/44/15 65/45/15 130/65/15
f 132/86/15 54/48/15 63/49/15 131/87/15
f 59/39/16 63/40/16 54/41/16 39/42/16
f 59/44/17 39/45/17 134/65/17 133/85/17
f 67/48/17 72/49/17 135/87/17 136/86/17
f 70/39/18 72/40/18 67/41/18 65/42/18
f 262/88/1 268/89/1 142/65/1 256/90/1
f 233/88/2 239/90/2 237/91/2
f 132/92/1 98/93/1 229/94/1 232/95/1
f 171/67/2 114/96/2 210/81/2 119/82/2
f 50/39/15 61/40/15 57/41/15 25/42/15
f 137/85/16 50/44/16 25/45/16 138/65/16
f 140/86/16 19/48/16 47/49/16 139/87/16
f 64/39/17 47/40/17 19/41/17 60/42/17
f 64/44/18 60/45/18 142/65/18 141/85/18
f 143/86/18 57/48/18 61/49/18 144/87/18
f 253/97/2 261/98/2 259/53/2
f 167/54/1 107/56/1 245/99/1 109/78/1
f 200/100/1 205/101/1 130/102/1 273/103/1
f 248/104/2 244/105/2 147/106/2 149/107/2
f 117/64/1 170/56/1 115/108/1 254/109/1
f 177/85/3 52/44/3 43/45/3 178/65/3
f 22/48/3 35/49/3 180/87/3 179/86/3
f 29/39/6 35/40/6 22/41/6 16/42/6
f 182/85/4 29/44/4 16/45/4 181/65/4
f 183/110/4 45/48/4 55/49/4 184/87/4
f 52/39/5 55/40/5 45/41/5 43/42/5
f 181/65/1 179/66/1 148/107/1 150/106/1
f 219/111/1 194/103/1 196/112/1
f 240/88/1 246/89/1 134/65/1 234/90/1
f 184/113/2 177/86/2 145/84/2 152/73/2
f 243/114/2 242/115/2 110/108/2
f 23/39/3 33/40/3 27/41/3 9/42/3
f 185/85/6 23/44/6 9/45/6 186/65/6
f 187/86/6 3/48/6 18/49/6 188/87/6
f 37/39/4 18/40/4 3/41/4 31/42/4
f 190/85/5 37/44/5 31/45/5 189/65/5
f 27/48/5 33/49/5 191/87/5 192/86/5
f 263/116/2 269/72/2 156/73/2 158/84/2
f 191/65/2 185/66/2 153/107/2 159/106/2
f 123/117/1 266/99/1 126/118/1 176/46/1
f 144/65/2 61/45/2 50/55/2 137/66/2
f 131/119/3 97/120/3 98/121/3 132/122/3
f 138/123/3 128/124/3 127/125/3 137/126/3
f 139/119/6 118/120/6 117/121/6 140/122/6
f 134/123/6 107/124/6 108/125/6 133/126/6
f 102/120/4 101/121/4 136/122/4 135/119/4
f 123/124/4 124/125/4 141/126/4 142/123/4
f 114/120/5 113/121/5 143/122/5 144/119/5
f 112/124/5 111/125/5 129/126/5 130/123/5
f 99/127/1 157/128/1 279/129/1 280/130/1
f 206/131/1 112/132/1 130/133/1 205/134/1
f 277/135/1 278/136/1 155/137/1 126/138/1
f 266/139/1 123/124/1 142/123/1 268/140/1
f 148/141/1 109/142/1 251/143/1 252/144/1
f 258/145/1 115/146/1 150/147/1 257/148/1
f 136/122/1 101/121/1 275/149/1 274/150/1
f 255/151/1 140/152/1 117/153/1 254/154/1
f 143/155/1 113/156/1 211/157/1 212/158/1
f 222/159/1 128/160/1 138/161/1 220/162/1
f 146/163/1 215/164/1 214/165/1 120/166/1
f 216/167/1 151/168/1 105/169/1 213/170/1
f 160/171/1 122/172/1 227/173/1 228/174/1
f 97/124/2 131/123/2 231/175/2 230/139/2
f 104/176/1 154/177/1 235/178/1 236/179/1
f 107/180/1 134/181/1 246/182/1 245/183/1
f 226/130/2 121/127/2 159/128/2 225/129/2
f 224/136/2 153/137/2 103/138/2 223/135/2
f 118/180/2 139/181/2 250/182/2 249/183/2
f 110/146/2 147/147/2 244/148/2 243/145/2
f 149/141/2 116/142/2 247/143/2 248/144/2
f 267/184/2 141/92/2 124/93/2 265/185/2
f 133/152/2 108/153/2 242/154/2 241/151/2
f 210/131/2 114/132/2 144/133/2 209/134/2
f 218/186/2 137/187/2 127/121/2 221/188/2
f 201/170/2 202/167/2 145/168/2 119/169/2
f 106/166/2 152/163/2 203/164/2 204/165/2
f 263/174/2 158/171/2 100/172/2 264/173/2
f 129/155/2 111/156/2 207/157/2 208/158/2
f 156/177/2 269/178/2 270/179/2 125/176/2
f 276/189/2 102/160/2 135/161/2 272/190/2
f 163/54/2 97/56/2 230/99/2 103/78/2
f 162/80/2 102/96/2 276/81/2 100/82/2
f 214/191/1 211/70/1 120/192/1
f 173/120/15 174/193/15 192/122/15 191/119/15
f 172/124/15 171/194/15 177/126/15 178/123/15
f 180/119/16 168/120/16 167/193/16 179/122/16
f 164/124/16 163/194/16 185/126/16 186/123/16
f 188/119/17 175/120/17 176/193/17 187/122/17
f 181/123/17 170/124/17 169/194/17 182/126/17
f 166/120/18 165/193/18 183/122/18 184/119/18
f 189/123/18 161/124/18 162/194/18 190/126/18
f 154/195/1 104/196/1 164/180/1 186/181/1
f 126/197/1 155/198/1 187/122/1 176/193/1
f 148/199/1 179/200/1 167/153/1 109/201/1
f 170/124/1 181/123/1 150/202/1 115/203/1
f 151/204/1 183/205/1 165/156/1 105/206/1
f 172/160/1 178/161/1 146/207/1 120/208/1
f 122/209/1 160/210/1 192/211/1 174/93/1
f 157/212/1 99/213/1 161/132/1 189/133/1
f 171/121/2 119/197/2 145/198/2 177/214/2
f 191/123/2 159/202/2 121/203/2 173/124/2
f 163/153/2 103/201/2 153/199/2 185/200/2
f 147/195/2 110/196/2 168/180/2 180/181/2
f 152/212/2 106/213/2 166/132/2 184/133/2
f 162/156/2 100/206/2 158/204/2 190/205/2
f 188/161/2 156/207/2 125/208/2 175/160/2
f 169/93/2 116/209/2 149/210/2 182/211/2
f 236/61/1 229/215/1 104/192/1
f 101/46/1 161/56/1 99/108/1 275/115/1
f 281/4/1 44/3/1 1/7/1 282/8/1
f 282/8/1 1/7/1 13/5/1 283/6/1
f 286/6/2 28/5/2 53/2/2 288/1/2
f 285/4/2 49/3/2 34/7/2 287/8/2
f 275/115/1 99/108/1 280/222/1
f 161/56/1 101/46/1 91/45/1 6/55/1
f 157/106/1 155/107/1 278/104/1 279/105/1
f 187/66/1 155/107/1 157/106/1 189/65/1
f 126/118/1 266/99/1 277/223/1
f 176/46/1 75/45/1 42/55/1 123/117/1
f 140/66/1 142/65/1 60/45/1 19/55/1
f 256/90/1 142/65/1 140/66/1 255/224/1
f 256/90/1 260/225/1 262/88/1
f 170/56/1 117/64/1 62/45/1 69/55/1
f 254/109/1 115/108/1 258/222/1
f 150/106/1 148/107/1 252/104/1 257/105/1
f 179/66/1 181/65/1 16/45/1 22/55/1
f 109/78/1 245/99/1 251/226/1
f 107/56/1 167/54/1 66/45/1 77/55/1
f 134/65/1 39/45/1 54/55/1 132/66/1
f 132/66/1 232/224/1 234/90/1 134/65/1
f 234/90/1 238/91/1 240/88/1
f 104/192/1 229/215/1 98/227/1 164/47/1
f 164/47/1 98/227/1 73/79/1 89/48/1
f 160/84/1 154/73/1 186/113/1 192/86/1
f 192/86/1 186/113/1 9/79/1 27/48/1
f 174/80/1 128/60/1 222/228/1 122/82/1
f 122/82/1 222/228/1 227/229/1
f 219/111/1 220/230/1 138/231/1 194/103/1
f 138/231/1 25/79/1 57/48/1 143/86/1
f 143/86/1 212/232/1 194/103/1 138/231/1
f 193/233/2 209/89/2 144/65/2 217/234/2
f 172/47/1 113/67/1 81/79/1 84/48/1
f 120/192/1 211/70/1 113/67/1 172/47/1
f 183/110/1 178/113/1 43/79/1 45/48/1
f 151/74/1 146/73/1 178/113/1 183/110/1
f 105/82/1 206/81/1 213/235/1
f 112/60/1 165/80/1 90/79/1 92/48/1
f 136/86/1 130/102/1 65/79/1 67/48/1
f 136/86/1 274/232/1 273/103/1 130/102/1
f 273/103/1 198/236/1 200/100/1
f 26/19/4 273/20/4 274/237/4 275/238/4
f 26/19/4 275/238/4 280/239/4 279/240/4
f 7/10/4 278/241/4 277/242/4 266/26/4
f 278/241/4 7/10/4 26/19/4 279/240/4
f 12/19/6 256/20/6 255/237/6 254/238/6
f 12/19/6 254/238/6 258/239/6 257/240/6
f 20/10/6 252/241/6 251/242/6 245/26/6
f 252/241/6 20/10/6 12/19/6 257/240/6
f 21/19/3 234/20/3 232/237/3 229/238/3
f 21/19/3 229/238/3 236/239/3 235/240/3
f 40/10/3 228/241/3 227/242/3 222/26/3
f 228/241/3 40/10/3 21/19/3 235/240/3
f 41/19/5 211/238/5 214/239/5 215/240/5
f 41/19/5 194/20/5 212/237/5 211/238/5
f 48/10/5 216/241/5 213/242/5 206/26/5
f 216/241/5 48/10/5 41/19/5 215/240/5
f 159/106/2 153/107/2 224/104/2 225/105/2
f 185/66/2 191/65/2 33/45/2 23/55/2
f 103/78/2 230/99/2 223/226/2
f 97/56/2 163/54/2 93/45/2 85/55/2
f 133/66/2 131/65/2 63/45/2 59/55/2
f 233/88/2 231/89/2 131/65/2 239/90/2
f 133/66/2 241/224/2 239/90/2 131/65/2
f 168/56/2 108/46/2 88/45/2 83/55/2
f 110/108/2 242/115/2 108/46/2 168/56/2
f 182/66/2 180/65/2 35/45/2 29/55/2
f 149/107/2 147/106/2 180/65/2 182/66/2
f 118/76/2 169/46/2 79/45/2 76/55/2
f 116/78/2 249/77/2 247/226/2
f 253/97/2 250/101/2 139/102/2 261/98/2
f 139/102/2 47/79/2 64/48/2 141/86/2
f 141/86/2 267/232/2 261/98/2 139/102/2
f 175/68/2 124/243/2 68/79/2 80/48/2
f 125/63/2 265/62/2 124/243/2 175/68/2
f 190/86/2 188/113/2 18/79/2 37/48/2
f 158/84/2 156/73/2 188/113/2 190/86/2
f 102/96/2 162/80/2 82/79/2 95/48/2
f 100/82/2 276/81/2 264/235/2
f 271/51/2 272/101/2 135/102/2 199/52/2
f 135/102/2 72/79/2 70/48/2 129/244/2
f 129/244/2 208/245/2 199/52/2 135/102/2
f 166/68/2 111/67/2 96/79/2 94/48/2
f 207/70/2 106/69/2 204/61/2
f 177/86/2 184/113/2 55/79/2 52/48/2
f 152/73/2 145/84/2 202/116/2 203/72/2
f 114/96/2 171/67/2 87/79/2 86/48/2
f 119/82/2 210/81/2 201/235/2
f 137/66/2 218/224/2 217/234/2 144/65/2
f 217/234/2 195/225/2 193/233/2
f 173/56/2 121/108/2 221/115/2 127/54/2
f 221/115/2 121/108/2 226/222/2
f 46/15/3 221/246/3 226/247/3 225/248/3
f 46/15/3 217/16/3 218/249/3 221/246/3
f 36/22/3 224/250/3 223/251/3 230/27/3
f 224/250/3 36/22/3 46/15/3 225/248/3
f 30/15/6 242/246/6 243/247/6 244/248/6
f 30/15/6 239/16/6 241/249/6 242/246/6
f 24/22/6 248/250/6 247/251/6 249/27/6
f 248/250/6 24/22/6 30/15/6 244/248/6
f 17/15/4 265/246/4 270/247/4 269/248/4
f 17/15/4 261/16/4 267/249/4 265/246/4
f 32/22/4 263/250/4 264/251/4 276/27/4
f 263/250/4 32/22/4 17/15/4 269/248/4
f 56/15/5 207/246/5 204/247/5 203/248/5
f 56/15/5 199/16/5 208/249/5 207/246/5
f 51/22/5 202/250/5 201/251/5 210/27/5
f 202/250/5 51/22/5 56/15/5 203/248/5
usemtl cogwheel_axis
f 284/18/3 10/10/3 4/216/3 283/217/3
f 8/218/3 14/219/3 285/220/3 287/221/3
f 4/10/6 2/216/6 282/8/6 283/18/6
f 5/218/6 8/219/6 287/220/6 286/221/6
f 282/18/4 2/10/4 11/216/4 281/217/4
f 288/221/4 15/218/4 5/219/4 286/220/4
f 11/10/5 10/216/5 284/217/5 281/18/5
f 14/218/5 15/219/5 288/220/5 285/221/5
usemtl axis_top
f 11/221/1 2/220/1 4/18/1 10/217/1
f 14/221/2 8/220/2 5/18/2 15/217/2
