# Blender 5.2.1 LTS
# www.blender.org
mtllib textures.mtl
o block_z
v 1.000000 1.000000 0.125000
v 0.000000 1.000000 0.125000
v 1.000000 -0.000000 0.125000
v 1.000000 -0.000000 0.000000
v 0.000000 1.000000 0.125000
v 0.000000 -0.000000 0.125000
v 0.000000 1.000000 -0.000000
v 1.000000 1.000000 0.875000
v 1.000000 0.000000 0.875000
v 0.000000 1.000000 0.875000
v 1.000000 -0.000000 0.125000
v 0.000000 0.000000 0.875000
v 0.937500 0.937500 0.875000
v 0.937500 0.937500 0.125000
v 0.937500 0.062500 0.875000
v 0.937500 0.062500 0.125000
v 0.062500 0.937500 0.125000
v 0.062500 0.937500 0.875000
v 0.062500 0.062500 0.125000
v 0.062500 0.062500 0.875000
v 1.000000 0.000000 0.875000
v 1.000000 0.000000 1.000000
v 1.000000 1.000000 0.875000
v 1.000000 1.000000 1.000000
v 1.000000 -0.000000 0.000000
v 1.000000 -0.000000 0.125000
v 1.000000 1.000000 -0.000000
v 1.000000 1.000000 0.125000
v 0.000000 0.000000 1.000000
v 0.000000 1.000000 1.000000
v 1.000000 0.000000 1.000000
v 1.000000 1.000000 1.000000
v 0.000000 -0.000000 0.000000
v 0.000000 1.000000 -0.000000
v 1.000000 -0.000000 0.000000
v 1.000000 1.000000 -0.000000
v 1.000000 1.000000 0.125000
v 1.000000 1.000000 -0.000000
v 0.000000 1.000000 -0.000000
v 0.000000 1.000000 0.125000
v 1.000000 1.000000 1.000000
v 1.000000 1.000000 0.875000
v 0.000000 1.000000 0.875000
v 0.000000 1.000000 1.000000
v 0.000000 -0.000000 0.000000
v 0.000000 -0.000000 0.125000
v 0.000000 1.000000 0.875000
v 0.000000 1.000000 1.000000
v 0.000000 0.000000 0.875000
v 0.000000 0.000000 1.000000
v 0.000000 -0.000000 0.000000
v 0.000000 -0.000000 0.125000
v 1.000000 0.000000 1.000000
v 1.000000 0.000000 0.875000
v 0.000000 0.000000 0.875000
v 0.000000 0.000000 1.000000
vn -0.0000 1.0000 -0.0000
vn -0.0000 -1.0000 -0.0000
vn -0.0000 -0.0000 -1.0000
vn -0.0000 -0.0000 1.0000
vn 1.0000 -0.0000 -0.0000
vn -1.0000 -0.0000 -0.0000
vt 0.000000 0.000000
vt 1.000000 0.000000
vt 1.000000 0.125000
vt 0.000000 0.125000
vt 0.000000 0.875000
vt 1.000000 0.875000
vt 1.000000 1.000000
vt 0.000000 1.000000
vt 0.000000 0.375000
vt 0.000000 0.250000
vt 1.000000 0.250000
vt 1.000000 0.375000
vt 0.000000 0.750000
vt 0.000000 0.625000
vt 1.000000 0.625000
vt 1.000000 0.750000
vt 0.125000 0.062500
vt 0.875000 0.062500
vt 0.875000 0.937500
vt 0.125000 0.937500
vt 0.062500 0.125000
vt 0.937500 0.125000
vt 0.937500 0.875000
vt 0.062500 0.875000
vt 0.062500 0.937500
vt 0.937500 0.937500
vt 0.937500 0.062500
vt 0.062500 0.062500
vt -0.000000 0.812500
vt 0.062500 0.750000
vt 0.937500 0.750000
vt 1.000000 0.812500
vt 0.062500 0.250000
vt 0.000000 0.187500
vt 1.000000 0.187500
vt 0.937500 0.250000
vt 0.062500 0.937500
vt 0.062500 0.062500
s 0
g north
usemtl andesite_casing
f 35/1/3 33/2/3 34/7/3 36/8/3
g south
f 29/1/4 31/2/4 32/7/4 30/8/4
g up
usemtl encased_border_1
f 44/1/1 41/2/1 42/3/1 43/4/1
f 40/5/1 37/6/1 38/7/1 39/8/1
g down
f 55/5/2 54/6/2 53/7/2 56/8/2
f 51/1/2 4/2/2 11/3/2 52/4/2
g east
f 26/9/5 25/10/5 27/11/5 28/12/5
f 22/13/5 21/14/5 23/15/5 24/16/5
g west
f 49/9/6 50/10/6 48/11/6 47/12/6
f 45/13/6 46/14/6 2/15/6 7/16/6
g off
usemtl gearbox_1
f 18/21/1 13/22/1 14/23/1 17/24/1
f 19/21/2 16/22/2 15/23/2 20/24/2
usemtl gearbox_2
f 15/17/5 16/18/5 14/19/5 13/20/5
f 19/17/6 20/18/6 18/19/6 17/20/6
usemtl gearbox_border
f 8/8/3 13/25/3 18/26/3 10/7/3
f 9/1/3 12/2/3 20/27/3 15/28/3
f 9/29/3 15/30/3 13/31/3 8/32/3
f 20/33/3 12/34/3 10/35/3 18/36/3
f 5/8/4 17/37/4 14/26/4 1/7/4
f 6/1/4 3/2/4 16/27/4 19/38/4
f 16/33/4 3/34/4 1/35/4 14/36/4
f 6/29/4 19/30/4 17/31/4 5/32/4
