# Blender 5.2.1 LTS
# www.blender.org
mtllib textures.mtl
o block
v 0.000000 0.875000 1.000000
v 0.000000 0.875000 -0.000000
v 1.000000 0.875000 1.000000
v 1.000000 0.875000 -0.000000
v 0.000000 0.875000 -0.000000
v 0.000000 0.875000 1.000000
v 1.000000 0.125000 1.000000
v 1.000000 0.125000 0.000000
v 0.000000 1.000000 1.000000
v 0.000000 1.000000 -0.000000
v 0.000000 0.125000 0.000000
v 0.000000 0.125000 1.000000
v 0.937500 0.875000 0.937500
v 0.937500 0.875000 0.062500
v 0.937500 0.125000 0.937500
v 0.937500 0.125000 0.062500
v 0.062500 0.875000 0.062500
v 0.062500 0.875000 0.937500
v 0.062500 0.125000 0.062500
v 0.062500 0.125000 0.937500
v 1.000000 1.000000 1.000000
v 1.000000 1.000000 -0.000000
v 0.000000 1.000000 -0.000000
v 0.000000 1.000000 1.000000
v 1.000000 0.000000 1.000000
v 1.000000 -0.000000 0.000000
v 0.000000 -0.000000 0.000000
v 0.000000 0.000000 1.000000
v 1.000000 1.000000 -0.000000
v 1.000000 0.875000 -0.000000
v 0.000000 1.000000 -0.000000
v 0.000000 0.875000 -0.000000
v 1.000000 0.125000 0.000000
v 1.000000 -0.000000 0.000000
v 0.000000 0.125000 0.000000
v 0.000000 -0.000000 0.000000
v 1.000000 1.000000 1.000000
v 1.000000 0.875000 1.000000
v 0.000000 1.000000 1.000000
v 0.000000 0.875000 1.000000
v 1.000000 0.125000 1.000000
v 1.000000 0.000000 1.000000
v 0.000000 0.125000 1.000000
v 0.000000 0.000000 1.000000
v 1.000000 1.000000 1.000000
v 1.000000 1.000000 -0.000000
v 1.000000 0.875000 1.000000
v 1.000000 0.875000 -0.000000
v 1.000000 0.125000 1.000000
v 1.000000 0.125000 0.000000
v 1.000000 0.000000 1.000000
v 1.000000 -0.000000 0.000000
v 0.000000 0.125000 0.000000
v 0.000000 0.125000 1.000000
v 0.000000 -0.000000 0.000000
v 0.000000 0.000000 1.000000
vn -0.0000 1.0000 -0.0000
vn -0.0000 -0.0000 -1.0000
vn -0.0000 -0.0000 1.0000
vn 1.0000 -0.0000 -0.0000
vn -1.0000 -0.0000 -0.0000
vn -0.0000 -1.0000 -0.0000
vt 0.000000 0.000000
vt 1.000000 0.000000
vt 1.000000 1.000000
vt 0.000000 1.000000
vt 0.000000 0.875000
vt 1.000000 0.875000
vt 1.000000 0.125000
vt 0.000000 0.125000
vt 0.062500 0.125000
vt 0.937500 0.125000
vt 0.937500 0.875000
vt 0.062500 0.875000
vt 0.062500 0.937500
vt 0.937500 0.937500
vt 0.937500 0.062500
vt 0.062500 0.062500
vt 0.062500 0.250000
vt 0.000000 0.187500
vt 1.000000 0.187500
vt 0.937500 0.250000
vt 0.000000 0.812500
vt 0.062500 0.750000
vt 0.937500 0.750000
vt 1.000000 0.812500
vt 1.000000 0.187500
vt -0.000000 0.812500
s 0
g up
usemtl andesite_casing
f 24/1/1 21/2/1 22/3/1 23/4/1
g down
f 27/1/6 26/2/6 25/3/6 28/4/6
g north
usemtl encased_border_1
f 30/5/2 32/6/2 31/3/2 29/4/2
f 34/1/2 36/2/2 35/7/2 33/8/2
g south
f 44/1/3 42/2/3 41/7/3 43/8/3
f 40/5/3 38/6/3 37/3/3 39/4/3
g east
f 51/1/4 52/2/4 50/7/4 49/8/4
f 47/5/4 48/6/4 46/3/4 45/4/4
g west
f 55/1/5 56/2/5 54/7/5 53/8/5
f 2/5/5 1/6/5 9/3/5 10/4/5
g off
usemtl gearbox_1
f 16/9/2 19/10/2 17/11/2 14/12/2
f 15/9/4 16/10/4 14/11/4 13/12/4
f 20/9/3 15/10/3 13/11/3 18/12/3
f 19/9/5 20/10/5 18/11/5 17/12/5
usemtl gearbox_border
f 11/4/1 19/13/1 16/14/1 8/3/1
f 12/1/1 7/2/1 15/15/1 20/16/1
f 15/17/1 7/18/1 8/19/1 16/20/1
f 12/21/1 20/22/1 19/23/1 11/24/1
f 5/1/6 4/2/6 14/15/6 17/16/6
f 6/4/6 18/13/6 13/14/6 3/3/6
f 14/17/6 4/18/6 3/25/6 13/20/6
f 5/26/6 17/22/6 18/23/6 6/24/6
