# Blender 5.2.1 LTS
# www.blender.org
mtllib textures.mtl
o block_x
v 0.125000 1.000000 1.000000
v 0.125000 1.000000 -0.000000
v 0.125000 0.000000 1.000000
v 0.125000 -0.000000 0.000000
v 0.000000 1.000000 1.000000
v 0.000000 1.000000 -0.000000
v 0.125000 1.000000 -0.000000
v 0.125000 1.000000 1.000000
v 0.875000 1.000000 -0.000000
v 0.875000 1.000000 1.000000
v 0.875000 -0.000000 0.000000
v 0.875000 0.000000 1.000000
v 0.875000 0.937500 0.937500
v 0.875000 0.937500 0.062500
v 0.875000 0.062500 0.937500
v 0.875000 0.062500 0.062500
v 0.125000 0.937500 0.062500
v 0.125000 0.937500 0.937500
v 0.125000 0.062500 0.062500
v 0.125000 0.062500 0.937500
v 0.000000 1.000000 -0.000000
v 0.000000 1.000000 1.000000
v 0.000000 -0.000000 0.000000
v 0.000000 0.000000 1.000000
v 1.000000 1.000000 1.000000
v 1.000000 1.000000 -0.000000
v 1.000000 0.000000 1.000000
v 1.000000 -0.000000 0.000000
v 0.125000 1.000000 1.000000
v 0.125000 0.000000 1.000000
v 0.000000 1.000000 1.000000
v 0.000000 0.000000 1.000000
v 1.000000 1.000000 1.000000
v 1.000000 0.000000 1.000000
v 0.875000 1.000000 1.000000
v 0.875000 0.000000 1.000000
v 0.125000 1.000000 -0.000000
v 0.125000 -0.000000 0.000000
v 0.000000 1.000000 -0.000000
v 0.000000 -0.000000 0.000000
v 1.000000 1.000000 -0.000000
v 1.000000 -0.000000 0.000000
v 0.875000 1.000000 -0.000000
v 0.875000 -0.000000 0.000000
v 0.125000 0.000000 1.000000
v 0.125000 -0.000000 0.000000
v 0.000000 -0.000000 0.000000
v 0.000000 0.000000 1.000000
v 1.000000 0.000000 1.000000
v 1.000000 -0.000000 0.000000
v 0.875000 -0.000000 0.000000
v 0.875000 0.000000 1.000000
v 1.000000 1.000000 1.000000
v 1.000000 1.000000 -0.000000
v 0.875000 1.000000 -0.000000
v 0.875000 1.000000 1.000000
vn -0.0000 1.0000 -0.0000
vn -0.0000 -1.0000 -0.0000
vn -0.0000 -0.0000 -1.0000
vn -0.0000 -0.0000 1.0000
vn 1.0000 -0.0000 -0.0000
vn -1.0000 -0.0000 -0.0000
vt 0.000000 0.375000
vt 0.000000 0.250000
vt 1.000000 0.250000
vt 1.000000 0.375000
vt 0.000000 0.750000
vt 0.000000 0.625000
vt 1.000000 0.625000
vt 1.000000 0.750000
vt 0.000000 0.000000
vt 1.000000 0.000000
vt 1.000000 1.000000
vt 0.000000 1.000000
vt 0.125000 0.062500
vt 0.875000 0.062500
vt 0.875000 0.937500
vt 0.125000 0.937500
vt 0.000000 0.812500
vt 0.062500 0.750000
vt 0.937500 0.750000
vt 1.000000 0.812500
vt 0.000000 0.187500
vt 1.000000 0.187500
vt 0.937500 0.250000
vt 0.062500 0.250000
vt 0.062500 0.937500
vt 0.937500 0.937500
vt 0.000000 1.000000
vt 0.000000 0.000000
vt 1.000000 0.000000
vt 0.937500 0.062500
vt 0.062500 0.062500
vt 0.937500 0.250000
vt 0.937500 0.750000
vt 1.000000 1.000000
vt -0.000000 0.000000
s 0
g east
usemtl andesite_casing
f 27/9/5 28/10/5 26/11/5 25/12/5
g west
f 23/9/6 24/10/6 22/11/6 21/12/6
g up
usemtl encased_border_1
f 56/1/1 53/2/1 54/3/1 55/4/1
f 5/5/1 8/6/1 7/7/1 6/8/1
g down
f 51/1/2 50/2/2 49/3/2 52/4/2
f 47/5/2 46/6/2 45/7/2 48/8/2
g north
f 42/5/3 44/6/3 43/7/3 41/8/3
f 38/1/3 40/2/3 39/3/3 37/4/3
g south
f 32/5/4 30/6/4 29/7/4 31/8/4
f 36/1/4 34/2/4 33/3/4 35/4/4
g off
usemtl gearbox_2
f 16/13/3 19/14/3 17/15/3 14/16/3
f 20/13/4 15/14/4 13/15/4 18/16/4
f 18/13/1 13/14/1 14/15/1 17/16/1
f 19/13/2 16/14/2 15/15/2 20/16/2
usemtl gearbox_border
f 11/17/6 16/18/6 14/19/6 9/20/6
f 12/21/6 10/22/6 13/23/6 15/24/6
f 14/25/6 13/26/6 10/11/6 9/27/6
f 11/28/6 12/29/6 15/30/6 16/31/6
f 4/21/5 2/22/5 17/32/5 19/24/5
f 3/17/5 20/18/5 18/33/5 1/20/5
f 18/25/5 17/26/5 2/34/5 1/12/5
f 3/35/5 4/10/5 19/30/5 20/31/5
