# Blender 5.2.1 LTS
# www.blender.org
mtllib textures.mtl
o item_vertical
v 0.125000 1.000000 1.000000
v 0.625000 1.000000 0.625000
v 0.625000 1.000000 0.375000
v 0.625000 0.625000 1.000000
v 0.125000 1.000000 -0.000000
v 0.625000 0.000000 0.625000
v 0.625000 0.000000 0.375000
v 0.625000 0.625000 -0.000000
v 0.375000 1.000000 0.375000
v 0.125000 0.000000 1.000000
v 0.625000 0.375000 1.000000
v 0.375000 1.000000 0.625000
v 0.625000 0.375000 -0.000000
v 0.375000 0.000000 0.375000
v 0.125000 0.000000 0.000000
v 0.375000 0.000000 0.625000
v 0.375000 0.625000 -0.000000
v 0.000000 1.000000 1.000000
v 0.375000 0.625000 1.000000
v 0.000000 1.000000 -0.000000
v 0.375000 0.375000 -0.000000
v 0.375000 0.375000 1.000000
v 0.875000 1.000000 -0.000000
v 0.875000 1.000000 1.000000
v 0.875000 0.000000 0.000000
v 0.875000 0.000000 1.000000
v 0.875000 0.937500 0.937500
v 0.875000 0.937500 0.062500
v 0.875000 0.062500 0.937500
v 0.875000 0.062500 0.062500
v 0.125000 0.937500 0.062500
v 0.125000 0.937500 0.937500
v 0.125000 0.062500 0.062500
v 0.125000 0.062500 0.937500
v 0.000000 0.000000 0.000000
v 0.000000 0.000000 1.000000
v 1.000000 1.000000 1.000000
v 1.000000 1.000000 -0.000000
v 1.000000 0.000000 1.000000
v 1.000000 0.000000 0.000000
v 0.375000 0.375000 0.062500
v 0.375000 0.625000 0.062500
v 0.625000 0.375000 0.062500
v 0.625000 0.625000 0.062500
v 0.625000 0.375000 0.937500
v 0.625000 0.625000 0.937500
v 0.375000 0.375000 0.937500
v 0.375000 0.625000 0.937500
v 0.625000 0.937500 0.375000
v 0.625000 0.937500 0.625000
v 0.375000 0.937500 0.375000
v 0.375000 0.937500 0.625000
v 0.625000 0.062500 0.375000
v 0.625000 0.062500 0.625000
v 0.375000 0.062500 0.375000
v 0.375000 0.062500 0.625000
vn 1.0000 -0.0000 -0.0000
vn -1.0000 -0.0000 -0.0000
vn -0.0000 1.0000 -0.0000
vn -0.0000 -1.0000 -0.0000
vn -0.0000 -0.0000 -1.0000
vn -0.0000 -0.0000 1.0000
vt 0.000000 0.000000
vt 1.000000 0.000000
vt 1.000000 1.000000
vt 0.000000 1.000000
vt 0.000000 0.375000
vt 0.000000 0.250000
vt 1.000000 0.250000
vt 1.000000 0.375000
vt 0.000000 0.750000
vt 0.000000 0.625000
vt 1.000000 0.625000
vt 1.000000 0.750000
vt 0.125000 0.937500
vt 0.125000 0.062500
vt 0.375000 0.375000
vt 0.375000 0.625000
vt 0.875000 0.062500
vt 0.625000 0.375000
vt 0.000000 0.812500
vt 0.062500 0.750000
vt 0.937500 0.750000
vt 1.000000 0.812500
vt 0.000000 0.187500
vt 1.000000 0.187500
vt 0.937500 0.250000
vt 0.062500 0.250000
vt 0.062500 0.937500
vt 0.937500 0.937500
vt 0.937500 0.062500
vt 0.062500 0.062500
vt 0.625000 0.625000
vt 0.625000 0.937500
vt 0.625000 1.000000
vt 0.375000 1.000000
vt 0.375000 0.937500
vt 0.375000 0.062500
vt 0.375000 0.000000
vt 0.625000 0.000000
vt 0.625000 0.062500
vt 0.375000 0.937500
vt 0.625000 0.937500
vt 0.375000 0.000000
vt 0.625000 0.062500
vt 0.375000 0.062500
vt 0.875000 0.937500
s 0
usemtl andesite_casing
f 39/1/1 40/2/1 38/3/1 37/4/1
f 35/1/2 36/2/2 18/3/2 20/4/2
usemtl encased_border_1
f 24/5/3 37/6/3 38/7/3 23/8/3
f 18/9/3 1/10/3 5/11/3 20/12/3
f 25/5/4 40/6/4 39/7/4 26/8/4
f 35/9/4 15/10/4 10/11/4 36/12/4
f 40/9/5 25/10/5 23/11/5 38/12/5
f 15/5/5 35/6/5 20/7/5 5/8/5
f 36/9/6 10/10/6 1/11/6 18/12/6
f 26/5/6 39/6/6 37/7/6 24/8/6
usemtl gearbox_2
f 28/13/5 30/14/5 43/15/5 44/16/5
f 43/15/5 30/14/5 33/17/5 41/18/5
f 45/18/6 47/15/6 34/14/6 29/17/6
f 32/13/6 34/14/6 47/15/6 48/16/6
f 51/16/3 31/13/3 32/14/3 52/15/3
f 52/15/3 32/14/3 27/17/3 50/18/3
f 55/15/4 33/14/4 30/17/4 53/18/4
f 34/13/4 33/14/4 55/15/4 56/16/4
f 50/18/3 27/17/3 28/45/3 49/31/3
f 49/31/3 28/45/3 31/13/3 51/16/3
f 42/31/5 31/45/5 28/13/5 44/16/5
f 41/18/5 33/17/5 31/45/5 42/31/5
f 46/31/6 27/45/6 32/13/6 48/16/6
f 29/17/6 27/45/6 46/31/6 45/18/6
f 53/18/4 30/17/4 29/45/4 54/31/4
f 54/31/4 29/45/4 34/13/4 56/16/4
usemtl gearbox_border
f 25/19/2 30/20/2 28/21/2 23/22/2
f 26/23/2 24/24/2 27/25/2 29/26/2
f 28/27/2 27/28/2 24/3/2 23/4/2
f 25/1/2 26/2/2 29/29/2 30/30/2
f 15/23/1 5/24/1 31/25/1 33/26/1
f 10/19/1 34/20/1 32/21/1 1/22/1
f 32/27/1 31/28/1 5/3/1 1/4/1
f 10/1/1 15/2/1 33/29/1 34/30/1
usemtl axis_top
f 13/31/5 21/16/5 17/15/5 8/18/5
f 22/15/6 11/18/6 4/31/6 19/16/6
f 12/15/3 2/18/3 3/31/3 9/16/3
f 14/15/4 7/18/4 6/31/4 16/16/4
usemtl axis
f 43/32/1 13/33/1 8/34/1 44/35/1
f 46/36/1 4/37/1 11/38/1 45/39/1
f 47/36/2 22/37/2 19/38/2 48/39/2
f 17/33/2 21/34/2 41/35/2 42/32/2
f 8/33/3 17/34/3 42/35/3 44/32/3
f 19/37/3 4/38/3 46/39/3 48/36/3
f 45/36/4 11/37/4 22/38/4 47/39/4
f 41/32/4 21/33/4 13/34/4 43/35/4
f 9/33/5 3/34/5 49/40/5 51/41/5
f 7/42/5 14/38/5 55/43/5 53/44/5
f 3/33/1 2/34/1 50/40/1 49/41/1
f 6/42/1 7/38/1 53/43/1 54/44/1
f 50/41/6 2/33/6 12/34/6 52/40/6
f 56/44/6 16/42/6 6/38/6 54/43/6
f 12/33/2 9/34/2 51/40/2 52/41/2
f 14/42/2 16/38/2 56/43/2 55/44/2
