# Blender 5.2.1 LTS
# www.blender.org
mtllib textures.mtl
o end_vertical
v 1.000000 0.875000 1.000000
v 1.000000 0.125000 1.000000
v 0.937500 0.875000 1.000000
v 0.937500 0.125000 1.000000
v 1.000000 1.000000 -0.000000
v 1.000000 -0.000000 0.000000
v 0.000000 1.000000 -0.000000
v 1.000000 0.000000 1.000000
v 0.000000 -0.000000 0.000000
v 1.000000 0.875000 1.000000
v 0.000000 0.000000 1.000000
v 0.875000 1.000000 1.000000
v 0.125000 1.000000 1.000000
v 0.000000 -0.000000 0.000000
v 0.875000 1.000000 0.125000
v 0.875000 0.937500 0.125000
v 0.125000 1.000000 0.125000
v 0.125000 0.937500 0.125000
v 0.875000 0.937500 1.000000
v 0.125000 0.937500 1.000000
v 0.000000 1.000000 1.000000
v 0.875000 0.000000 1.000000
v 0.125000 0.000000 1.000000
v 0.000000 1.000000 -0.000000
v 0.875000 0.062500 0.125000
v 0.875000 -0.000000 0.125000
v 0.125000 0.062500 0.125000
v 0.125000 -0.000000 0.125000
v 0.875000 0.062500 1.000000
v 0.125000 0.062500 1.000000
v 0.125000 1.000000 0.125000
v 0.062500 0.875000 1.000000
v 0.062500 0.125000 1.000000
v 0.000000 0.875000 1.000000
v 0.000000 0.125000 1.000000
v 0.875000 1.000000 0.125000
v 0.125000 1.000000 1.000000
v 0.875000 1.000000 1.000000
v 0.000000 1.000000 1.000000
v 0.000000 1.000000 -0.000000
v 1.000000 1.000000 -0.000000
v 1.000000 1.000000 1.000000
v 0.000000 0.875000 1.000000
v 0.000000 0.125000 1.000000
v 1.000000 -0.000000 0.000000
v 0.000000 -0.000000 0.000000
v 0.000000 0.000000 1.000000
v 0.875000 0.000000 1.000000
v 0.125000 0.000000 1.000000
v 0.875000 -0.000000 0.125000
v 0.125000 -0.000000 0.125000
v 1.000000 0.125000 1.000000
v 1.000000 1.000000 1.000000
v 1.000000 1.000000 -0.000000
v 1.000000 0.000000 1.000000
v 1.000000 -0.000000 0.000000
vn -0.0000 1.0000 -0.0000
vn -0.0000 -1.0000 -0.0000
vn -0.0000 -0.0000 -1.0000
vn -0.0000 -0.0000 1.0000
vn 1.0000 -0.0000 -0.0000
vn -1.0000 -0.0000 -0.0000
vt 1.000000 0.875000
vt 1.000000 1.000000
vt 0.000000 1.000000
vt 0.125000 0.875000
vt 1.000000 0.000000
vt 1.000000 0.125000
vt 0.125000 0.125000
vt 0.000000 0.000000
vt 0.875000 0.375000
vt 0.125000 0.375000
vt 0.000000 0.250000
vt 1.000000 0.250000
vt 0.125000 0.125000
vt -0.000000 0.250000
vt 0.125000 0.875000
vt 0.125000 0.562500
vt 0.125000 0.500000
vt 0.875000 0.500000
vt 0.875000 0.562500
vt 0.125000 0.750000
vt 0.125000 0.687500
vt 0.875000 0.687500
vt 0.875000 0.750000
vt 0.000000 0.875000
vt 0.000000 0.125000
vt 1.000000 0.125000
vt 1.000000 0.875000
vt 0.125000 0.937500
vt 0.875000 0.937500
vt 0.875000 1.000000
vt 0.125000 1.000000
vt 1.000000 0.937500
vt 0.000000 0.937500
s 0
g up
usemtl encased_chain_drive_3
f 38/1/1 42/2/1 41/3/1 36/4/1
f 39/5/1 37/6/1 31/7/1 40/8/1
f 31/9/1 36/10/1 41/11/1 40/12/1
g down
f 46/8/2 51/13/2 49/6/2 47/5/2
f 45/3/2 8/2/2 48/1/2 50/15/2
usemtl encased_chain_drive_4
f 46/14/2 45/12/2 50/9/2 51/10/2
g south
f 4/16/4 2/17/4 1/18/4 3/19/4
f 35/20/4 33/21/4 32/22/4 34/23/4
g north
usemtl side
f 6/8/3 9/5/3 7/2/3 5/3/3
g east
f 10/24/5 56/5/5 54/2/5 53/3/5
f 56/5/5 10/24/5 52/25/5 55/8/5
g west
f 24/3/6 44/26/6 43/27/6 21/2/6
f 14/8/6 11/5/6 44/26/6 24/3/6
g off
usemtl encased_border_2
f 18/28/4 16/29/4 15/30/4 17/31/4
f 16/28/6 19/32/6 12/2/6 15/31/6
f 20/33/5 18/29/5 17/30/5 13/3/5
f 28/28/4 26/29/4 25/30/4 27/31/4
f 26/28/6 22/32/6 29/2/6 25/31/6
f 23/33/5 28/29/5 27/30/5 30/3/5
usemtl encased_chain_drive_1
f 20/6/1 19/1/1 16/15/1 18/13/1
f 27/15/2 25/13/2 29/6/2 30/1/2
