# Blender 5.2.1 LTS
# www.blender.org
mtllib textures.mtl
o end_horizontal
v 0.875000 1.000000 -0.000000
v 0.875000 0.937500 -0.000000
v 0.125000 1.000000 -0.000000
v 0.125000 0.937500 -0.000000
v 0.000000 0.125000 0.000000
v 0.000000 0.875000 -0.000000
v 0.062500 0.875000 0.875000
v 0.062500 0.125000 0.875000
v 0.000000 0.875000 0.875000
v 0.000000 0.125000 0.875000
v 0.062500 0.125000 0.000000
v 0.062500 0.875000 -0.000000
v 0.000000 1.000000 -0.000000
v 0.000000 -0.000000 0.000000
v 0.000000 0.000000 1.000000
v 0.000000 0.125000 0.000000
v 1.000000 0.125000 0.000000
v 1.000000 0.875000 -0.000000
v 1.000000 0.875000 0.875000
v 1.000000 0.125000 0.875000
v 0.937500 0.875000 0.875000
v 0.937500 0.125000 0.875000
v 0.937500 0.125000 0.000000
v 0.937500 0.875000 -0.000000
v 0.875000 0.062500 0.000000
v 0.875000 -0.000000 0.000000
v 0.125000 0.062500 0.000000
v 0.125000 -0.000000 0.000000
v 0.875000 1.000000 -0.000000
v 0.125000 1.000000 -0.000000
v 0.000000 1.000000 -0.000000
v 0.000000 1.000000 1.000000
v 1.000000 1.000000 1.000000
v 1.000000 1.000000 -0.000000
v 0.000000 0.000000 1.000000
v 0.000000 1.000000 1.000000
v 1.000000 1.000000 1.000000
v 1.000000 0.000000 1.000000
v 0.000000 0.000000 1.000000
v 0.000000 -0.000000 0.000000
v 1.000000 0.000000 1.000000
v 1.000000 -0.000000 0.000000
v 0.875000 -0.000000 0.000000
v 0.125000 -0.000000 0.000000
v 1.000000 1.000000 1.000000
v 1.000000 1.000000 -0.000000
v 1.000000 0.000000 1.000000
v 1.000000 -0.000000 0.000000
v 1.000000 0.125000 0.000000
v 1.000000 0.875000 -0.000000
v 1.000000 0.875000 0.875000
v 1.000000 0.125000 0.875000
v 0.000000 1.000000 1.000000
v 0.000000 0.875000 -0.000000
v 0.000000 0.875000 0.875000
v 0.000000 0.125000 0.875000
vn -0.0000 1.0000 -0.0000
vn -0.0000 -1.0000 -0.0000
vn -0.0000 -0.0000 -1.0000
vn -0.0000 -0.0000 1.0000
vn 1.0000 -0.0000 -0.0000
vn -1.0000 -0.0000 -0.0000
vt 1.000000 0.000000
vt 1.000000 1.000000
vt 0.000000 0.125000
vt 0.000000 0.000000
vt 0.000000 1.000000
vt 0.000000 0.875000
vt 1.000000 0.125000
vt 1.000000 0.875000
vt 0.125000 0.500000
vt 0.875000 0.500000
vt 0.875000 0.562500
vt 0.125000 0.562500
vt 0.125000 0.875000
vt 1.000000 0.125000
vt 0.125000 0.125000
vt 0.000000 0.750000
vt 0.125000 0.625000
vt 0.875000 0.625000
vt 1.000000 0.750000
vt 0.125000 0.375000
vt 0.000000 0.250000
vt 1.000000 0.250000
vt 0.875000 0.375000
vt 0.125000 1.000000
vt 0.125000 0.937500
vt 0.875000 0.937500
vt 0.875000 1.000000
vt 0.875000 0.000000
vt 0.875000 0.062500
vt 0.000000 0.062500
vt 0.000000 0.937500
vt 0.125000 0.062500
vt 0.125000 0.000000
s 0
g up
usemtl side
f 32/1/1 33/2/1 30/3/1 31/4/1
f 33/2/1 34/5/1 29/6/1 30/3/1
g down
f 44/7/2 43/8/2 39/4/2 40/1/2
f 43/8/2 42/2/2 41/5/2 39/4/2
g south
f 35/1/4 38/2/4 37/5/4 36/4/4
g north
usemtl encased_chain_drive_4
f 2/9/3 4/10/3 3/11/3 1/12/3
f 26/11/3 28/12/3 27/9/3 25/10/3
g east
usemtl encased_chain_drive_3
f 45/5/5 51/13/5 50/8/5 46/2/5
f 47/4/5 48/1/5 49/14/5 52/15/5
f 47/16/5 52/17/5 51/18/5 45/19/5
g west
f 56/20/6 15/21/6 53/22/6 55/23/6
f 54/14/6 55/15/6 53/4/6 13/1/6
f 14/2/6 15/5/6 56/13/6 16/8/6
g off
usemtl encased_border_2
f 8/24/3 10/25/3 9/26/3 7/27/3
f 10/28/1 8/29/1 11/30/1 5/4/1
f 6/5/2 12/31/2 7/26/2 9/27/2
f 20/32/3 22/33/3 21/28/3 19/29/3
f 22/26/1 20/27/1 17/5/1 23/31/1
f 24/28/2 18/29/2 19/30/2 21/4/2
usemtl encased_chain_drive_1
f 11/8/6 8/13/6 7/15/6 12/14/6
f 22/15/5 23/14/5 24/8/5 21/13/5
