# Blender 5.2.1 LTS
# www.blender.org
mtllib textures.mtl
o item
v 0.875000 0.875000 0.937500
v 0.625000 0.625000 1.000000
v 0.625000 0.625000 -0.000000
v 0.875000 0.125000 0.937500
v 0.125000 0.875000 0.937500
v 0.625000 0.375000 1.000000
v 0.125000 0.125000 0.937500
v 0.625000 0.375000 -0.000000
v 1.000000 1.000000 1.000000
v 0.375000 0.625000 -0.000000
v 0.375000 0.625000 1.000000
v 1.000000 1.000000 -0.000000
v 1.000000 0.000000 1.000000
v 0.375000 0.375000 -0.000000
v 1.000000 0.000000 0.000000
v 0.375000 0.375000 1.000000
v 0.000000 1.000000 -0.000000
v 0.000000 1.000000 1.000000
v 0.000000 0.000000 0.000000
v 0.000000 0.000000 1.000000
v 0.875000 0.875000 -0.000000
v 0.875000 0.875000 0.062500
v 0.875000 0.125000 -0.000000
v 0.875000 0.125000 0.062500
v 0.125000 0.875000 0.062500
v 0.125000 0.875000 -0.000000
v 0.125000 0.125000 0.062500
v 0.125000 0.125000 -0.000000
v 0.875000 0.875000 1.000000
v 0.875000 0.125000 1.000000
v 0.125000 0.875000 1.000000
v 0.125000 0.125000 1.000000
v 0.375000 0.375000 0.062500
v 0.625000 0.375000 0.062500
v 0.375000 0.625000 0.062500
v 0.625000 0.625000 0.062500
v 0.375000 0.375000 0.937500
v 0.625000 0.625000 0.937500
v 0.625000 0.375000 0.937500
v 0.375000 0.625000 0.937500
vn -0.0000 1.0000 -0.0000
vn -0.0000 -1.0000 -0.0000
vn 1.0000 -0.0000 -0.0000
vn -1.0000 -0.0000 -0.0000
vn -0.0000 -0.0000 -1.0000
vn -0.0000 -0.0000 1.0000
vt 0.000000 0.000000
vt 1.000000 0.000000
vt 1.000000 1.000000
vt 0.000000 1.000000
vt 0.875000 0.875000
vt 0.125000 0.875000
vt 0.375000 0.625000
vt 0.625000 0.625000
vt 0.125000 0.125000
vt 0.375000 0.375000
vt 0.875000 0.125000
vt 0.625000 0.375000
vt 0.125000 0.375000
vt 0.000000 0.250000
vt 1.000000 0.250000
vt 0.875000 0.375000
vt 0.000000 0.750000
vt 0.125000 0.625000
vt 0.875000 0.625000
vt 1.000000 0.750000
vt 0.125000 1.000000
vt 0.125000 0.937500
vt 0.875000 0.937500
vt 0.875000 1.000000
vt 0.125000 0.062500
vt 0.125000 0.000000
vt 0.875000 0.000000
vt 0.875000 0.062500
vt 0.625000 0.625000
vt 0.375000 0.375000
vt 0.625000 0.375000
vt 0.625000 0.937500
vt 0.625000 1.000000
vt 0.375000 1.000000
vt 0.375000 0.937500
vt 0.375000 0.062500
vt 0.375000 0.000000
vt 0.625000 0.000000
vt 0.625000 0.062500
s 0
usemtl side
f 18/1/1 9/2/1 12/3/1 17/4/1
f 19/3/2 15/4/2 13/1/2 20/2/2
f 13/2/3 15/3/3 12/4/3 9/1/3
f 19/4/4 20/1/4 18/2/4 17/3/4
usemtl gearbox_3
f 25/5/5 22/6/5 36/7/5 35/8/5
f 36/7/5 22/6/5 24/9/5 34/10/5
f 4/11/6 1/5/6 38/8/6 39/12/6
f 5/6/6 7/9/6 37/10/6 40/7/6
f 38/8/6 1/5/6 5/6/6 40/7/6
f 37/10/6 7/9/6 4/11/6 39/12/6
f 33/12/5 27/11/5 25/5/5 35/8/5
f 34/10/5 24/9/5 27/11/5 33/12/5
usemtl encased_border_1
f 20/1/6 13/2/6 30/11/6 32/9/6
f 18/4/6 31/6/6 29/5/6 9/3/6
f 30/13/6 13/14/6 9/15/6 29/16/6
f 20/17/6 32/18/6 31/19/6 18/20/6
f 15/1/5 19/2/5 28/11/5 23/9/5
f 12/4/5 21/6/5 26/5/5 17/3/5
f 15/17/5 23/18/5 21/19/5 12/20/5
f 28/13/5 19/14/5 17/15/5 26/16/5
usemtl encased_border_2
f 23/21/4 24/22/4 22/23/4 21/24/4
f 27/25/3 28/26/3 26/27/3 25/28/3
f 27/22/1 24/23/1 23/24/1 28/21/1
f 26/26/2 21/27/2 22/28/2 25/25/2
f 4/21/4 30/22/4 29/23/4 1/24/4
f 32/25/3 7/26/3 5/27/3 31/28/3
f 32/22/1 30/23/1 4/24/1 7/21/1
f 5/26/2 1/27/2 29/28/2 31/25/2
usemtl axis
f 34/32/3 8/33/3 3/34/3 36/35/3
f 38/36/3 2/37/3 6/38/3 39/39/3
f 37/36/4 16/37/4 11/38/4 40/39/4
f 10/33/4 14/34/4 33/35/4 35/32/4
f 3/33/1 10/34/1 35/35/1 36/32/1
f 40/36/1 11/37/1 2/38/1 38/39/1
f 39/36/2 6/37/2 16/38/2 37/39/2
f 33/32/2 14/33/2 8/34/2 34/35/2
usemtl axis_top
f 8/29/5 14/7/5 10/30/5 3/31/5
f 16/30/6 6/31/6 2/29/6 11/7/6
