# Blender 5.2.1 LTS
# www.blender.org
mtllib textures.mtl
o middle_horizontal
v 0.875000 0.062500 1.000000
v 0.875000 0.000000 1.000000
v 0.125000 0.062500 1.000000
v 0.125000 0.000000 1.000000
v 0.125000 0.000000 1.000000
v 0.875000 0.000000 1.000000
v 1.000000 1.000000 -0.000000
v 1.000000 1.000000 1.000000
v 0.062500 0.125000 1.000000
v 0.062500 0.125000 0.000000
v 0.000000 0.125000 0.000000
v 0.000000 0.125000 1.000000
v 0.062500 0.875000 1.000000
v 0.062500 0.875000 -0.000000
v 0.000000 0.875000 -0.000000
v 0.000000 0.875000 1.000000
v 0.937500 0.875000 1.000000
v 0.937500 0.875000 -0.000000
v 0.937500 0.125000 1.000000
v 0.937500 0.125000 0.000000
v 1.000000 0.125000 1.000000
v 1.000000 0.125000 0.000000
v 1.000000 0.875000 1.000000
v 1.000000 0.875000 -0.000000
v 0.875000 0.062500 0.000000
v 0.875000 -0.000000 0.000000
v 0.125000 0.062500 0.000000
v 0.125000 -0.000000 0.000000
v 0.875000 1.000000 -0.000000
v 0.875000 0.937500 -0.000000
v 0.125000 1.000000 -0.000000
v 0.125000 0.937500 -0.000000
v 0.875000 1.000000 1.000000
v 0.875000 0.937500 1.000000
v 0.125000 1.000000 1.000000
v 0.125000 0.937500 1.000000
v 0.125000 1.000000 1.000000
v 0.875000 1.000000 1.000000
v 0.125000 1.000000 -0.000000
v 0.875000 1.000000 -0.000000
v 0.000000 1.000000 1.000000
v 0.000000 1.000000 -0.000000
v 1.000000 1.000000 -0.000000
v 1.000000 1.000000 1.000000
v 0.000000 1.000000 -0.000000
v 0.000000 1.000000 1.000000
v 0.000000 -0.000000 0.000000
v 0.000000 0.000000 1.000000
v 0.000000 0.125000 0.000000
v 0.000000 0.125000 1.000000
v 0.000000 0.875000 -0.000000
v 0.000000 0.875000 1.000000
v 1.000000 0.000000 1.000000
v 1.000000 -0.000000 0.000000
v 0.000000 -0.000000 0.000000
v 0.000000 0.000000 1.000000
v 0.875000 -0.000000 0.000000
v 0.125000 -0.000000 0.000000
v 1.000000 0.000000 1.000000
v 1.000000 -0.000000 0.000000
v 1.000000 0.125000 1.000000
v 1.000000 0.125000 0.000000
v 1.000000 0.875000 1.000000
v 1.000000 0.875000 -0.000000
vn -0.0000 1.0000 -0.0000
vn -0.0000 -1.0000 -0.0000
vn -0.0000 -0.0000 -1.0000
vn -0.0000 -0.0000 1.0000
vn 1.0000 -0.0000 -0.0000
vn -1.0000 -0.0000 -0.0000
vt 1.000000 0.000000
vt 1.000000 0.125000
vt 0.000000 0.125000
vt 0.000000 0.000000
vt 1.000000 0.875000
vt 0.000000 0.875000
vt 1.000000 1.000000
vt 0.000000 1.000000
vt 0.875000 0.562500
vt 0.125000 0.562500
vt 0.125000 0.500000
vt 0.875000 0.500000
vt 0.125000 0.687500
vt 0.875000 0.687500
vt 0.875000 0.750000
vt 0.125000 0.750000
vt 1.000000 0.125000
vt 0.000000 0.125000
vt 1.000000 0.062500
vt 0.000000 0.062500
vt 0.000000 0.937500
vt 1.000000 0.937500
s 0
g up
usemtl side
f 41/1/1 37/2/1 39/3/1 42/4/1
f 39/3/1 37/2/1 38/5/1 40/6/1
f 40/6/1 38/5/1 44/7/1 43/8/1
g down
f 6/6/2 57/5/2 54/7/2 53/8/2
f 5/3/2 58/2/2 57/5/2 6/6/2
f 55/1/2 58/2/2 5/3/2 56/4/2
g north
usemtl encased_chain_drive_4
f 26/9/3 28/10/3 27/11/3 25/12/3
f 30/11/3 32/12/3 31/9/3 29/10/3
g south
f 4/13/4 2/14/4 1/15/4 3/16/4
f 36/11/4 34/12/4 33/9/4 35/10/4
g east
f 63/17/5 64/18/5 7/4/5 8/1/5
f 59/7/5 60/8/5 62/6/5 61/5/5
g west
f 51/17/6 52/18/6 46/4/6 45/1/6
f 47/7/6 48/8/6 50/6/6 49/5/6
g off
usemtl encased_border_2
f 12/1/1 9/19/1 10/20/1 11/4/1
f 15/8/2 14/21/2 13/22/2 16/7/2
f 19/20/1 21/4/1 22/1/1 20/19/1
f 18/22/2 24/7/2 23/8/2 17/21/2
usemtl encased_chain_drive_2
f 19/18/5 20/17/5 18/5/5 17/6/5
f 10/5/6 9/6/6 13/18/6 14/17/6
