# Blender 5.2.1 LTS
# www.blender.org
mtllib textures.mtl
o single
v 0.875000 0.875000 0.937500
v 0.875000 0.125000 0.937500
v 0.125000 0.875000 0.937500
v 0.125000 0.125000 0.937500
v 1.000000 1.000000 1.000000
v 1.000000 1.000000 -0.000000
v 1.000000 0.000000 1.000000
v 1.000000 -0.000000 0.000000
v 0.000000 1.000000 -0.000000
v 0.000000 1.000000 1.000000
v 0.000000 -0.000000 0.000000
v 0.000000 0.000000 1.000000
v 0.000000 0.000000 1.000000
v 0.000000 -0.000000 0.000000
v 1.000000 -0.000000 0.000000
v 1.000000 0.000000 1.000000
v 0.875000 0.875000 -0.000000
v 0.875000 0.875000 0.062500
v 0.875000 0.125000 0.000000
v 0.875000 0.125000 0.062500
v 0.125000 0.875000 0.062500
v 0.125000 0.875000 -0.000000
v 0.125000 0.125000 0.062500
v 0.125000 0.125000 0.000000
v 0.000000 0.000000 1.000000
v 0.000000 -0.000000 0.000000
v 0.000000 1.000000 1.000000
v 0.000000 1.000000 -0.000000
v 0.875000 0.875000 1.000000
v 0.875000 0.125000 1.000000
v 0.125000 0.875000 1.000000
v 0.125000 0.125000 1.000000
v 1.000000 -0.000000 0.000000
v 1.000000 0.000000 1.000000
v 1.000000 1.000000 -0.000000
v 1.000000 1.000000 1.000000
v 0.000000 1.000000 1.000000
v 0.000000 1.000000 -0.000000
v 1.000000 1.000000 -0.000000
v 1.000000 1.000000 1.000000
vn -0.0000 -0.0000 1.0000
vn -0.0000 1.0000 -0.0000
vn -0.0000 -1.0000 -0.0000
vn -0.0000 -0.0000 -1.0000
vn -1.0000 -0.0000 -0.0000
vn 1.0000 -0.0000 -0.0000
vt 0.000000 0.000000
vt 1.000000 0.000000
vt 0.875000 0.125000
vt 0.125000 0.125000
vt 0.000000 1.000000
vt 0.125000 0.875000
vt 0.875000 0.875000
vt 1.000000 1.000000
vt 0.125000 0.375000
vt 0.000000 0.250000
vt 1.000000 0.250000
vt 0.875000 0.375000
vt 0.000000 0.750000
vt 0.125000 0.625000
vt 0.875000 0.625000
vt 1.000000 0.750000
vt 0.125000 0.125000
vt 0.125000 0.875000
vt 0.125000 1.000000
vt 0.125000 0.937500
vt 0.875000 0.937500
vt 0.875000 1.000000
vt 0.125000 0.062500
vt 0.125000 0.000000
vt 0.875000 0.000000
vt 0.875000 0.062500
vt 0.125000 0.875000
s 0
g up
usemtl side
f 37/1/2 40/2/2 39/8/2 38/5/2
g down
f 14/8/3 15/5/3 16/1/3 13/2/3
g east
f 34/2/6 33/8/6 35/5/6 36/1/6
g west
f 26/5/5 25/1/5 27/2/5 28/8/5
g north
usemtl gearbox_3
f 20/17/4 23/3/4 21/7/4 18/27/4
g south
f 4/17/1 2/3/1 1/7/1 3/27/1
usemtl encased_border_1
f 12/1/1 7/2/1 30/3/1 32/4/1
f 10/5/1 31/6/1 29/7/1 5/8/1
f 30/9/1 7/10/1 5/11/1 29/12/1
f 12/13/1 32/14/1 31/15/1 10/16/1
g north
f 8/1/4 11/2/4 24/3/4 19/17/4
f 6/5/4 17/18/4 22/7/4 9/8/4
f 8/13/4 19/14/4 17/15/4 6/16/4
f 24/9/4 11/10/4 9/11/4 22/12/4
usemtl encased_border_2
f 19/19/5 20/20/5 18/21/5 17/22/5
f 23/23/6 24/24/6 22/25/6 21/26/6
f 23/20/2 20/21/2 19/22/2 24/19/2
f 22/24/3 17/25/3 18/26/3 21/23/3
g south
f 2/19/5 30/20/5 29/21/5 1/22/5
f 32/23/6 4/24/6 3/25/6 31/26/6
f 32/20/2 30/21/2 2/22/2 4/19/2
f 3/24/3 1/25/3 29/26/3 31/23/3
